<?xml version="1.0" encoding="utf-8"?>
<!-- Generator: Adobe Illustrator 24.2.1, SVG Export Plug-In . SVG Version: 6.00 Build 0)  -->
<svg version="1.1" id="Layer_1" xmlns="http://www.w3.org/2000/svg" xmlns:xlink="http://www.w3.org/1999/xlink" x="0px" y="0px"
	 viewBox="0 0 2150 1200" style="enable-background:new 0 0 2150 1200;" xml:space="preserve">
<style type="text/css">
	.st0{fill-rule:evenodd;clip-rule:evenodd;fill:#B52E31;}
	.st1{fill-rule:evenodd;clip-rule:evenodd;fill:#E23237;}
	.st2{fill-rule:evenodd;clip-rule:evenodd;fill:#FFFFFF;}
</style>
<g>
	<g>
		<path class="st0" d="M383.3,1141.1V833.5h39.6l188,247.6V833.5h37.6v307.6h-39.6l-188-250v250H383.3z M934.6,1128.9
			c-24.9,9.3-51.8,14.2-80.1,14.2c-111.3,0-167-53.2-167-160.2c0-101.1,53.7-151.9,161.1-151.9c30.8,0,59.6,4.4,85.9,12.7v34.2
			c-26.4-10.3-53.7-15.1-81.5-15.1c-84,0-126,40-126,119.1c0,85.4,41.5,127.9,124,127.9c13.2,0,27.8-2,43.9-5.4v-103h39.6
			L934.6,1128.9L934.6,1128.9z M988.1,1022.5v-189h39.6v189c0,59.1,29.3,88.9,88.4,88.9c58.6,0,88.4-29.8,88.4-88.9v-189h39.6v189
			c0,80.6-42.5,121.1-127.9,121.1S988.1,1103,988.1,1022.5z M1334.2,833.5v275.4h161.1v32.2h-200.7V833.5H1334.2L1334.2,833.5z
			 M1552.5,1141.1H1511L1663.8,793l152.8,348.1h-43.9l-39.6-96.7h-101.6l10.7-32.2h77.6L1662.2,873L1552.5,1141.1L1552.5,1141.1z
			 M1859.2,1141.1V833.5h131.3c58.6,0,87.9,24.4,87.9,73.7c0,40-28.8,69.8-85.9,88.9l105.5,145h-52.2l-97.7-138.2V977
			c58.6-9.3,88.4-31.7,88.4-67.9c0-28.3-16.1-42.5-48.8-42.5h-87.9V1141h-40.6V1141.1z"/>
	</g>
	<path class="st1" d="M797.9,168.7l314.9-112.3L1436,166.8l-52.2,416.5l-271,149.9l-266.6-148L797.9,168.7z"/>
	<path class="st0" d="M1436.1,166.8L1112.8,56.4v676.8l271-149.9L1436.1,166.8L1436.1,166.8z"/>
	<path class="st2" d="M1113.2,135.5L917,572l73.2-1.5l39.6-98.6h175.3l43,99.6l69.8,1.5L1113.2,135.5L1113.2,135.5z M1113.8,275.6
		l66.4,138.7h-124.5L1113.8,275.6z"/>
</g>
<polygon class="st0" points="93.7,1141.1 52.2,1141.1 205,793 357.9,1141.1 313.9,1141.1 274.4,1044.5 172.8,1044.5 183.5,1012.2 
	261.2,1012.2 203.6,873.1 "/>
</svg>
