<?xml version="1.0" encoding="utf-8"?>
<!-- Generator: Adobe Illustrator 22.0.0, SVG Export Plug-In . SVG Version: 6.00 Build 0)  -->
<svg version="1.1"
	 id="svg46" inkscape:version="0.92.2 (5c3e80d, 2017-08-06)" sodipodi:docname="d3js-ar21.svg" xmlns:cc="http://creativecommons.org/ns#" xmlns:dc="http://purl.org/dc/elements/1.1/" xmlns:inkscape="http://www.inkscape.org/namespaces/inkscape" xmlns:rdf="http://www.w3.org/1999/02/22-rdf-syntax-ns#" xmlns:sodipodi="http://sodipodi.sourceforge.net/DTD/sodipodi-0.dtd" xmlns:svg="http://www.w3.org/2000/svg"
	 xmlns="http://www.w3.org/2000/svg" xmlns:xlink="http://www.w3.org/1999/xlink" x="0px" y="0px" viewBox="0 0 120 60"
	 style="enable-background:new 0 0 120 60;" xml:space="preserve">
<style type="text/css">
	.st0{fill:url(#path34_1_);}
	.st1{fill:url(#path36_1_);}
	.st2{fill:url(#path38_1_);}
	.st3{fill:url(#path40_1_);}
	.st4{fill:url(#path42_1_);}
	.st5{fill:url(#path44_1_);}
	.st6{fill:#DDDDDD;}
</style>
<sodipodi:namedview  bordercolor="#666666" borderopacity="1" gridtolerance="10" guidetolerance="10" id="namedview48" inkscape:current-layer="svg46" inkscape:cx="59.832372" inkscape:cy="22.405305" inkscape:pageopacity="0" inkscape:pageshadow="2" inkscape:window-height="1001" inkscape:window-maximized="1" inkscape:window-width="1920" inkscape:window-x="-9" inkscape:window-y="-9" inkscape:zoom="5.4938996" objecttolerance="10" pagecolor="#ffffff" showgrid="false">
	</sodipodi:namedview>
<g id="g4630" transform="translate(-3.5202596e-8,2.0822627)">
	<g id="g4600" transform="matrix(0.11884541,0,0,0.11884541,44.79272,6.5280698)">
		
			<linearGradient id="path34_1_" gradientUnits="userSpaceOnUse" x1="15661.3174" y1="-22616.168" x2="15827.6846" y2="-22793.6523" gradientTransform="matrix(0.1196 0 0 -0.1181 -1769.8329 -2655.5359)">
			<stop  offset="0" style="stop-color:#F9A03C"/>
			<stop  offset="1" style="stop-color:#F7974E"/>
		</linearGradient>
		<path id="path34" inkscape:connector-curvature="0" class="st0" d="M266.9,186.1c0.1-1.2,0.2-2.4,0.3-3.7
			c0.1-1.5-87.7-84.8-87.7-84.8h-2.1C177.3,97.7,266.3,191.5,266.9,186.1L266.9,186.1z"/>
		
			<linearGradient id="path36_1_" gradientUnits="userSpaceOnUse" x1="14657.8994" y1="-22656.3066" x2="14814.416" y2="-22808.957" gradientTransform="matrix(0.1185 0 0 -0.1191 -1772.438 -2651.7896)">
			<stop  offset="0" style="stop-color:#F9A03C"/>
			<stop  offset="1" style="stop-color:#F7974E"/>
		</linearGradient>
		<path id="path36" inkscape:connector-curvature="0" class="st1" d="M79.5,157.2c-0.1,0.3-0.2,0.5-0.4,0.8
			c-0.1,0.3-0.3,0.5-0.4,0.8c-2.8,5.8,39.2,46.9,42.6,41.9c0.2-0.2,0.3-0.5,0.5-0.7c0.2-0.3,0.3-0.5,0.5-0.8
			C125,195.1,80.7,154.5,79.5,157.2z"/>
		
			<linearGradient id="path38_1_" gradientUnits="userSpaceOnUse" x1="14979.3477" y1="-23541.7988" x2="15119.1816" y2="-23702.1191" gradientTransform="matrix(0.1205 0 0 -0.1172 -1767.7246 -2658.5188)">
			<stop  offset="0" style="stop-color:#F9A03C"/>
			<stop  offset="1" style="stop-color:#F7974E"/>
		</linearGradient>
		<path id="path38" inkscape:connector-curvature="0" class="st2" d="M138.8,214.9c-0.1,0.3-1,1.7-1.7,2.4c-0.1,0.3,41,41,41,41h3.7
			C181.8,258.4,143.2,216.7,138.8,214.9z"/>
		
			<linearGradient id="path40_1_" gradientUnits="userSpaceOnUse" x1="14628.5205" y1="-22940.2676" x2="14821.335" y2="-23194.7871" gradientTransform="matrix(0.1222 0 0 -0.1156 -1763.5563 -2664.2927)">
			<stop  offset="0" style="stop-color:#F26D58"/>
			<stop  offset="1" style="stop-color:#F9A03C"/>
		</linearGradient>
		<path id="path40" inkscape:connector-curvature="0" class="st3" d="M267.2,181.7c-1.9,42.6-37.2,76.7-80.3,76.7h-5.8l-43-42.4
			c3.5-5,6.8-10.2,9.8-15.6h39.1c12.4,0,22.4-10.1,22.4-22.4c0-12.4-10.1-22.4-22.4-22.4h-23.1c1.8-9.3,2.7-18.9,2.7-28.8
			c0-10-1-19.7-2.8-29.2h14.4l88.9,87.6C267.1,184.1,267.2,182.9,267.2,181.7z M12-5.1h-23.4v57.9H12c40.8,0,74.1,33.2,74.1,74
			c0,11.1-2.5,21.7-6.9,31.1l42.6,42c14-21,22.2-46.1,22.2-73.1C144,54.1,84.8-5.1,12-5.1z"/>
		
			<linearGradient id="path42_1_" gradientUnits="userSpaceOnUse" x1="16696.5273" y1="-21289.291" x2="16886.8828" y2="-21414.3711" gradientTransform="matrix(0.114 0 0 -0.1239 -1783.6329 -2634.8914)">
			<stop  offset="0" style="stop-color:#B84E51"/>
			<stop  offset="1" style="stop-color:#F68E48"/>
		</linearGradient>
		<path id="path42" inkscape:connector-curvature="0" class="st4" d="M186.9-5.1H92.3C115.4,9,134.5,29,147.6,52.8h39.4
			c12.4,0,22.4,10.1,22.4,22.4c0,12.4-10.1,22.4-22.4,22.4h-8.8l88.9,87.6c0.2-2.4,0.3-4.8,0.3-7.2c0-19.5-7-37.5-18.6-51.4
			c11.6-13.9,18.6-31.9,18.6-51.4C267.3,30.9,231.3-5.1,186.9-5.1z"/>
		
			<linearGradient id="path44_1_" gradientUnits="userSpaceOnUse" x1="10599.9707" y1="-34289.5469" x2="10606.7949" y2="-34462.2305" gradientTransform="matrix(0.1642 0 0 -8.603202e-02 -1661.1851 -2768.3545)">
			<stop  offset="0" style="stop-color:#F9A03C"/>
			<stop  offset="1" style="stop-color:#F7974E"/>
		</linearGradient>
		<path id="path44" inkscape:connector-curvature="0" class="st5" d="M181.1,258.4H92.9c17.7-11,33.1-25.4,45.1-42.4L181.1,258.4z
			 M121.8,200l-42.6-42c-11.8,25.3-37.5,42.9-67.2,42.9h-23.4v57.9H12C57.7,258.8,98.1,235.4,121.8,200z"/>
	</g>
	<g id="text862" transform="matrix(0.22623417,0,0,0.22623417,78.547632,59.187041)">
		<path id="path4553" inkscape:connector-curvature="0" class="st6" d="M-316-46c0,2.9-0.6,5.5-1.9,7.8c-1.2,2.3-2.9,4.2-5,5.4
			c-1.4,0.9-3.1,1.5-4.8,1.9c-1.8,0.4-4.1,0.6-7,0.6h-8v-31.7h7.9c3.1,0,5.5,0.2,7.4,0.7c1.8,0.4,3.4,1,4.6,1.8
			c2.2,1.3,3.8,3.1,5,5.4C-316.6-51.7-316-49.1-316-46z M-320.4-46.1c0-2.5-0.4-4.6-1.3-6.3c-0.9-1.7-2.2-3-3.9-4
			c-1.2-0.7-2.6-1.2-4-1.5c-1.4-0.3-3.1-0.4-5-0.4h-4v24.4h4c2,0,3.8-0.1,5.3-0.4c1.5-0.3,2.9-0.9,4.2-1.7c1.6-1,2.8-2.3,3.5-4
			C-320.8-41.5-320.4-43.6-320.4-46.1z"/>
		<path id="path4555" inkscape:connector-curvature="0" class="st6" d="M-291-30.2h-4v-2.5c-0.4,0.2-0.8,0.6-1.4,1
			c-0.6,0.4-1.2,0.8-1.7,1c-0.7,0.3-1.4,0.6-2.3,0.8c-0.9,0.2-1.9,0.3-3,0.3c-2.1,0-4-0.7-5.4-2.1c-1.5-1.4-2.2-3.2-2.2-5.4
			c0-1.8,0.4-3.3,1.1-4.4c0.8-1.1,1.9-2,3.3-2.6c1.4-0.6,3.2-1.1,5.2-1.3c2-0.2,4.2-0.4,6.5-0.5v-0.6c0-0.9-0.2-1.7-0.5-2.3
			c-0.3-0.6-0.8-1.1-1.4-1.4c-0.6-0.3-1.2-0.5-2-0.7c-0.8-0.1-1.6-0.2-2.5-0.2c-1,0-2.2,0.1-3.5,0.4c-1.3,0.3-2.6,0.7-4,1.2h-0.2
			v-4.1c0.8-0.2,1.9-0.4,3.4-0.7c1.5-0.3,2.9-0.4,4.4-0.4c1.7,0,3.1,0.1,4.4,0.4c1.2,0.3,2.3,0.7,3.2,1.4c0.9,0.7,1.6,1.5,2,2.5
			c0.5,1,0.7,2.3,0.7,3.8V-30.2z M-295-36.1v-6.6c-1.2,0.1-2.7,0.2-4.3,0.3c-1.6,0.1-2.9,0.3-3.9,0.6c-1.1,0.3-2.1,0.8-2.8,1.5
			c-0.7,0.7-1.1,1.6-1.1,2.8c0,1.4,0.4,2.4,1.2,3.1c0.8,0.7,2.1,1,3.8,1c1.4,0,2.7-0.3,3.8-0.8C-297.1-34.6-296-35.3-295-36.1z"/>
		<path id="path4557" inkscape:connector-curvature="0" class="st6" d="M-271-30.4c-0.8,0.2-1.6,0.4-2.5,0.5
			c-0.9,0.1-1.7,0.2-2.4,0.2c-2.4,0-4.3-0.7-5.5-2c-1.3-1.3-1.9-3.4-1.9-6.3v-12.6h-2.7V-54h2.7v-6.8h4v6.8h8.3v3.4h-8.3v10.8
			c0,1.2,0,2.2,0.1,2.9c0.1,0.7,0.3,1.3,0.6,2c0.3,0.6,0.7,1,1.3,1.3c0.6,0.3,1.4,0.4,2.5,0.4c0.7,0,1.3-0.1,2-0.3
			c0.7-0.2,1.2-0.4,1.5-0.5h0.2L-271-30.4z"/>
		<path id="path4559" inkscape:connector-curvature="0" class="st6" d="M-247.6-30.2h-4v-2.5c-0.4,0.2-0.8,0.6-1.4,1
			c-0.6,0.4-1.2,0.8-1.7,1c-0.7,0.3-1.4,0.6-2.3,0.8c-0.9,0.2-1.9,0.3-3,0.3c-2.1,0-4-0.7-5.4-2.1c-1.5-1.4-2.2-3.2-2.2-5.4
			c0-1.8,0.4-3.3,1.1-4.4c0.8-1.1,1.9-2,3.3-2.6c1.4-0.6,3.2-1.1,5.2-1.3c2-0.2,4.2-0.4,6.5-0.5v-0.6c0-0.9-0.2-1.7-0.5-2.3
			c-0.3-0.6-0.8-1.1-1.4-1.4c-0.6-0.3-1.2-0.5-2-0.7c-0.8-0.1-1.6-0.2-2.5-0.2c-1,0-2.2,0.1-3.5,0.4c-1.3,0.3-2.6,0.7-4,1.2h-0.2
			v-4.1c0.8-0.2,1.9-0.4,3.4-0.7c1.5-0.3,2.9-0.4,4.4-0.4c1.7,0,3.1,0.1,4.4,0.4c1.2,0.3,2.3,0.7,3.2,1.4c0.9,0.7,1.6,1.5,2,2.5
			c0.5,1,0.7,2.3,0.7,3.8V-30.2z M-251.6-36.1v-6.6c-1.2,0.1-2.7,0.2-4.3,0.3c-1.6,0.1-2.9,0.3-3.9,0.6c-1.1,0.3-2.1,0.8-2.8,1.5
			c-0.7,0.7-1.1,1.6-1.1,2.8c0,1.4,0.4,2.4,1.2,3.1c0.8,0.7,2.1,1,3.8,1c1.4,0,2.7-0.3,3.8-0.8C-253.7-34.6-252.6-35.3-251.6-36.1z"
			/>
		<path id="path4561" inkscape:connector-curvature="0" class="st6" d="M-227.3-42.1h-13.3V-46h13.3V-42.1z"/>
		<path id="path4563" inkscape:connector-curvature="0" class="st6" d="M-193-46c0,2.9-0.6,5.5-1.9,7.8c-1.2,2.3-2.9,4.2-5,5.4
			c-1.4,0.9-3.1,1.5-4.8,1.9c-1.8,0.4-4.1,0.6-7,0.6h-8v-31.7h7.9c3.1,0,5.5,0.2,7.4,0.7c1.8,0.4,3.4,1,4.6,1.8
			c2.2,1.3,3.8,3.1,5,5.4C-193.6-51.7-193-49.1-193-46z M-197.4-46.1c0-2.5-0.4-4.6-1.3-6.3c-0.9-1.7-2.2-3-3.9-4
			c-1.2-0.7-2.6-1.2-4-1.5c-1.4-0.3-3.1-0.4-5-0.4h-4v24.4h4c2,0,3.8-0.1,5.3-0.4c1.5-0.3,2.9-0.9,4.2-1.7c1.6-1,2.8-2.3,3.5-4
			C-197.8-41.5-197.4-43.6-197.4-46.1z"/>
		<path id="path4565" inkscape:connector-curvature="0" class="st6" d="M-171.6-49.6h-0.2c-0.6-0.1-1.2-0.2-1.7-0.3
			c-0.6-0.1-1.2-0.1-2-0.1c-1.2,0-2.4,0.3-3.6,0.8c-1.1,0.5-2.3,1.2-3.3,2.1v16.9h-4V-54h4v3.5c1.6-1.3,3-2.2,4.2-2.7
			c1.2-0.5,2.5-0.8,3.7-0.8c0.7,0,1.2,0,1.5,0.1c0.3,0,0.8,0.1,1.4,0.2V-49.6z"/>
		<path id="path4567" inkscape:connector-curvature="0" class="st6" d="M-163.5-57.9h-4.5v-4.1h4.5V-57.9z M-163.8-30.2h-4V-54h4
			V-30.2z"/>
		<path id="path4569" inkscape:connector-curvature="0" class="st6" d="M-135.3-54l-9.6,23.8h-4l-9.5-23.8h4.3l7.4,18.9l7.3-18.9
			H-135.3z"/>
		<path id="path4571" inkscape:connector-curvature="0" class="st6" d="M-110.5-41.7H-128c0,1.5,0.2,2.7,0.7,3.8
			c0.4,1.1,1,2,1.8,2.7c0.7,0.7,1.6,1.2,2.6,1.5c1,0.3,2.1,0.5,3.4,0.5c1.6,0,3.2-0.3,4.9-1c1.6-0.7,2.8-1.3,3.5-1.9h0.2v4.4
			c-1.3,0.6-2.7,1-4.1,1.4s-2.9,0.6-4.4,0.6c-3.9,0-7-1.1-9.2-3.2c-2.2-2.1-3.3-5.2-3.3-9.1c0-3.9,1.1-7,3.2-9.3
			c2.1-2.3,4.9-3.4,8.4-3.4c3.2,0,5.7,0.9,7.4,2.8c1.7,1.9,2.6,4.5,2.6,8L-110.5-41.7z M-114.4-44.7c0-2.1-0.5-3.7-1.6-4.9
			c-1-1.1-2.6-1.7-4.7-1.7c-2.1,0-3.8,0.6-5.1,1.9c-1.3,1.3-2,2.8-2.1,4.7H-114.4z"/>
		<path id="path4573" inkscape:connector-curvature="0" class="st6" d="M-84.6-30.2h-4v-13.5c0-1.1-0.1-2.1-0.2-3.1
			c-0.1-1-0.4-1.7-0.7-2.3c-0.4-0.6-0.9-1-1.5-1.3c-0.7-0.3-1.5-0.4-2.6-0.4c-1.1,0-2.2,0.3-3.4,0.8s-2.3,1.2-3.4,2.1v17.7h-4V-54h4
			v2.6c1.2-1,2.5-1.8,3.9-2.4c1.3-0.6,2.7-0.9,4.1-0.9c2.6,0,4.5,0.8,5.9,2.3c1.3,1.5,2,3.8,2,6.7V-30.2z"/>
		<path id="path4575" inkscape:connector-curvature="0" class="st6" d="M-34.5-46c0,2.9-0.6,5.5-1.9,7.8c-1.2,2.3-2.9,4.2-5,5.4
			c-1.4,0.9-3.1,1.5-4.8,1.9c-1.8,0.4-4.1,0.6-7,0.6h-8v-31.7h7.9c3.1,0,5.5,0.2,7.4,0.7c1.8,0.4,3.4,1,4.6,1.8
			c2.2,1.3,3.8,3.1,5,5.4S-34.5-49.1-34.5-46z M-38.9-46.1c0-2.5-0.4-4.6-1.3-6.3s-2.2-3-3.9-4c-1.2-0.7-2.6-1.2-4-1.5
			c-1.4-0.3-3.1-0.4-5-0.4h-4v24.4h4c2,0,3.8-0.1,5.3-0.4c1.5-0.3,2.9-0.9,4.2-1.7c1.6-1,2.8-2.3,3.5-4
			C-39.3-41.5-38.9-43.6-38.9-46.1z"/>
		<path id="path4577" inkscape:connector-curvature="0" class="st6" d="M-7.7-42.1c0,3.9-1,6.9-3,9.2c-2,2.2-4.6,3.4-8,3.4
			c-3.4,0-6-1.1-8-3.4c-2-2.2-3-5.3-3-9.2s1-6.9,3-9.2c2-2.3,4.7-3.4,8-3.4c3.3,0,6,1.1,8,3.4C-8.7-49-7.7-45.9-7.7-42.1z
			 M-11.8-42.1c0-3.1-0.6-5.4-1.8-6.8c-1.2-1.5-2.9-2.3-5-2.3c-2.2,0-3.9,0.8-5.1,2.3c-1.2,1.5-1.8,3.8-1.8,6.8c0,3,0.6,5.2,1.8,6.8
			c1.2,1.5,2.9,2.3,5,2.3c2.1,0,3.8-0.8,5-2.3C-12.5-36.8-11.8-39.1-11.8-42.1z"/>
		<path id="path4579" inkscape:connector-curvature="0" class="st6" d="M16.1-31.7c-1.3,0.6-2.6,1.1-3.8,1.5
			c-1.2,0.4-2.5,0.5-3.8,0.5c-1.7,0-3.3-0.2-4.7-0.7c-1.4-0.5-2.7-1.3-3.7-2.3c-1-1-1.8-2.3-2.4-3.9C-2.9-38.1-3.2-40-3.2-42
			c0-3.9,1.1-6.9,3.2-9.1c2.1-2.2,5-3.3,8.5-3.3c1.4,0,2.7,0.2,4,0.6c1.3,0.4,2.5,0.9,3.6,1.4v4.4h-0.2c-1.2-1-2.5-1.7-3.8-2.2
			C10.8-50.8,9.5-51,8.3-51c-2.3,0-4.1,0.8-5.4,2.3c-1.3,1.5-2,3.8-2,6.7c0,2.9,0.6,5.1,1.9,6.6c1.3,1.5,3.1,2.3,5.4,2.3
			c0.8,0,1.6-0.1,2.5-0.3c0.8-0.2,1.6-0.5,2.3-0.8c0.6-0.3,1.1-0.6,1.6-0.9c0.5-0.3,0.9-0.6,1.2-0.9h0.2V-31.7z"/>
		<path id="path4581" inkscape:connector-curvature="0" class="st6" d="M40.9-30.2h-4v-2.6c-1.3,1.1-2.6,1.9-3.9,2.4
			c-1.2,0.6-2.6,0.9-4.1,0.9c-2.5,0-4.4-0.8-5.8-2.3c-1.4-1.5-2.1-3.8-2.1-6.7V-54h4v13.5c0,1.2,0.1,2.2,0.2,3.1
			c0.1,0.9,0.4,1.6,0.7,2.2c0.4,0.6,0.9,1.1,1.5,1.4c0.6,0.3,1.5,0.4,2.7,0.4c1,0,2.2-0.3,3.4-0.8c1.2-0.5,2.4-1.2,3.4-2.1V-54h4
			V-30.2z"/>
		<path id="path4583" inkscape:connector-curvature="0" class="st6" d="M83.4-30.2h-4v-13.5c0-1,0-2-0.1-3c-0.1-1-0.3-1.7-0.6-2.3
			c-0.3-0.6-0.8-1.1-1.4-1.4c-0.6-0.3-1.5-0.5-2.6-0.5c-1.1,0-2.2,0.3-3.4,0.9c-1.1,0.6-2.2,1.3-3.4,2.1c0,0.3,0.1,0.7,0.1,1.1
			c0,0.4,0,0.9,0,1.3v15.2h-4v-13.5c0-1,0-2-0.1-3c-0.1-1-0.3-1.7-0.6-2.3c-0.3-0.6-0.8-1.1-1.4-1.4c-0.6-0.3-1.5-0.5-2.6-0.5
			c-1.1,0-2.2,0.3-3.3,0.8c-1.1,0.5-2.2,1.2-3.3,2.1v17.7h-4V-54h4v2.6c1.2-1,2.5-1.8,3.7-2.4c1.2-0.6,2.6-0.9,4-0.9
			c1.6,0,3,0.3,4.1,1c1.1,0.7,2,1.6,2.5,2.8c1.6-1.4,3.1-2.3,4.4-2.9c1.3-0.6,2.8-0.9,4.3-0.9c2.6,0,4.5,0.8,5.8,2.4
			c1.2,1.6,1.9,3.8,1.9,6.6V-30.2z"/>
		<path id="path4585" inkscape:connector-curvature="0" class="st6" d="M111-41.7H93.5c0,1.5,0.2,2.7,0.7,3.8c0.4,1.1,1,2,1.8,2.7
			c0.7,0.7,1.6,1.2,2.6,1.5c1,0.3,2.1,0.5,3.4,0.5c1.6,0,3.2-0.3,4.9-1c1.6-0.7,2.8-1.3,3.5-1.9h0.2v4.4c-1.3,0.6-2.7,1-4.1,1.4
			s-2.9,0.6-4.4,0.6c-3.9,0-7-1.1-9.2-3.2c-2.2-2.1-3.3-5.2-3.3-9.1c0-3.9,1.1-7,3.2-9.3c2.1-2.3,4.9-3.4,8.4-3.4
			c3.2,0,5.7,0.9,7.4,2.8c1.7,1.9,2.6,4.5,2.6,8V-41.7z M107.1-44.7c0-2.1-0.5-3.7-1.6-4.9c-1-1.1-2.6-1.7-4.7-1.7
			c-2.1,0-3.8,0.6-5.1,1.9c-1.3,1.3-2,2.8-2.1,4.7H107.1z"/>
		<path id="path4587" inkscape:connector-curvature="0" class="st6" d="M136.9-30.2h-4v-13.5c0-1.1-0.1-2.1-0.2-3.1
			c-0.1-1-0.4-1.7-0.7-2.3c-0.4-0.6-0.9-1-1.5-1.3c-0.7-0.3-1.5-0.4-2.6-0.4c-1.1,0-2.2,0.3-3.4,0.8c-1.2,0.5-2.3,1.2-3.4,2.1v17.7
			h-4V-54h4v2.6c1.2-1,2.5-1.8,3.9-2.4c1.3-0.6,2.7-0.9,4.1-0.9c2.6,0,4.5,0.8,5.9,2.3c1.3,1.5,2,3.8,2,6.7L136.9-30.2z"/>
		<path id="path4589" inkscape:connector-curvature="0" class="st6" d="M157-30.4c-0.8,0.2-1.6,0.4-2.5,0.5
			c-0.9,0.1-1.7,0.2-2.4,0.2c-2.4,0-4.3-0.7-5.5-2c-1.3-1.3-1.9-3.4-1.9-6.3v-12.6H142V-54h2.7v-6.8h4v6.8h8.3v3.4h-8.3v10.8
			c0,1.2,0,2.2,0.1,2.9c0.1,0.7,0.3,1.3,0.6,2c0.3,0.6,0.7,1,1.3,1.3c0.6,0.3,1.4,0.4,2.5,0.4c0.7,0,1.3-0.1,2-0.3
			c0.7-0.2,1.2-0.4,1.5-0.5h0.2L157-30.4z"/>
		<path id="path4591" inkscape:connector-curvature="0" class="st6" d="M178.8-37.1c0,2.2-0.9,3.9-2.7,5.3c-1.8,1.4-4.2,2.1-7.3,2.1
			c-1.8,0-3.4-0.2-4.8-0.6c-1.5-0.4-2.7-0.9-3.7-1.4v-4.5h0.2c1.3,1,2.7,1.7,4.2,2.3c1.5,0.6,3,0.8,4.4,0.8c1.8,0,3.1-0.3,4.1-0.9
			c1-0.6,1.5-1.5,1.5-2.7c0-0.9-0.3-1.6-0.8-2.1s-1.6-0.9-3.1-1.2c-0.6-0.1-1.3-0.3-2.2-0.4c-0.9-0.2-1.7-0.4-2.5-0.6
			c-2.1-0.6-3.6-1.4-4.4-2.4c-0.9-1.1-1.3-2.4-1.3-4c0-1,0.2-1.9,0.6-2.8c0.4-0.9,1-1.6,1.9-2.3c0.8-0.7,1.8-1.2,3-1.6
			c1.2-0.4,2.6-0.6,4.1-0.6c1.4,0,2.9,0.2,4.3,0.5c1.5,0.3,2.7,0.8,3.6,1.3v4.3h-0.2c-1-0.8-2.3-1.4-3.7-1.9
			c-1.5-0.5-2.9-0.8-4.3-0.8c-1.5,0-2.7,0.3-3.7,0.9c-1,0.6-1.5,1.4-1.5,2.5c0,1,0.3,1.7,0.9,2.2c0.6,0.5,1.6,0.9,2.9,1.2
			c0.7,0.2,1.6,0.3,2.5,0.5c0.9,0.2,1.7,0.3,2.3,0.5c1.9,0.4,3.3,1.2,4.3,2.2C178.3-40.2,178.8-38.8,178.8-37.1z"/>
	</g>
</g>
</svg>
