<?xml version="1.0" encoding="utf-8"?>
<!-- Generator: Adobe Illustrator 22.0.0, SVG Export Plug-In . SVG Version: 6.00 Build 0)  -->
<svg version="1.1" id="Warstwa_1" xmlns="http://www.w3.org/2000/svg" xmlns:xlink="http://www.w3.org/1999/xlink" x="0px" y="0px"
	 viewBox="0 0 530.1 106.8" style="enable-background:new 0 0 530.1 106.8;" xml:space="preserve">
<style type="text/css">
	.st0{fill:#DDDDDD;}
	.st1{fill:#8087E8;}
	.st2{fill:#30426B;}
	.st3{fill:#6699A1;}
	.st4{fill:#78758C;}
	.st5{fill:#A3EDBA;}
</style>
<g>
	<path class="st0" d="M147.2,71.1h-24.8v14.3c0,1.6-1.2,2.7-2.7,2.7c-1.6,0-2.7-1.2-2.7-2.7V53.6c0-1.6,1.2-2.7,2.7-2.7
		c1.6,0,2.7,1.2,2.7,2.7v12.3h24.8V53.6c0-1.6,1.2-2.7,2.7-2.7c1.6,0,2.7,1.2,2.7,2.7v31.8c0,1.6-1.2,2.7-2.7,2.7
		c-1.6,0-2.7-1.2-2.7-2.7V71.1z"/>
	<path class="st0" d="M174.1,85.4c0,1.6-1.2,2.7-2.7,2.7s-2.7-1.2-2.7-2.7V53.6c0-1.6,1.2-2.7,2.7-2.7s2.7,1.2,2.7,2.7V85.4z"/>
	<path class="st0" d="M213.7,72c0-1.6,1.2-2.6,2.7-2.6c1.6,0,2.7,1.2,2.7,2.7v8.6c0,0.6-0.4,1.6-0.9,2.2c-3.5,3.5-8,5.4-13.4,5.4
		c-10.5,0-18.8-8.4-18.8-18.8c0-10.5,8.4-18.8,18.8-18.8c5.3,0,9.9,2.1,13.4,5.4c1,1,1,2.7,0,3.8c-1,1-2.9,1.2-3.9,0.1
		c-2.5-2.5-5.7-4-9.5-4c-7.4,0-13.5,6.1-13.5,13.5S197.4,83,204.8,83c3.5,0,6.5-1.2,8.8-3.2L213.7,72L213.7,72z"/>
	<path class="st0" d="M263.2,71.1h-24.8v14.3c0,1.6-1.2,2.7-2.7,2.7c-1.6,0-2.7-1.2-2.7-2.7V53.6c0-1.6,1.2-2.7,2.7-2.7
		c1.6,0,2.7,1.2,2.7,2.7v12.3h24.8V53.6c0-1.6,1.2-2.7,2.7-2.7s2.7,1.2,2.7,2.7v31.8c0,1.6-1.2,2.7-2.7,2.7c-1.6,0-2.7-1.2-2.7-2.7
		V71.1z"/>
	<path class="st0" d="M299.5,88.4c-10.5,0-18.8-8.4-18.8-18.8c0-10.5,8.4-18.8,18.8-18.8c5.3,0,9.9,2.1,13.4,5.5c1,1,1,2.7,0,3.8
		s-2.9,1.2-3.9,0.1c-2.5-2.5-5.7-4-9.5-4c-7.4,0-13.5,6.1-13.5,13.5s6.1,13.5,13.5,13.5c3.8,0,7.1-1.4,9.6-3.9c1-1,2.7-1,3.8,0
		s1,2.7,0,3.8C309.3,86.3,304.6,88.4,299.5,88.4z"/>
	<path class="st0" d="M355.6,71.1h-24.8v14.3c0,1.6-1.2,2.7-2.7,2.7s-2.7-1.2-2.7-2.7V53.6c0-1.6,1.2-2.7,2.7-2.7s2.7,1.2,2.7,2.7
		v12.3h24.8V53.6c0-1.6,1.2-2.7,2.7-2.7s2.7,1.2,2.7,2.7v31.8c0,1.6-1.2,2.7-2.7,2.7s-2.7-1.2-2.7-2.7V71.1z"/>
	<path class="st0" d="M395.2,53.3l15.3,30.1c0.4,0.6,0.6,1.6,0.6,2.2c0,1.6-0.9,2.3-2.5,2.3c-1,0-2.2-0.3-2.9-1.8l-4.8-9.3h-19.7
		l-4.7,9.3c-0.8,1.6-1.8,1.8-2.9,1.8c-1.6,0-2.5-0.9-2.5-2.3c0-0.8,0.3-1.6,0.6-2.2L387,53.3c0.9-2.1,2.9-2.3,4-2.3
		C392.4,51,394.3,51.2,395.2,53.3z M383.9,71.6h14.5l-7.3-14.5L383.9,71.6z"/>
	<path class="st0" d="M441,51.1c6.5,0,11.8,4.8,11.8,11.2c0,5.7-4.2,10-9.5,11l9.9,10.4c0.9,0.9,1.3,2.7,0.3,3.6
		c-1,1-3.1,0.8-4.2-0.4l-12.7-13.4h-9.5v11.8c0,1.6-1.2,2.6-2.7,2.6s-2.7-1.2-2.7-2.7V53.8c0-1.6,1.2-2.7,2.7-2.7
		C424.2,51.1,441,51.1,441,51.1z M426.9,56.3v12.1H441c3.8,0,6.4-2.6,6.4-6.1s-2.6-6.1-6.4-6.1L426.9,56.3L426.9,56.3z"/>
	<path class="st0" d="M477.2,56.3h-13.5c-1.6,0-2.7-1-2.7-2.6s1.2-2.6,2.7-2.6H496c1.6,0,2.7,1,2.7,2.6s-1.2,2.6-2.7,2.6h-13.5v29.1
		c0,1.6-1.2,2.7-2.7,2.7s-2.7-1.2-2.7-2.7V56.3C477.1,56.3,477.2,56.3,477.2,56.3z"/>
	<path class="st0" d="M511.7,65.6c0-13.5,8.3-15.1,14.5-15.1c1.6,0,2.7,1.2,2.7,2.7c0,1.6-1.2,2.7-2.7,2.7c-5.1,0-9.2,1-9.2,9.7v7.5
		c0,13.5-8.3,15.1-14.5,15.1c-1.6,0-2.7-1.2-2.7-2.7s1.2-2.7,2.7-2.7c5.1,0,9.2-1,9.2-9.7V65.6L511.7,65.6z"/>
</g>
<polygon class="st1" points="63.5,14 47.1,52.2 25.7,102.4 75.7,81.2 102.1,70.1 "/>
<polygon class="st2" points="71.9,60.2 75.7,81.2 102.1,70.1 "/>
<polygon class="st3" points="63.5,14 71.9,60.2 102.1,70.1 "/>
<polygon class="st4" points="71.9,60.2 102.1,70.1 47.1,52.2 25.7,102.4 75.7,81.2 "/>
<polygon class="st5" points="25.7,102.4 47.1,52.2 3,37.7 "/>
<polygon class="st3" points="75.7,81.2 80.5,108.1 102.1,70.1 "/>
<polygon class="st1" points="63.5,14 47.1,52.2 71.9,60.2 "/>
</svg>
