<svg id="svg2" xmlns="http://www.w3.org/2000/svg" viewBox="0 0 149 65"><title>Artboard 1</title><g id="layer1"><g id="g3855"><path id="path3069" d="M49.5,26.35a2.3,2.3,0,0,0-1-2.11,5.17,5.17,0,0,0-2.88-.64V20a12.35,12.35,0,0,0,1.66-.12,6,6,0,0,0,1.28-.45,3.16,3.16,0,0,0,.77-.83,2.56,2.56,0,0,0,.26-1.28V12.4a5.49,5.49,0,0,1,.32-1.92,2.89,2.89,0,0,1,1-1.34A6.82,6.82,0,0,1,53,8.37a16.45,16.45,0,0,1,3.33-.26v3.46a5.17,5.17,0,0,0-1.09.13,2.93,2.93,0,0,0-.83.32,1.17,1.17,0,0,0-.51.64,2.48,2.48,0,0,0-.2,1.08v4.61c-.06,1.92-1.28,3.08-3.58,3.4v.19A5.15,5.15,0,0,1,52.77,23a2.88,2.88,0,0,1,.89,2.3v4.61a2.72,2.72,0,0,0,.2,1.09,1.74,1.74,0,0,0,.51.64,2,2,0,0,0,.83.32,6,6,0,0,0,1.09.12v3.46A16.54,16.54,0,0,1,53,35.32a6.38,6.38,0,0,1-2.05-.77,2.39,2.39,0,0,1-1-1.35,5.75,5.75,0,0,1-.32-1.92l-.07-4.93" style="fill:#c4b3d7"/><path id="path3071" d="M58.21,28.27a3.42,3.42,0,0,1,.19-1.21,2.36,2.36,0,0,1,.58-.83,1.93,1.93,0,0,1,.83-.45,5.17,5.17,0,0,1,1.09-.13,4.58,4.58,0,0,1,1,.13,1.64,1.64,0,0,1,.83.45,1.58,1.58,0,0,1,.58.83,3.16,3.16,0,0,1,.19,1.21,3.1,3.1,0,0,1-.19,1.16,2.45,2.45,0,0,1-.58.83,2.17,2.17,0,0,1-.83.45,2.81,2.81,0,0,1-1,.12,6.61,6.61,0,0,1-1.09-.12,1.8,1.8,0,0,1-.83-.45,1.92,1.92,0,0,1-.58-.83,3.1,3.1,0,0,1-.19-1.16" style="fill:#c4b3d7"/><path id="path3073" d="M66.85,38a13.48,13.48,0,0,1-1.54-.12c-.51-.07-1-.2-1.28-.26V34a2.47,2.47,0,0,0,.9.19,3.92,3.92,0,0,0,1,.07,2.36,2.36,0,0,0,.7-.13.94.94,0,0,0,.58-.39,1.41,1.41,0,0,0,.38-.76,3.7,3.7,0,0,0,.13-1.28V13.36h4.74v19a7.84,7.84,0,0,1-.32,2.17,4.41,4.41,0,0,1-1,1.8,4.23,4.23,0,0,1-1.73,1.21,6.07,6.07,0,0,1-2.56.51m.7-29.06a2.48,2.48,0,0,1,.2-1.08,1.94,1.94,0,0,1,.51-.71,1.91,1.91,0,0,1,.83-.38,4.58,4.58,0,0,1,1-.13,4,4,0,0,1,1,.13,1.44,1.44,0,0,1,.77.38,1.57,1.57,0,0,1,.58.71,2.49,2.49,0,0,1,.19,1.08A2.73,2.73,0,0,1,72.42,10a1.62,1.62,0,0,1-.58.71,2.05,2.05,0,0,1-.77.38,5.27,5.27,0,0,1-1,.13,5.93,5.93,0,0,1-1-.13,1.91,1.91,0,0,1-.83-.38,1.74,1.74,0,0,1-.51-.71,2.94,2.94,0,0,1-.2-1.09" style="fill:#c4b3d7"/><path id="path3075" d="M88.61,25.39a5.58,5.58,0,0,1-.51,2.37,3.94,3.94,0,0,1-1.41,1.67,7,7,0,0,1-2.17,1,9.85,9.85,0,0,1-2.88.32,12.14,12.14,0,0,1-1.54-.06,4.54,4.54,0,0,1-1.35-.2,6.3,6.3,0,0,1-1.21-.32,8.53,8.53,0,0,1-1.22-.44V25.91l1.35.57a12.63,12.63,0,0,0,1.4.45c.45.13.9.19,1.35.32a9.41,9.41,0,0,0,1.22.13,5.32,5.32,0,0,0,1.08-.13,1.73,1.73,0,0,0,.71-.32,1,1,0,0,0,.38-.51,1.78,1.78,0,0,0,.13-.64,1.74,1.74,0,0,0-.13-.58.84.84,0,0,0-.45-.51,10.12,10.12,0,0,0-1-.64c-.45-.26-1.09-.51-1.79-.9a9,9,0,0,1-1.92-1A7.39,7.39,0,0,1,77.28,21a5,5,0,0,1-.77-1.41,5.45,5.45,0,0,1-.25-1.85,4.67,4.67,0,0,1,.45-2.12A4.76,4.76,0,0,1,78,14.19a6,6,0,0,1,2-.89A10.58,10.58,0,0,1,82.66,13a10.33,10.33,0,0,1,2.88.38,14.42,14.42,0,0,1,2.82,1.09L87,17.78a20.54,20.54,0,0,0-2.24-.9,6.07,6.07,0,0,0-2.11-.38,2.62,2.62,0,0,0-1.41.32,1.14,1.14,0,0,0-.39.89,2,2,0,0,0,.13.58,1.37,1.37,0,0,0,.45.51,7.57,7.57,0,0,0,.9.58c.38.19.89.45,1.53.7s1.41.64,2,1a5.31,5.31,0,0,1,1.47,1.09,3,3,0,0,1,1,1.41,3.89,3.89,0,0,1,.38,1.85" style="fill:#c4b3d7"/><path id="path3077" d="M96.93,31.15a5.49,5.49,0,0,1-.32,1.92,3,3,0,0,1-1.09,1.35,6.17,6.17,0,0,1-2,.77,16.6,16.6,0,0,1-3.33.25V32a6,6,0,0,0,1.09-.13,3.41,3.41,0,0,0,.83-.32,1.36,1.36,0,0,0,.51-.64,2.54,2.54,0,0,0,.19-1.09V25.2a2.89,2.89,0,0,1,.9-2.3,4.67,4.67,0,0,1,2.69-1.09v-.19c-2.31-.39-3.52-1.47-3.59-3.39V13.62a2.73,2.73,0,0,0-.19-1.09,1.76,1.76,0,0,0-.51-.64,1.87,1.87,0,0,0-.83-.32,5.25,5.25,0,0,0-1.09-.13V8a16.52,16.52,0,0,1,3.33.26,6.17,6.17,0,0,1,2,.77,2.78,2.78,0,0,1,1.09,1.34,5.49,5.49,0,0,1,.32,1.92v4.87a2.74,2.74,0,0,0,.26,1.28,1.86,1.86,0,0,0,.77.83,3.54,3.54,0,0,0,1.21.45,14.55,14.55,0,0,0,1.73.13v3.64a5.48,5.48,0,0,0-2.94.64,2.46,2.46,0,0,0-1,2.12v4.92" style="fill:#c4b3d7"/></g><g id="g3843"><path id="path3038" d="M30,63.22a2.48,2.48,0,0,1-.9-.1,1.45,1.45,0,0,1-.7-.2v-1.6a1.7,1.7,0,0,0,.7.1c.3,0,.6.1.9.1a2.2,2.2,0,0,0,.8-.1,4.88,4.88,0,0,0,.7-.3,1.79,1.79,0,0,0,.5-.7,3.59,3.59,0,0,0,.2-1.1v-15h1.9v14.8a5.82,5.82,0,0,1-.3,1.9,4.11,4.11,0,0,1-.8,1.3,5.67,5.67,0,0,1-1.3.8,5.23,5.23,0,0,1-1.8.3" style="fill:#d5d7d8"/><path id="path3040" d="M43.64,57.72h0a6,6,0,0,1-.8.8,3,3,0,0,1-.7.5l-.9.3a3.75,3.75,0,0,1-1.1.1,5.07,5.07,0,0,1-1.3-.2,2.07,2.07,0,0,1-1-.6,3.59,3.59,0,0,1-.7-1,3.42,3.42,0,0,1-.2-1.5,3.09,3.09,0,0,1,1.2-2.6,6.71,6.71,0,0,1,3.6-1l1.9-.1v-.7a3.09,3.09,0,0,0-.2-1.1c-.1-.3-.2-.6-.4-.7a1.61,1.61,0,0,0-.7-.4,2.77,2.77,0,0,0-.9-.1,7.77,7.77,0,0,0-1.6.2c-.5.2-1,.4-1.4.6l-.7-1.4a8.65,8.65,0,0,1,1.7-.7,6.45,6.45,0,0,1,2-.3,9,9,0,0,1,1.8.2,3.29,3.29,0,0,1,1.3.7,2.4,2.4,0,0,1,.7,1.2,4.42,4.42,0,0,1,.2,1.7v7.7H44Zm-3,.3a5,5,0,0,0,1.2-.2,1.46,1.46,0,0,0,.9-.6,2.07,2.07,0,0,0,.6-1,3.18,3.18,0,0,0,.2-1.4v-1l-1.5.1a6.05,6.05,0,0,0-1.5.2,2.34,2.34,0,0,0-1,.5,1.79,1.79,0,0,0-.5.7,2.92,2.92,0,0,0-.2.9,2,2,0,0,0,.5,1.4,2.23,2.23,0,0,0,1.3.4" style="fill:#d5d7d8"/><path id="path3042" d="M46.94,48h1.9l2,6.3a4.65,4.65,0,0,1,.3.9c.1.4.2.7.3,1.1s.2.7.3,1,.1.6.2.7H52a2.54,2.54,0,0,1,.2-.7c.1-.3.2-.7.3-1s.2-.7.3-1.1a9.44,9.44,0,0,1,.3-.9l2-6.3H57l-3.8,11.3h-2.4Z" style="fill:#d5d7d8"/><path id="path3044" d="M64.64,57.72h0a6,6,0,0,1-.8.8,3,3,0,0,1-.7.5l-.9.3a3.75,3.75,0,0,1-1.1.1,5.07,5.07,0,0,1-1.3-.2,2.07,2.07,0,0,1-1-.6,3.59,3.59,0,0,1-.7-1,3.42,3.42,0,0,1-.2-1.5,3.09,3.09,0,0,1,1.2-2.6,6.71,6.71,0,0,1,3.6-1l1.9-.1v-.7a3.09,3.09,0,0,0-.2-1.1c-.1-.3-.2-.6-.4-.7a1.61,1.61,0,0,0-.7-.4,2.77,2.77,0,0,0-.9-.1,7.77,7.77,0,0,0-1.6.2c-.5.2-1,.4-1.4.6l-.7-1.4a8.65,8.65,0,0,1,1.7-.7,6.45,6.45,0,0,1,2-.3,9,9,0,0,1,1.8.2,3.29,3.29,0,0,1,1.3.7,2.4,2.4,0,0,1,.7,1.2,4.42,4.42,0,0,1,.2,1.7v7.7h-1.3Zm-3.1.3a5,5,0,0,0,1.2-.2,1.46,1.46,0,0,0,.9-.6,2.07,2.07,0,0,0,.6-1,3.18,3.18,0,0,0,.2-1.4v-1l-1.5.1a6.05,6.05,0,0,0-1.5.2,2.34,2.34,0,0,0-1,.5,1.79,1.79,0,0,0-.5.7,2.92,2.92,0,0,0-.2.9,2,2,0,0,0,.5,1.4,2.5,2.5,0,0,0,1.3.4" style="fill:#d5d7d8"/><path id="path3046" d="M77.84,55.32a3.42,3.42,0,0,1-.4,1.8,3.25,3.25,0,0,1-1,1.3,4,4,0,0,1-1.6.8,6.65,6.65,0,0,1-2.1.3,12.48,12.48,0,0,1-2.1-.2,6.87,6.87,0,0,1-1.7-.5V57a6.89,6.89,0,0,0,.8.3l.9.3a3.55,3.55,0,0,0,1,.2c.3,0,.7.1,1,.1a3.84,3.84,0,0,0,2.4-.6,2.2,2.2,0,0,0,.8-1.8,3,3,0,0,0-.2-1,1.79,1.79,0,0,0-.5-.7,4.31,4.31,0,0,0-1-.7,8.36,8.36,0,0,0-1.6-.7,8,8,0,0,1-1.6-.8,5.24,5.24,0,0,1-1.1-1,3.38,3.38,0,0,1-.6-1.2,7.72,7.72,0,0,1-.2-1.5,4.15,4.15,0,0,1,.3-1.6,2.73,2.73,0,0,1,.9-1.2,3.69,3.69,0,0,1,1.4-.7,5.66,5.66,0,0,1,1.8-.3,15,15,0,0,1,2.2.2,8.51,8.51,0,0,1,1.7.6l-.7,1.6a5.27,5.27,0,0,0-1.5-.5,5,5,0,0,0-1.7-.2,2.71,2.71,0,0,0-1.9.6,1.86,1.86,0,0,0-.7,1.6,3,3,0,0,0,.2,1,3.51,3.51,0,0,0,.5.8,7,7,0,0,0,.9.6,11.64,11.64,0,0,0,1.5.6,6,6,0,0,1,1.6.8,6.23,6.23,0,0,1,1.2.9,2.59,2.59,0,0,1,.7,1.1,2.41,2.41,0,0,1,.4,1.5" style="fill:#d5d7d8"/><path id="path3048" d="M84.14,59.52a5.82,5.82,0,0,1-1.9-.3,5.37,5.37,0,0,1-1.6-1,5.24,5.24,0,0,1-1-1.8,6.77,6.77,0,0,1-.4-2.6,7,7,0,0,1,.4-2.7,4,4,0,0,1,1.1-1.8,3.91,3.91,0,0,1,1.6-1,6.45,6.45,0,0,1,2-.3,8.75,8.75,0,0,1,1.6.2c.5.1.9.3,1.3.4l-.6,1.6c-.2-.1-.3-.1-.5-.2s-.4-.1-.6-.2a1.27,1.27,0,0,0-.6-.1c-.2,0-.4-.1-.6-.1a2.43,2.43,0,0,0-2.3,1,5.42,5.42,0,0,0-.7,3.2A5.63,5.63,0,0,0,82,57a2.64,2.64,0,0,0,2.3,1,6.05,6.05,0,0,0,1.5-.2,3.34,3.34,0,0,0,1.2-.5V59c-.4.2-.8.3-1.2.5a9.63,9.63,0,0,0-1.7,0" style="fill:#d5d7d8"/><path id="path3050" d="M94.34,47.82H95c.2,0,.5,0,.6.1l-.2,1.7c-.2,0-.4-.1-.6-.1h-.6a2.66,2.66,0,0,0-1.2.3,2.18,2.18,0,0,0-.9.7,2.28,2.28,0,0,0-.6,1.2,7.72,7.72,0,0,0-.2,1.5v6.1h-1.9V48H91l.2,2.1h.1a4.05,4.05,0,0,0,.5-.9,2.34,2.34,0,0,1,.7-.7,2.18,2.18,0,0,1,.8-.5,3.55,3.55,0,0,1,1-.2" style="fill:#d5d7d8"/><path id="path3052" d="M99.54,59.32h-1.9V48h1.9v11.3m-1.7-15.2a1.14,1.14,0,0,1,.8-.3c.2,0,.3,0,.4.1s.3.1.3.2a.52.52,0,0,1,.2.4.75.75,0,0,1,.1.5,1.22,1.22,0,0,1-.3.9,1.22,1.22,0,0,1-1.6,0,1.22,1.22,0,0,1-.3-.9A1.88,1.88,0,0,1,97.84,44.12Z" style="fill:#d5d7d8"/><path id="path3054" d="M107.14,59.32a3.75,3.75,0,0,1-1.1-.1l-.9-.3a4.23,4.23,0,0,1-.7-.5,2.65,2.65,0,0,1-.5-.6h-.1a1.7,1.7,0,0,0,.1.7v5.8H102V48h1.5l.3,1.5h.1c.2-.2.3-.5.5-.7a1.79,1.79,0,0,1,.7-.5,3.55,3.55,0,0,1,.9-.4,3.75,3.75,0,0,1,1.1-.1,3.92,3.92,0,0,1,1.8.4,2.76,2.76,0,0,1,1.3,1.1,5.08,5.08,0,0,1,.9,1.8,9.52,9.52,0,0,1,.3,2.5,9,9,0,0,1-.3,2.5,5.08,5.08,0,0,1-.9,1.8,3.34,3.34,0,0,1-1.3,1.1,5.33,5.33,0,0,1-1.9.4m-.3-10.2a4.44,4.44,0,0,0-1.3.2,3.11,3.11,0,0,0-.9.7,3.34,3.34,0,0,0-.5,1.2,7.93,7.93,0,0,0-.2,1.7v.4a9.72,9.72,0,0,0,.1,1.8,5.78,5.78,0,0,0,.5,1.4,1.76,1.76,0,0,0,.9.8,2.9,2.9,0,0,0,1.4.3,2.19,2.19,0,0,0,2-1.1,6.6,6.6,0,0,0,.7-3.2,5.63,5.63,0,0,0-.7-3.2,2.12,2.12,0,0,0-2-1" style="fill:#d5d7d8"/><path id="path3056" d="M116.94,57.92h.4a.9.9,0,0,0,.5-.1.6.6,0,0,0,.4-.1c.1,0,.2-.1.3-.1V59c-.1,0-.2.1-.3.1a4.33,4.33,0,0,1-.5.1c-.2,0-.3.1-.5.1h-.5a5,5,0,0,1-1.2-.2,1.46,1.46,0,0,1-.9-.6,2,2,0,0,1-.6-1.1,4.42,4.42,0,0,1-.2-1.7v-6.5H112v-.8l1.6-.8.8-2.4h1.1v2.6h2.8v1.4h-2.8v6.5a2.81,2.81,0,0,0,.3,1.5,1,1,0,0,0,1.1.7" style="fill:#d5d7d8"/></g></g></svg>