<svg id="Layer_1" data-name="Layer 1" xmlns="http://www.w3.org/2000/svg" xmlns:xlink="http://www.w3.org/1999/xlink" viewBox="0 0 162.97 96.57"><defs><clipPath id="clip-path"><rect x="-348.73" y="14.17" width="912.6" height="56.4" style="fill:none"/></clipPath><clipPath id="clip-path-2"><rect x="-348.73" y="14.07" width="912.6" height="56.4" style="fill:none"/></clipPath></defs><title>Artboard 1</title><g style="clip-path:url(#clip-path)"><g id="_Group_" data-name=" Group "><path d="M120.37,44.47h16.3c-5.7,1.9-7.5,5.7-8.5,16.5-.7,7.7-4.2,9.7-4.2,9.7-2.6,0-5.2-11.1-7.5-22.9A5,5,0,0,1,120.37,44.47Z" style="fill:#eb7077"/><path d="M123.87,70.57h-16.3c2.9,0,4.9-5.5,6.1-12.5.8-4.7,1.6-8.1,2.7-10.4C118.67,59.47,121.27,70.57,123.87,70.57Z" style="fill:#eb7077"/><path d="M116.37,47.67c-1.2,2.2-2,5.7-2.7,10.4-1.2,7-3.2,12.5-6.1,12.5-3.1-.7-5.6-12.5-8.9-30.5-.1-.6-.2-1.1-.3-1.7,2.5-13,5.1-24.2,7.7-24.2h.9c3.1.7,5.6,12.5,8.9,30.5C116.07,45.77,116.17,46.67,116.37,47.67Z" style="fill:#f6a2ad"/><path d="M90.67,14.27h15.4c-2.6,0-5.3,11.2-7.7,24.2C96.07,26.27,93.37,14.27,90.67,14.27Z" style="fill:#eb7077"/><path d="M98.37,38.47c-.2,1.3-.5,2.6-.7,4-3.7,20.2-5.9,27.6-8.5,28.2-2.9,0-5.7-13.1-8-25.9,0-.2-.1-.4-.1-.6.1-.6.2-1.1.3-1.7,3.7-20.3,5.9-27.6,8.4-28.2h.9C93.37,14.27,96.07,26.27,98.37,38.47Z" style="fill:#eb7077"/><path d="M89.17,70.57H72.87c2.8,0,5.6-12.5,8.1-26.5,0,.2.1.4.1.6C83.47,57.57,86.37,70.57,89.17,70.57Z" style="fill:#eb7077"/><path d="M81.07,44.17c-2.6,14-5.4,26.5-8.1,26.5-3.2-.8-5.6-12.6-9-30.5-.1-.6-.2-1.1-.3-1.7,2.5-13,5.1-24.2,7.7-24.2h.9C75.37,15,77.77,26.57,81.07,44.17Z" style="fill:#f6a2ad"/><path d="M56,14.27h15.4c-2.6,0-5.2,11.2-7.7,24.2C61.37,26.27,58.67,14.27,56,14.27Z" style="fill:#eb7077"/><path d="M63.67,38.47c-.2,1.3-.5,2.6-.7,4-3.7,20.2-5.9,27.6-8.5,28.2-2.9,0-1.8-.5-3.6-8.6s-3.2-12.9-5.1-15.4c.3-1.4.5-2.8.8-4.2,3.8-20.3,6-27.6,8.5-28.2H56C58.67,14.27,61.37,26.27,63.67,38.47Z" style="fill:#eb7077"/><path d="M54.47,70.57H38.17c2.6,0,5.2-11.1,7.7-24,1.8,2.5,3.2,7.3,5.1,15.4S51.57,70.57,54.47,70.57Z" style="fill:#eb7077"/><path d="M45.87,46.57c-2.5,12.9-5.1,24-7.7,24-.3-.4-2.1,0-3.8-10-1.5-9.2-4.2-15-8.6-16.1h16.3A4.89,4.89,0,0,1,45.87,46.57Z" style="fill:#f6a2ad"/></g></g><g style="clip-path:url(#clip-path-2)"><g id="_Group_2" data-name=" Group 2"><path d="M120.37,44.37h16.3c-5.7,1.9-7.5,5.7-8.5,16.5-.7,7.7-4.2,9.7-4.2,9.7-2.6,0-5.2-11.1-7.5-22.9A5,5,0,0,1,120.37,44.37Z" style="fill:#eb7077"/><path d="M124.27,71.37H108c2.5.3,4.5-5.2,5.7-12.2.8-4.7,1.5-8.1,2.6-10.4C118.57,60.57,121.27,71.67,124.27,71.37Z" style="fill:#eb7077;stroke:#eb6f77;stroke-miterlimit:10"/><path d="M116.37,47.57c-1.2,2.2-2,5.7-2.7,10.4-1.2,7-3.2,12.5-6.1,12.5-3.1-.7-5.6-12.5-8.9-30.5-.1-.6-.2-1.1-.3-1.7,2.5-12.9,5.1-24.1,7.7-24.1h.9c3.1.7,5.6,12.5,8.9,30.5C116.07,45.57,116.17,46.57,116.37,47.57Z" style="fill:#f6a2ad"/><path d="M90.67,14.17h15.4c-2.6,0-5.3,11.2-7.7,24.2C96.07,26.17,93.37,14.17,90.67,14.17Z" style="fill:#eb7077"/><path d="M98.37,38.37c-.2,1.3-.5,2.6-.7,4-3.7,20.2-5.9,27.6-8.5,28.2-2.9,0-5.7-13.1-8-25.9,0-.2-.1-.4-.1-.6.1-.6.2-1.1.3-1.7,3.7-20.3,5.9-27.6,8.4-28.2h.9C93.37,14.17,96.07,26.17,98.37,38.37Z" style="fill:#eb7077"/><path d="M89.17,70.47H72.87c2.8,0,5.6-12.5,8.1-26.5,0,.2.1.4.1.6C83.47,57.47,86.37,70.47,89.17,70.47Z" style="fill:#eb7077;stroke:#eb6f77;stroke-miterlimit:10;stroke-width:0.25px"/><path d="M81.07,44.07c-2.6,14-5.4,26.5-8.1,26.5-3.1-.7-5.6-12.5-8.9-30.5-.1-.6-.2-1.1-.3-1.7,2.4-13,5-24.2,7.6-24.2h.9C75.37,14.87,77.77,26.37,81.07,44.07Z" style="fill:#f6a2ad"/><path d="M56,14.17h15.4c-2.6,0-5.2,11.2-7.7,24.2C61.37,26.17,58.67,14.17,56,14.17Z" style="fill:#eb7077"/><path d="M63.67,38.37c-.2,1.3-.5,2.6-.7,4-3.7,20.2-5.9,27.6-8.5,28.2-2.9,0-1.8-.5-3.6-8.6s-3.2-12.9-5.1-15.4c.3-1.4.5-2.8.8-4.2,3.8-20.3,6-27.6,8.5-28.2H56C58.67,14.17,61.37,26.17,63.67,38.37Z" style="fill:#eb7077"/><path d="M54.47,70.47H38.17c2.6,0,5.2-11.1,7.7-24,1.8,2.5,3.2,7.3,5.1,15.4S51.57,70.47,54.47,70.47Z" style="fill:#eb7077"/><path d="M45.87,46.47c-2.5,12.9-5.1,24-7.7,24-.3-.4-2.1,0-3.8-10-1.5-9.2-4.2-15-8.6-16.1h16.3A4.4,4.4,0,0,1,45.87,46.47Z" style="fill:#f6a2ad"/></g></g><text transform="translate(42.91 89.45)" style="isolation:isolate;font-size:16px;fill:#eb7077;font-family:Roboto-Medium, Roboto">Materiali</text><text transform="translate(106.02 89.45)" style="isolation:isolate;font-size:16px;fill:#eb7077;font-family:Roboto-Medium, Roboto">z</text><text transform="translate(113.94 89.45)" style="isolation:isolate;font-size:16px;fill:#eb7077;font-family:Roboto-Medium, Roboto">e</text></svg>