<?xml version="1.0" encoding="utf-8"?>
<!-- Generator: Adobe Illustrator 22.0.0, SVG Export Plug-In . SVG Version: 6.00 Build 0)  -->
<svg version="1.1"
	 id="Layer_1" inkscape:version="0.92.2 (5c3e80d, 2017-08-06)" sodipodi:docname="mongodb-ar21.svg" xmlns:cc="http://creativecommons.org/ns#" xmlns:dc="http://purl.org/dc/elements/1.1/" xmlns:inkscape="http://www.inkscape.org/namespaces/inkscape" xmlns:rdf="http://www.w3.org/1999/02/22-rdf-syntax-ns#" xmlns:sodipodi="http://sodipodi.sourceforge.net/DTD/sodipodi-0.dtd" xmlns:svg="http://www.w3.org/2000/svg"
	 xmlns="http://www.w3.org/2000/svg" xmlns:xlink="http://www.w3.org/1999/xlink" x="0px" y="0px" viewBox="0 0 126 60.3"
	 style="enable-background:new 0 0 126 60.3;" xml:space="preserve">
<style type="text/css">
	.st0{fill:#599636;}
	.st1{fill:#6CAC48;}
	.st2{fill:#C2BFBF;}
	.st3{fill:#656262;}
</style>
<sodipodi:namedview  bordercolor="#666666" borderopacity="1" gridtolerance="10" guidetolerance="10" id="namedview23" inkscape:current-layer="Layer_1" inkscape:cx="58.032127" inkscape:cy="63.79929" inkscape:pageopacity="0" inkscape:pageshadow="2" inkscape:window-height="1001" inkscape:window-maximized="1" inkscape:window-width="1920" inkscape:window-x="-9" inkscape:window-y="-9" inkscape:zoom="3.545098" objecttolerance="10" pagecolor="#ffffff" showgrid="false">
	</sodipodi:namedview>
<g id="g895" transform="translate(-1.9500178)">
	<g id="g862" transform="matrix(1.6295974,0,0,1.6295974,-22.699855,-22.850935)">
		<path id="path2" inkscape:connector-curvature="0" class="st0" d="M22.2,20c0.2,0.4,0.5,1,0.7,1.4c0.2,0.3,0.3,0.5,0.6,0.7
			c0.6,0.6,1.2,1.3,1.7,2c1.3,1.6,2.1,3.5,2.7,5.5c0.4,1.2,0.6,2.4,0.6,3.7c0.1,3.7-1.2,7-3.8,9.6c-0.4,0.4-0.9,0.8-1.4,1.2
			c-0.3,0-0.4-0.2-0.5-0.4c-0.2-0.3-0.3-0.7-0.4-1.1c-0.1-0.5-0.2-0.9-0.1-1.4c0-0.1,0-0.1,0-0.2C22.4,40.9,22.2,20.1,22.2,20z"/>
		<path id="path8" inkscape:connector-curvature="0" class="st1" d="M22.2,19.9L22.2,19.9c-0.1,0.3-0.2,0.6-0.3,0.8
			c-0.2,0.3-0.4,0.5-0.7,0.7c-1.3,1.2-2.4,2.6-3.2,4.1c-1.1,2.1-1.7,4.4-1.9,6.8c-0.1,0.9,0.3,3.9,0.5,4.8c0.7,2.3,2.1,4.3,3.8,6
			c0.4,0.4,0.9,0.8,1.3,1.1c0.1,0,0.2-0.1,0.2-0.2c0.1-0.2,0.1-0.4,0.1-0.6c0.1-0.8,0.2-1.5,0.3-2.3C22.4,41.1,22.3,20,22.2,19.9z"
			/>
		<path id="path10" inkscape:connector-curvature="0" class="st2" d="M23,44.9c0-0.3,0.2-0.6,0.4-0.9c-0.2-0.1-0.3-0.2-0.4-0.4
			s-0.2-0.3-0.2-0.5c-0.2-0.6-0.3-1.3-0.3-1.9l0,0l0,0c0-0.1,0-0.1,0-0.2l0,0c0-0.1,0-0.1,0-0.2c-0.1,0.1-0.1,0.6-0.1,0.6
			c0,0.7-0.1,1.4-0.3,2c0,0.3-0.1,0.5-0.2,0.8v0.1c0.3,0.8,0.3,1.6,0.4,2.4c0,0.1,0,0.2,0,0.3c0,0.4,0,0.3,0.3,0.4
			c0.1,0,0.3,0.1,0.4,0.2c0.1,0,0.1-0.1,0.1-0.1c0-0.2,0-0.3,0-0.5c0-0.5,0-0.9,0-1.4C22.9,45.4,23,45.2,23,44.9z"/>
	</g>
	<g id="g880" transform="matrix(1.0211238,0,0,1.0211238,-2.4262665,-1.8459459)">
		<path id="path4" inkscape:connector-curvature="0" class="st3" d="M35.1,41.2c0,0.8,0,1.5,0,2.3c0,0.1,0,0.2,0,0.3
			c0,0.3,0.2,0.4,0.5,0.5c0.2,0.1,0.5,0.1,0.7,0.1c0.1,0,0.2,0.1,0.2,0.2c0,0.5,0,0.6-0.5,0.5c-1.2-0.1-2.3-0.1-3.5,0h-0.1
			c-0.4,0-0.4,0-0.4-0.4c0-0.1,0-0.1,0-0.2c0-0.1,0.1-0.2,0.2-0.2c0.2,0,0.5-0.1,0.7-0.1c0.3-0.1,0.5-0.3,0.5-0.6s0-0.7,0-1.1
			c0-1.3,0-2.7,0-4c0-0.3-0.1-0.5-0.3-0.6c-0.3-0.2-0.6-0.3-0.9-0.4c-0.1,0-0.2,0-0.3-0.1c-0.2-0.1-0.2-0.3,0-0.4
			c0.1,0,0.2-0.1,0.3-0.1c0.9-0.1,1.8-0.4,2.7-0.7c0.2-0.1,0.2,0,0.2,0.1c0,0.1,0,0.2,0,0.3c0,0.2,0,0.4,0,0.6c0,0.1,0,0.2,0.1,0.2
			s0.2,0,0.2,0c0.3-0.2,0.6-0.5,1-0.7c0.5-0.3,1-0.5,1.6-0.6c0.7-0.1,1.3,0.1,1.8,0.5c0.2,0.2,0.4,0.4,0.6,0.7
			c0.2,0.2,0.2,0.2,0.4,0.1c0.6-0.4,1.2-0.8,1.8-1.1c0.7-0.3,1.4-0.3,2.1-0.1c0.7,0.3,1.2,0.8,1.5,1.4c0.2,0.5,0.3,1.1,0.3,1.7
			c0,0.9,0,1.8,0,2.7c0,0.5,0,0.9,0,1.4c0,0.3,0.1,0.5,0.4,0.6c0.3,0.1,0.6,0.2,0.9,0.2c0.2,0,0.2,0,0.2,0.2c0,0.5-0.1,0.5-0.6,0.5
			c-1.2-0.1-2.4-0.1-3.6,0c-0.2,0-0.2,0-0.3-0.2c0,0,0,0,0-0.1c0-0.4,0-0.4,0.4-0.5c0.1,0,0.3-0.1,0.4-0.1c0.3-0.1,0.5-0.3,0.5-0.6
			c0-0.4,0-0.8,0-1.1c0-1,0-2,0-3c0-0.3-0.1-0.5-0.2-0.8c-0.4-0.9-1.2-1.3-2-1.2c-0.6,0.1-1.1,0.3-1.6,0.6c-0.1,0.1-0.2,0.2-0.2,0.3
			c0.1,1,0,1.9,0.1,2.9c0,0.7,0,1.4,0,2.1c0,0.4,0.2,0.6,0.5,0.6c0.2,0.1,0.5,0.1,0.7,0.2c0.1,0,0.2,0.1,0.2,0.2v0.1
			c0,0.4,0,0.5-0.5,0.4c-1.2-0.1-2.4,0-3.6,0c-0.4,0-0.5,0-0.4-0.5c0-0.2,0-0.3,0.3-0.3c0.2,0,0.3-0.1,0.5-0.1
			c0.5-0.1,0.6-0.3,0.6-0.7c0-0.3,0-0.7,0-1c0-1,0-2,0-3c0-0.4-0.1-0.7-0.3-1.1c-0.3-0.6-0.8-0.8-1.4-0.9c-0.6,0-1.2,0.2-1.8,0.5
			c-0.4,0.2-0.5,0.5-0.5,0.9C35.2,39.7,35.1,40.4,35.1,41.2L35.1,41.2L35.1,41.2z"/>
		<g id="g870">
			<path id="path6" inkscape:connector-curvature="0" class="st3" d="M63.6,41.3c0,0.7,0,1.4,0,2.1c0,0.2,0,0.3,0,0.5
				s0.2,0.4,0.4,0.4c0.3,0.1,0.5,0.1,0.8,0.1c0.2,0,0.2,0.1,0.2,0.2v0.1c0,0.5-0.1,0.6-0.6,0.6c-1.1-0.1-2.3-0.1-3.4,0
				c-0.2,0-0.3,0-0.5,0c-0.1,0-0.1,0-0.1-0.1c0-0.2,0-0.4,0-0.6c0-0.1,0.1-0.1,0.2-0.1c0.2,0,0.4-0.1,0.6-0.1
				c0.4-0.1,0.5-0.2,0.5-0.6c0-0.4,0-0.8,0-1.3c0-1.2,0-2.5,0-3.7c0-0.3-0.1-0.4-0.3-0.6c-0.3-0.2-0.6-0.3-0.9-0.4
				c-0.1,0-0.2-0.1-0.3-0.1c-0.2-0.1-0.2-0.3,0-0.5c0.1-0.1,0.2-0.1,0.3-0.1c1-0.2,1.9-0.4,2.8-0.7c0.1,0,0.2,0,0.2,0.1
				c0,0.1,0.1,0.2,0,0.3c0,0.2,0,0.5,0,0.7c0,0.1,0,0.2,0,0.3c0.1,0.1,0.2-0.1,0.2-0.1c0.5-0.4,0.9-0.7,1.5-0.9
				c0.5-0.2,1-0.4,1.5-0.3c1,0.1,1.7,0.6,2.2,1.5c0.2,0.5,0.3,1,0.4,1.5c0,0.4,0,0.7,0,1.1c0,1,0,2.1,0,3.1c0,0.1,0,0.2,0,0.2
				c0,0.3,0.1,0.4,0.4,0.5s0.5,0.2,0.8,0.2c0.2,0,0.3,0.1,0.3,0.3c0,0,0,0,0,0.1c0,0.5-0.1,0.5-0.6,0.5c-1.1-0.1-2.3-0.1-3.4,0
				c-0.2,0-0.3,0-0.5,0c-0.1,0-0.2,0-0.2-0.1c0-0.2-0.1-0.4,0-0.6c0-0.1,0.1-0.1,0.2-0.2c0.2,0,0.5-0.1,0.7-0.1
				c0.2-0.1,0.4-0.2,0.4-0.5c0-0.1,0-0.3,0-0.4c0-1.1,0-2.1,0-3.2c0-0.4,0-0.7-0.1-1.1c-0.2-0.8-0.8-1.3-1.6-1.4
				c-0.7-0.1-1.3,0.1-1.9,0.5c-0.3,0.2-0.4,0.4-0.4,0.8c0,0.5,0,1.1,0,1.6C63.6,40.9,63.6,41.1,63.6,41.3L63.6,41.3z"/>
			<path id="path12" inkscape:connector-curvature="0" class="st2" d="M107.9,37c-0.2-1.1-0.6-2.1-1.3-2.9c-0.6-0.8-1.4-1.3-2.3-1.7
				c-1-0.4-2-0.5-3-0.5c-0.4,0-6.2,0.1-6.6,0c-0.1,0-0.2,0-0.2,0.1c-0.1,0.1-0.2,0.2-0.2,0.3c-0.3,0.3-0.3,0.3,0.2,0.4
				c0.4,0.1,0.7,0.1,1.1,0.2c0.3,0.1,0.5,0.3,0.6,0.6c0,0.2,0.1,5.5,0.1,8c0,0.6,0,1.2-0.1,1.8c0,0.1,0,0.3-0.1,0.4
				c-0.1,0.2-0.2,0.3-0.3,0.4c-0.2,0.1-0.4,0.2-0.6,0.2c-0.4,0-0.5,0.1-0.6,0.5c0,0.1,0,0.1,0,0.2c0,0.2,0,0.2,0.2,0.2
				c0.9,0,3.8,0,4.5,0c0.4,0,1.1,0,1.8,0c0.4,0,0.8-0.1,1.2-0.2c1.4-0.3,2.6-0.8,3.7-1.8c0.6-0.5,1.1-1.2,1.5-1.9
				c0.4-0.8,0.6-1.8,0.6-2.7C108,38.1,108,37.5,107.9,37z M105.7,39.1c-0.1,1-0.3,1.9-0.8,2.7c-0.6,1.1-1.5,1.9-2.8,2.1
				c-0.5,0.1-1.1,0.2-1.6,0.1c-0.4,0-0.8-0.1-1.2-0.2c-0.7-0.2-0.9-0.7-0.9-1.3c0-1,0-7.6,0-9.1c0-0.5,0.2-0.7,0.6-0.7
				c0.6,0,1.2,0,1.8,0c0.6,0.1,1.2,0.2,1.8,0.5c0.4,0.2,0.8,0.4,1.2,0.7c0.8,0.7,1.4,1.6,1.6,2.6C105.7,37.4,105.7,38.3,105.7,39.1z
				"/>
			<path id="path14" inkscape:connector-curvature="0" class="st2" d="M120.4,40.6c0-0.1,0-0.2,0-0.3c-0.1-0.8-0.6-1.5-1.3-1.9
				c-0.4-0.3-0.9-0.5-1.5-0.7c-0.1,0-0.2-0.1-0.3-0.1c0-0.1,0.1-0.1,0.1-0.1c0.3-0.2,0.6-0.3,0.8-0.5c0.5-0.4,0.8-0.9,0.9-1.5
				c0.1-0.3,0.1-0.6,0.1-1c-0.1-0.8-0.4-1.5-1.1-2s-1.5-0.7-2.4-0.7c-1.6,0-3.3,0-4.9,0c-0.5,0-0.9,0-1.4,0c-0.1,0-0.2,0-0.3,0.1
				c-0.1,0.2-0.2,0.4-0.3,0.6c0,0.1,0,0.2,0.1,0.2c0.3,0,0.7,0.1,1,0.2c0.4,0.1,0.7,0.3,0.7,0.6s0,0.5,0,0.8c0,0.9,0,1.9,0,2.8
				c0,1.9,0,3.7,0,5.6c0,0.3,0,0.6-0.1,1c0,0.2-0.2,0.4-0.4,0.5c-0.3,0.1-0.6,0.2-0.9,0.2c-0.2,0-0.3,0.1-0.4,0.3
				c-0.1,0.1-0.1,0.3-0.1,0.4c0,0.2,0,0.2,0.2,0.2c0.1,0,5.1,0.1,6.1,0c0.6-0.1,1.1-0.1,1.7-0.3c1-0.3,1.8-0.7,2.5-1.5
				c0.6-0.6,0.9-1.3,0.9-2.2C120.4,41,120.4,40.8,120.4,40.6z M113.1,34.4c0-0.4,0-0.8,0-1.2c0-0.2,0.1-0.3,0.3-0.4
				c0.4-0.1,0.7,0,1.1,0s0.7,0.1,1.1,0.2c0.7,0.2,1.2,0.6,1.5,1.2c0.1,0.3,0.2,0.6,0.2,0.9c0,0.4,0,0.8-0.2,1.2
				c-0.3,0.6-0.7,0.9-1.3,1c-0.6,0.1-2.3,0.1-2.5,0.1s-0.2,0-0.2-0.3c0-0.5,0-1,0-1.4l0,0C113.1,35.3,113.1,34.9,113.1,34.4
				L113.1,34.4z M118,42.6c-0.3,0.7-0.7,1.1-1.4,1.4c-0.4,0.1-0.7,0.2-1.1,0.2c-0.5,0-0.9,0-1.4-0.1c-0.6-0.1-0.9-0.7-1-1.2
				c-0.1-0.8,0-1.6,0-2.1c0-0.8,0-1.4,0-2c0-0.2,0-0.3,0.3-0.3c0.5,0,0.9,0,1.4,0c0.3,0,0.6,0.1,1,0.1c0.7,0.2,1.3,0.4,1.8,0.9
				c0.4,0.4,0.6,0.9,0.6,1.5C118.2,41.5,118.2,42.1,118,42.6L118,42.6z"/>
			<path id="path16" inkscape:connector-curvature="0" class="st3" d="M79.6,38c0.1,0,0.3,0,0.4,0.1c0.4,0,0.9-0.1,1.1-0.7
				c0.1-0.3,0.1-0.6,0-0.9c-0.1,0-0.1,0.1-0.2,0.1c-0.2,0.2-0.5,0.3-0.8,0.3c-0.5,0.1-1.1,0-1.6-0.2c-0.2-0.1-0.5-0.2-0.7-0.3
				c-0.5-0.2-1.1-0.2-1.6-0.2c-0.8,0.1-1.5,0.3-2.2,0.7s-1.2,1-1.5,1.8c-0.1,0.5-0.2,1-0.1,1.4c0.2,1.1,0.7,1.9,1.8,2.3
				c0.1,0,0.1,0,0.2,0.1s0.2,0.2,0,0.3c-0.1,0.1-0.2,0.2-0.4,0.3c-0.3,0.2-0.6,0.4-0.9,0.6c-0.2,0.1-0.3,0.2-0.2,0.5
				c0.1,0.3,0.3,0.5,0.5,0.7s0.4,0.3,0.7,0.4c0.2,0.1,0.2,0.1,0,0.2c-0.3,0.2-0.6,0.4-0.9,0.6c-0.3,0.2-0.6,0.5-0.8,0.7
				c-0.3,0.4-0.5,0.8-0.4,1.4c0.1,0.5,0.4,1,0.8,1.4s0.9,0.6,1.4,0.8c0.8,0.2,1.7,0.3,2.6,0.1c1.2-0.2,2.3-0.8,3.2-1.7
				c0.6-0.6,0.9-1.3,1-2.2c0-1.1-0.6-1.9-1.6-2.2c-0.3-0.1-0.5-0.1-0.8-0.2c-0.8-0.1-1.7-0.2-2.5-0.2c-0.3,0-0.5-0.1-0.8-0.2
				c-0.3-0.2-0.4-0.5-0.2-0.8c0.1-0.2,0.3-0.3,0.5-0.3s0.3,0,0.5,0c1-0.1,1.8-0.5,2.6-1.2c0.4-0.3,0.6-0.8,0.8-1.3
				c0.2-0.6,0.2-1.3,0-2C79.4,38,79.4,38,79.6,38L79.6,38z M75.9,45.5c0.1,0,0.2,0,0.3,0c0.6,0,1.3,0.1,1.9,0.2
				c0.2,0.1,0.4,0.1,0.6,0.2c0.6,0.3,0.8,0.9,0.8,1.5c-0.1,0.7-0.5,1.2-1.1,1.5c-0.4,0.2-0.8,0.3-1.3,0.4c-0.2,0-0.3,0-0.5,0
				c-0.5,0-1,0-1.5-0.3c-0.3-0.1-0.6-0.3-0.9-0.6c-0.5-0.5-0.8-1.5,0-2.3C74.7,45.8,75.2,45.5,75.9,45.5z M77.6,40.8
				c-0.3,0.8-1,1-1.7,0.9c-0.6-0.1-1.1-0.4-1.4-1c-0.4-0.8-0.5-1.6-0.3-2.4c0.2-0.6,0.5-1.1,1.2-1.2c0.8-0.2,1.6,0.2,2.1,1
				c0.2,0.4,0.3,0.9,0.3,1.6C77.8,40,77.8,40.4,77.6,40.8z"/>
			<path id="path18" inkscape:connector-curvature="0" class="st3" d="M58.6,39.8c-0.1-0.8-0.4-1.6-1-2.2c-0.8-0.9-1.9-1.3-3.1-1.3
				c-1,0-2,0.3-2.9,0.8s-1.5,1.3-1.8,2.3c-0.3,0.9-0.2,1.8,0,2.7c0.5,2.4,2.4,3.4,4.6,3.3c0.6,0,1.3-0.3,1.9-0.5
				c0.9-0.4,1.5-1.1,1.9-1.9c0.3-0.7,0.5-1.5,0.5-2.3C58.7,40.3,58.6,40.1,58.6,39.8z M56.4,43.1c-0.3,0.7-0.8,1.2-1.6,1.3
				c-0.7,0.1-1.3-0.1-1.8-0.5c-0.4-0.3-0.7-0.7-1-1.1c-0.6-1.3-0.7-2.6-0.4-4c0.1-0.4,0.3-0.8,0.6-1.1c0.6-0.5,1.2-0.6,1.9-0.5
				c0.7,0.2,1.2,0.5,1.6,1.1c0.4,0.6,0.6,1.2,0.8,1.9c0.1,0.3,0.1,0.7,0.1,0.9C56.7,42,56.7,42.5,56.4,43.1z"/>
			<path id="path20" inkscape:connector-curvature="0" class="st3" d="M91.6,39.9c-0.1-0.9-0.4-1.7-1.1-2.3
				c-0.8-0.9-1.9-1.3-3.1-1.3c-1,0-1.9,0.3-2.8,0.8c-1,0.6-1.6,1.4-1.9,2.5c-0.3,1.2-0.2,2.4,0.4,3.6c0.5,1.1,1.3,1.7,2.5,2
				s2.4,0.2,3.6-0.4c1-0.5,1.7-1.2,2.1-2.3c0.2-0.6,0.3-1.3,0.3-2C91.7,40.4,91.6,40.1,91.6,39.9L91.6,39.9z M89.5,42.9
				c-0.2,0.8-0.8,1.3-1.6,1.5c-0.6,0.1-1.2-0.1-1.8-0.4c-0.5-0.3-0.8-0.7-1-1.2c-0.3-0.5-0.4-1.1-0.5-1.7c-0.1-0.7-0.1-1.4,0.1-2.1
				c0-0.1,0.1-0.3,0.1-0.4c0.4-1.1,1.4-1.5,2.5-1.3c0.7,0.2,1.3,0.6,1.7,1.2c0.4,0.6,0.6,1.3,0.7,2c0,0.3,0.1,0.6,0,0.8
				C89.7,41.9,89.7,42.4,89.5,42.9z"/>
		</g>
	</g>
</g>
</svg>
