<?xml version="1.0" encoding="utf-8"?>
<!-- Generator: Adobe Illustrator 22.0.0, SVG Export Plug-In . SVG Version: 6.00 Build 0)  -->
<svg version="1.1"
	 id="Layer_1" inkscape:version="0.92.2 (5c3e80d, 2017-08-06)" sodipodi:docname="mongodb-ar21.svg" xmlns:cc="http://creativecommons.org/ns#" xmlns:dc="http://purl.org/dc/elements/1.1/" xmlns:inkscape="http://www.inkscape.org/namespaces/inkscape" xmlns:rdf="http://www.w3.org/1999/02/22-rdf-syntax-ns#" xmlns:sodipodi="http://sodipodi.sourceforge.net/DTD/sodipodi-0.dtd" xmlns:svg="http://www.w3.org/2000/svg"
	 xmlns="http://www.w3.org/2000/svg" xmlns:xlink="http://www.w3.org/1999/xlink" x="0px" y="0px" viewBox="0 0 120 56.3"
	 style="enable-background:new 0 0 120 56.3;" xml:space="preserve">
<style type="text/css">
	.st0{fill:#599636;}
	.st1{fill:#6CAC48;}
	.st2{fill:#C2BFBF;}
	.st3{fill:#656262;}
</style>
<sodipodi:namedview  bordercolor="#666666" borderopacity="1" gridtolerance="10" guidetolerance="10" id="namedview23" inkscape:current-layer="Layer_1" inkscape:cx="58.032127" inkscape:cy="63.79929" inkscape:pageopacity="0" inkscape:pageshadow="2" inkscape:window-height="1001" inkscape:window-maximized="1" inkscape:window-width="1920" inkscape:window-x="-9" inkscape:window-y="-9" inkscape:zoom="3.545098" objecttolerance="10" pagecolor="#ffffff" showgrid="false">
	</sodipodi:namedview>
<g id="g895" transform="translate(-1.9500178)">
	<g id="g862" transform="matrix(1.6295974,0,0,1.6295974,-22.699855,-22.850935)">
		<path id="path2" inkscape:connector-curvature="0" class="st0" d="M22.2,14.9c0.2,0.4,0.5,1,0.7,1.4c0.2,0.3,0.3,0.5,0.6,0.7
			c0.6,0.6,1.2,1.3,1.7,2c1.3,1.6,2.1,3.5,2.7,5.5c0.4,1.2,0.6,2.4,0.6,3.7c0.1,3.7-1.2,7-3.8,9.6c-0.4,0.4-0.9,0.8-1.4,1.2
			c-0.3,0-0.4-0.2-0.5-0.4c-0.2-0.3-0.3-0.7-0.4-1.1c-0.1-0.5-0.2-0.9-0.1-1.4c0-0.1,0-0.1,0-0.2C22.4,35.8,22.2,15,22.2,14.9z"/>
		<path id="path8" inkscape:connector-curvature="0" class="st1" d="M22.2,14.8L22.2,14.8c-0.1,0.3-0.2,0.6-0.3,0.8
			c-0.2,0.3-0.4,0.5-0.7,0.7c-1.3,1.2-2.4,2.6-3.2,4.1c-1.1,2.1-1.7,4.4-1.9,6.8c-0.1,0.9,0.3,3.9,0.5,4.8c0.7,2.3,2.1,4.3,3.8,6
			c0.4,0.4,0.9,0.8,1.3,1.1c0.1,0,0.2-0.1,0.2-0.2c0.1-0.2,0.1-0.4,0.1-0.6c0.1-0.8,0.2-1.5,0.3-2.3C22.4,36,22.3,14.9,22.2,14.8z"
			/>
		<path id="path10" inkscape:connector-curvature="0" class="st2" d="M23,39.8c0-0.3,0.2-0.6,0.4-0.9c-0.2-0.1-0.3-0.2-0.4-0.4
			s-0.2-0.3-0.2-0.5c-0.2-0.6-0.3-1.3-0.3-1.9l0,0l0,0c0-0.1,0-0.1,0-0.2l0,0c0-0.1,0-0.1,0-0.2c-0.1,0.1-0.1,0.6-0.1,0.6
			c0,0.7-0.1,1.4-0.3,2c0,0.3-0.1,0.5-0.2,0.8v0.1c0.3,0.8,0.3,1.6,0.4,2.4c0,0.1,0,0.2,0,0.3c0,0.4,0,0.3,0.3,0.4
			c0.1,0,0.3,0.1,0.4,0.2c0.1,0,0.1-0.1,0.1-0.1c0-0.2,0-0.3,0-0.5c0-0.5,0-0.9,0-1.4C22.9,40.3,23,40.1,23,39.8z"/>
	</g>
	<g id="g880" transform="matrix(1.0211238,0,0,1.0211238,-2.4262665,-1.8459459)">
		<path id="path4" inkscape:connector-curvature="0" class="st3" d="M35.1,33c0,0.8,0,1.5,0,2.3c0,0.1,0,0.2,0,0.3
			c0,0.3,0.2,0.4,0.5,0.5c0.2,0.1,0.5,0.1,0.7,0.1c0.1,0,0.2,0.1,0.2,0.2c0,0.5,0,0.6-0.5,0.5c-1.2-0.1-2.3-0.1-3.5,0h-0.1
			c-0.4,0-0.4,0-0.4-0.4c0-0.1,0-0.1,0-0.2c0-0.1,0.1-0.2,0.2-0.2c0.2,0,0.5-0.1,0.7-0.1c0.3-0.1,0.5-0.3,0.5-0.6s0-0.7,0-1.1
			c0-1.3,0-2.7,0-4c0-0.3-0.1-0.5-0.3-0.6c-0.3-0.2-0.6-0.3-0.9-0.4c-0.1,0-0.2,0-0.3-0.1c-0.2-0.1-0.2-0.3,0-0.4
			c0.1,0,0.2-0.1,0.3-0.1c0.9-0.1,1.8-0.4,2.7-0.7c0.2-0.1,0.2,0,0.2,0.1s0,0.2,0,0.3c0,0.2,0,0.4,0,0.6c0,0.1,0,0.2,0.1,0.2
			s0.2,0,0.2,0c0.3-0.2,0.6-0.5,1-0.7c0.5-0.3,1-0.5,1.6-0.6c0.7-0.1,1.3,0.1,1.8,0.5c0.2,0.2,0.4,0.4,0.6,0.7
			c0.2,0.2,0.2,0.2,0.4,0.1c0.6-0.4,1.2-0.8,1.8-1.1c0.7-0.3,1.4-0.3,2.1-0.1c0.7,0.3,1.2,0.8,1.5,1.4c0.2,0.5,0.3,1.1,0.3,1.7
			c0,0.9,0,1.8,0,2.7c0,0.5,0,0.9,0,1.4c0,0.3,0.1,0.5,0.4,0.6c0.3,0.1,0.6,0.2,0.9,0.2c0.2,0,0.2,0,0.2,0.2c0,0.5-0.1,0.5-0.6,0.5
			c-1.2-0.1-2.4-0.1-3.6,0c-0.2,0-0.2,0-0.3-0.2c0,0,0,0,0-0.1c0-0.4,0-0.4,0.4-0.5c0.1,0,0.3-0.1,0.4-0.1c0.3-0.1,0.5-0.3,0.5-0.6
			c0-0.4,0-0.8,0-1.1c0-1,0-2,0-3c0-0.3-0.1-0.5-0.2-0.8c-0.4-0.9-1.2-1.3-2-1.2c-0.6,0.1-1.1,0.3-1.6,0.6c-0.1,0.1-0.2,0.2-0.2,0.3
			c0.1,1,0,1.9,0.1,2.9c0,0.7,0,1.4,0,2.1c0,0.4,0.2,0.6,0.5,0.6c0.2,0.1,0.5,0.1,0.7,0.2c0.1,0,0.2,0.1,0.2,0.2v0.1
			c0,0.4,0,0.5-0.5,0.4c-1.2-0.1-2.4,0-3.6,0c-0.4,0-0.5,0-0.4-0.5c0-0.2,0-0.3,0.3-0.3c0.2,0,0.3-0.1,0.5-0.1
			c0.5-0.1,0.6-0.3,0.6-0.7c0-0.3,0-0.7,0-1c0-1,0-2,0-3c0-0.4-0.1-0.7-0.3-1.1c-0.3-0.6-0.8-0.8-1.4-0.9c-0.6,0-1.2,0.2-1.8,0.5
			c-0.4,0.2-0.5,0.5-0.5,0.9C35.2,31.5,35.1,32.2,35.1,33L35.1,33L35.1,33z"/>
		<g id="g870">
			<path id="path6" inkscape:connector-curvature="0" class="st3" d="M63.6,33.1c0,0.7,0,1.4,0,2.1c0,0.2,0,0.3,0,0.5
				s0.2,0.4,0.4,0.4c0.3,0.1,0.5,0.1,0.8,0.1c0.2,0,0.2,0.1,0.2,0.2v0.1c0,0.5-0.1,0.6-0.6,0.6c-1.1-0.1-2.3-0.1-3.4,0
				c-0.2,0-0.3,0-0.5,0c-0.1,0-0.1,0-0.1-0.1c0-0.2,0-0.4,0-0.6c0-0.1,0.1-0.1,0.2-0.1c0.2,0,0.4-0.1,0.6-0.1
				c0.4-0.1,0.5-0.2,0.5-0.6c0-0.4,0-0.8,0-1.3c0-1.2,0-2.5,0-3.7c0-0.3-0.1-0.4-0.3-0.6c-0.3-0.2-0.6-0.3-0.9-0.4
				c-0.1,0-0.2-0.1-0.3-0.1c-0.2-0.1-0.2-0.3,0-0.5c0.1-0.1,0.2-0.1,0.3-0.1c1-0.2,1.9-0.4,2.8-0.7c0.1,0,0.2,0,0.2,0.1
				s0.1,0.2,0,0.3c0,0.2,0,0.5,0,0.7c0,0.1,0,0.2,0,0.3c0.1,0.1,0.2-0.1,0.2-0.1c0.5-0.4,0.9-0.7,1.5-0.9c0.5-0.2,1-0.4,1.5-0.3
				c1,0.1,1.7,0.6,2.2,1.5c0.2,0.5,0.3,1,0.4,1.5c0,0.4,0,0.7,0,1.1c0,1,0,2.1,0,3.1c0,0.1,0,0.2,0,0.2c0,0.3,0.1,0.4,0.4,0.5
				s0.5,0.2,0.8,0.2c0.2,0,0.3,0.1,0.3,0.3c0,0,0,0,0,0.1c0,0.5-0.1,0.5-0.6,0.5c-1.1-0.1-2.3-0.1-3.4,0c-0.2,0-0.3,0-0.5,0
				c-0.1,0-0.2,0-0.2-0.1c0-0.2-0.1-0.4,0-0.6c0-0.1,0.1-0.1,0.2-0.2c0.2,0,0.5-0.1,0.7-0.1c0.2-0.1,0.4-0.2,0.4-0.5
				c0-0.1,0-0.3,0-0.4c0-1.1,0-2.1,0-3.2c0-0.4,0-0.7-0.1-1.1c-0.2-0.8-0.8-1.3-1.6-1.4c-0.7-0.1-1.3,0.1-1.9,0.5
				c-0.3,0.2-0.4,0.4-0.4,0.8c0,0.5,0,1.1,0,1.6C63.6,32.7,63.6,32.9,63.6,33.1L63.6,33.1z"/>
			<path id="path12" inkscape:connector-curvature="0" class="st2" d="M107.9,28.8c-0.2-1.1-0.6-2.1-1.3-2.9
				c-0.6-0.8-1.4-1.3-2.3-1.7c-1-0.4-2-0.5-3-0.5c-0.4,0-6.2,0.1-6.6,0c-0.1,0-0.2,0-0.2,0.1c-0.1,0.1-0.2,0.2-0.2,0.3
				c-0.3,0.3-0.3,0.3,0.2,0.4c0.4,0.1,0.7,0.1,1.1,0.2c0.3,0.1,0.5,0.3,0.6,0.6c0,0.2,0.1,5.5,0.1,8c0,0.6,0,1.2-0.1,1.8
				c0,0.1,0,0.3-0.1,0.4c-0.1,0.2-0.2,0.3-0.3,0.4c-0.2,0.1-0.4,0.2-0.6,0.2c-0.4,0-0.5,0.1-0.6,0.5c0,0.1,0,0.1,0,0.2
				c0,0.2,0,0.2,0.2,0.2c0.9,0,3.8,0,4.5,0c0.4,0,1.1,0,1.8,0c0.4,0,0.8-0.1,1.2-0.2c1.4-0.3,2.6-0.8,3.7-1.8
				c0.6-0.5,1.1-1.2,1.5-1.9c0.4-0.8,0.6-1.8,0.6-2.7C108,29.9,108,29.3,107.9,28.8z M105.7,30.9c-0.1,1-0.3,1.9-0.8,2.7
				c-0.6,1.1-1.5,1.9-2.8,2.1c-0.5,0.1-1.1,0.2-1.6,0.1c-0.4,0-0.8-0.1-1.2-0.2c-0.7-0.2-0.9-0.7-0.9-1.3c0-1,0-7.6,0-9.1
				c0-0.5,0.2-0.7,0.6-0.7c0.6,0,1.2,0,1.8,0c0.6,0.1,1.2,0.2,1.8,0.5c0.4,0.2,0.8,0.4,1.2,0.7c0.8,0.7,1.4,1.6,1.6,2.6
				C105.7,29.2,105.7,30.1,105.7,30.9z"/>
			<path id="path14" inkscape:connector-curvature="0" class="st2" d="M120.4,32.4c0-0.1,0-0.2,0-0.3c-0.1-0.8-0.6-1.5-1.3-1.9
				c-0.4-0.3-0.9-0.5-1.5-0.7c-0.1,0-0.2-0.1-0.3-0.1c0-0.1,0.1-0.1,0.1-0.1c0.3-0.2,0.6-0.3,0.8-0.5c0.5-0.4,0.8-0.9,0.9-1.5
				c0.1-0.3,0.1-0.6,0.1-1c-0.1-0.8-0.4-1.5-1.1-2s-1.5-0.7-2.4-0.7c-1.6,0-3.3,0-4.9,0c-0.5,0-0.9,0-1.4,0c-0.1,0-0.2,0-0.3,0.1
				c-0.1,0.2-0.2,0.4-0.3,0.6c0,0.1,0,0.2,0.1,0.2c0.3,0,0.7,0.1,1,0.2c0.4,0.1,0.7,0.3,0.7,0.6c0,0.3,0,0.5,0,0.8
				c0,0.9,0,1.9,0,2.8c0,1.9,0,3.7,0,5.6c0,0.3,0,0.6-0.1,1c0,0.2-0.2,0.4-0.4,0.5c-0.3,0.1-0.6,0.2-0.9,0.2c-0.2,0-0.3,0.1-0.4,0.3
				c-0.1,0.1-0.1,0.3-0.1,0.4c0,0.2,0,0.2,0.2,0.2c0.1,0,5.1,0.1,6.1,0c0.6-0.1,1.1-0.1,1.7-0.3c1-0.3,1.8-0.7,2.5-1.5
				c0.6-0.6,0.9-1.3,0.9-2.2C120.4,32.8,120.4,32.6,120.4,32.4z M113.1,26.2c0-0.4,0-0.8,0-1.2c0-0.2,0.1-0.3,0.3-0.4
				c0.4-0.1,0.7,0,1.1,0s0.7,0.1,1.1,0.2c0.7,0.2,1.2,0.6,1.5,1.2c0.1,0.3,0.2,0.6,0.2,0.9c0,0.4,0,0.8-0.2,1.2
				c-0.3,0.6-0.7,0.9-1.3,1c-0.6,0.1-2.3,0.1-2.5,0.1s-0.2,0-0.2-0.3c0-0.5,0-1,0-1.4l0,0C113.1,27.1,113.1,26.7,113.1,26.2
				L113.1,26.2z M118,34.4c-0.3,0.7-0.7,1.1-1.4,1.4c-0.4,0.1-0.7,0.2-1.1,0.2c-0.5,0-0.9,0-1.4-0.1c-0.6-0.1-0.9-0.7-1-1.2
				c-0.1-0.8,0-1.6,0-2.1c0-0.8,0-1.4,0-2c0-0.2,0-0.3,0.3-0.3c0.5,0,0.9,0,1.4,0c0.3,0,0.6,0.1,1,0.1c0.7,0.2,1.3,0.4,1.8,0.9
				c0.4,0.4,0.6,0.9,0.6,1.5C118.2,33.3,118.2,33.9,118,34.4L118,34.4z"/>
			<path id="path16" inkscape:connector-curvature="0" class="st3" d="M79.6,29.8c0.1,0,0.3,0,0.4,0.1c0.4,0,0.9-0.1,1.1-0.7
				c0.1-0.3,0.1-0.6,0-0.9c-0.1,0-0.1,0.1-0.2,0.1c-0.2,0.2-0.5,0.3-0.8,0.3c-0.5,0.1-1.1,0-1.6-0.2c-0.2-0.1-0.5-0.2-0.7-0.3
				C77.3,28,76.7,28,76.2,28c-0.8,0.1-1.5,0.3-2.2,0.7s-1.2,1-1.5,1.8c-0.1,0.5-0.2,1-0.1,1.4c0.2,1.1,0.7,1.9,1.8,2.3
				c0.1,0,0.1,0,0.2,0.1s0.2,0.2,0,0.3c-0.1,0.1-0.2,0.2-0.4,0.3c-0.3,0.2-0.6,0.4-0.9,0.6c-0.2,0.1-0.3,0.2-0.2,0.5
				c0.1,0.3,0.3,0.5,0.5,0.7s0.4,0.3,0.7,0.4c0.2,0.1,0.2,0.1,0,0.2c-0.3,0.2-0.6,0.4-0.9,0.6c-0.3,0.2-0.6,0.5-0.8,0.7
				C72.1,39,71.9,39.4,72,40c0.1,0.5,0.4,1,0.8,1.4s0.9,0.6,1.4,0.8c0.8,0.2,1.7,0.3,2.6,0.1c1.2-0.2,2.3-0.8,3.2-1.7
				c0.6-0.6,0.9-1.3,1-2.2c0-1.1-0.6-1.9-1.6-2.2c-0.3-0.1-0.5-0.1-0.8-0.2c-0.8-0.1-1.7-0.2-2.5-0.2c-0.3,0-0.5-0.1-0.8-0.2
				c-0.3-0.2-0.4-0.5-0.2-0.8c0.1-0.2,0.3-0.3,0.5-0.3s0.3,0,0.5,0c1-0.1,1.8-0.5,2.6-1.2c0.4-0.3,0.6-0.8,0.8-1.3
				c0.2-0.6,0.2-1.3,0-2C79.4,29.8,79.4,29.8,79.6,29.8L79.6,29.8z M75.9,37.3c0.1,0,0.2,0,0.3,0c0.6,0,1.3,0.1,1.9,0.2
				c0.2,0.1,0.4,0.1,0.6,0.2c0.6,0.3,0.8,0.9,0.8,1.5c-0.1,0.7-0.5,1.2-1.1,1.5c-0.4,0.2-0.8,0.3-1.3,0.4c-0.2,0-0.3,0-0.5,0
				c-0.5,0-1,0-1.5-0.3c-0.3-0.1-0.6-0.3-0.9-0.6c-0.5-0.5-0.8-1.5,0-2.3C74.7,37.6,75.2,37.3,75.9,37.3z M77.6,32.6
				c-0.3,0.8-1,1-1.7,0.9c-0.6-0.1-1.1-0.4-1.4-1c-0.4-0.8-0.5-1.6-0.3-2.4c0.2-0.6,0.5-1.1,1.2-1.2c0.8-0.2,1.6,0.2,2.1,1
				c0.2,0.4,0.3,0.9,0.3,1.6C77.8,31.8,77.8,32.2,77.6,32.6z"/>
			<path id="path18" inkscape:connector-curvature="0" class="st3" d="M58.6,31.6c-0.1-0.8-0.4-1.6-1-2.2c-0.8-0.9-1.9-1.3-3.1-1.3
				c-1,0-2,0.3-2.9,0.8s-1.5,1.3-1.8,2.3c-0.3,0.9-0.2,1.8,0,2.7c0.5,2.4,2.4,3.4,4.6,3.3c0.6,0,1.3-0.3,1.9-0.5
				c0.9-0.4,1.5-1.1,1.9-1.9c0.3-0.7,0.5-1.5,0.5-2.3C58.7,32.1,58.6,31.9,58.6,31.6z M56.4,34.9c-0.3,0.7-0.8,1.2-1.6,1.3
				c-0.7,0.1-1.3-0.1-1.8-0.5c-0.4-0.3-0.7-0.7-1-1.1c-0.6-1.3-0.7-2.6-0.4-4c0.1-0.4,0.3-0.8,0.6-1.1c0.6-0.5,1.2-0.6,1.9-0.5
				c0.7,0.2,1.2,0.5,1.6,1.1c0.4,0.6,0.6,1.2,0.8,1.9c0.1,0.3,0.1,0.7,0.1,0.9C56.7,33.8,56.7,34.3,56.4,34.9z"/>
			<path id="path20" inkscape:connector-curvature="0" class="st3" d="M91.6,31.7c-0.1-0.9-0.4-1.7-1.1-2.3
				c-0.8-0.9-1.9-1.3-3.1-1.3c-1,0-1.9,0.3-2.8,0.8c-1,0.6-1.6,1.4-1.9,2.5c-0.3,1.2-0.2,2.4,0.4,3.6c0.5,1.1,1.3,1.7,2.5,2
				s2.4,0.2,3.6-0.4c1-0.5,1.7-1.2,2.1-2.3c0.2-0.6,0.3-1.3,0.3-2C91.7,32.2,91.6,31.9,91.6,31.7L91.6,31.7z M89.5,34.7
				c-0.2,0.8-0.8,1.3-1.6,1.5c-0.6,0.1-1.2-0.1-1.8-0.4c-0.5-0.3-0.8-0.7-1-1.2c-0.3-0.5-0.4-1.1-0.5-1.7c-0.1-0.7-0.1-1.4,0.1-2.1
				c0-0.1,0.1-0.3,0.1-0.4c0.4-1.1,1.4-1.5,2.5-1.3c0.7,0.2,1.3,0.6,1.7,1.2c0.4,0.6,0.6,1.3,0.7,2c0,0.3,0.1,0.6,0,0.8
				C89.7,33.7,89.7,34.2,89.5,34.7z"/>
		</g>
	</g>
</g>
</svg>
