<?xml version="1.0" encoding="utf-8"?>
<!-- Generator: Adobe Illustrator 24.2.1, SVG Export Plug-In . SVG Version: 6.00 Build 0)  -->
<svg version="1.1" id="Layer_1" xmlns="http://www.w3.org/2000/svg" xmlns:xlink="http://www.w3.org/1999/xlink" x="0px" y="0px"
	 viewBox="0 0 4200 3800" style="enable-background:new 0 0 4200 3800;" xml:space="preserve">
<style type="text/css">
	.st0{fill-rule:evenodd;clip-rule:evenodd;fill:#412846;}
	.st1{fill-rule:evenodd;clip-rule:evenodd;fill:#4B314F;}
	.st2{fill-rule:evenodd;clip-rule:evenodd;fill:#BA2BD2;}
	.st3{fill-rule:evenodd;clip-rule:evenodd;fill:none;}
	.st4{fill:#F2F2F2;}
	.st5{font-family:'Roboto-Black';}
	.st6{font-size:1157px;}
</style>
<g>
	<path class="st0" d="M2102.5,24.2L934.6,429.6l167.2,1549.5l1000.7,545.1V24.2z"/>
	<path class="st1" d="M2097.5,24.2l1167.9,405.4l-167.2,1549.5l-1000.7,545.1V24.2z"/>
	<path class="st2" d="M2682.1,879.7l-0.2-0.7c53.3,59.4,80.7,129.8,82.2,211.4c1.5,81.6-25.9,167.7-82.8,258
		c42.5-33,91.6-104.4,147.1-213.1c24,220.4-65.1,387.9-268.1,502.6c64.8-6,150.8-48.6,257.6-128.2
		c-113.9,274.2-323.3,418.8-628.2,434c-294.7-0.1-485.6-177.2-485.4-177c-121.1-94.3-204.5-213.1-249.8-356
		c-72.5-79.1-73.2-87.6-80.7-119.2c-7.5-31.6,4.7-40.5,25.9-71.4c14.2-20.6,17.5-50.3,10.2-88.5c-18-25-28.4-64.2-31.2-117.5
		c0-25.8,17.2-53,51.6-81.6c34.4-28.6,55.5-50.6,63.2-65.8c5.8-8.3,8.1-44.1,6.8-107.4c-0.4-62.2,34.2-96.1,103.7-101.6
		c104.2-8.2,163-86.6,195.7-122.2c21.8-23.8,54.1-35.3,94.9-35.5c57.4-2.7,109.6,19.3,154.5,64.7c112-5.8,226.7,24.4,342.9,89.8
		c165.2,98.1,255.3,204.4,270.4,318.2c-17.7,149.8-219,145.9-603-11.8c-200.9,56.9-299.7,180.3-296.4,370
		c-0.1,174.1,84.1,300.7,252.2,379.5c-81.9-80.4-116.8-148.1-105.1-204c170.4,201.8,364.5,277.3,582,226.3
		c-95.9,3.3-171.8-27.5-229-93c147-3.6,285.8-71.8,416.5-205.4c-75.4,60-154.4,82.8-238,68.5
		C2668.2,1324.6,2748.3,1117,2682.1,879.7L2682.1,879.7z M2271.3,852.3c18.4,0,33.2-14.9,33.2-33.2c0-18.4-14.9-33.2-33.2-33.2
		c-18.4,0-33.2,14.9-33.2,33.2C2238.1,837.4,2252.9,852.3,2271.3,852.3z"/>
</g>
<rect x="509.9" y="2677.8" class="st3" width="3185.2" height="1098.9"/>
<text transform="matrix(1 0 0 1 688.4605 3545.5864)" class="st4 st5 st6">NgRx</text>
</svg>
