<?xml version="1.0" encoding="utf-8"?>
<!-- Generator: Adobe Illustrator 22.0.0, SVG Export Plug-In . SVG Version: 6.00 Build 0)  -->
<svg version="1.1"
	 id="svg3028" inkscape:version="0.48.4 r9939" sodipodi:docname="nodejs-horizontal.svg" xmlns:cc="http://creativecommons.org/ns#" xmlns:dc="http://purl.org/dc/elements/1.1/" xmlns:inkscape="http://www.inkscape.org/namespaces/inkscape" xmlns:rdf="http://www.w3.org/1999/02/22-rdf-syntax-ns#" xmlns:sodipodi="http://sodipodi.sourceforge.net/DTD/sodipodi-0.dtd" xmlns:svg="http://www.w3.org/2000/svg"
	 xmlns="http://www.w3.org/2000/svg" xmlns:xlink="http://www.w3.org/1999/xlink" x="0px" y="0px" viewBox="0 0 173 79.3"
	 style="enable-background:new 0 0 173 79.3;" xml:space="preserve">
<style type="text/css">
	.st0{fill:#83CD29;}
	.st1{fill:#404137;}
</style>
<sodipodi:namedview  bordercolor="#666666" borderopacity="1" gridtolerance="10" guidetolerance="10" id="namedview3046" inkscape:current-layer="svg3028" inkscape:cx="114" inkscape:cy="32" inkscape:pageopacity="0" inkscape:pageshadow="2" inkscape:window-height="667" inkscape:window-maximized="0" inkscape:window-width="1132" inkscape:window-x="75" inkscape:window-y="34" inkscape:zoom="3.5701754" objecttolerance="10" pagecolor="#ffffff" showgrid="false">
	</sodipodi:namedview>
<g id="g3030" transform="matrix(0.3379231,0,0,0.3379231,-0.28958932,0.09584632)">
	<g id="g3032" transform="translate(430,51)">
		<path id="path3034" inkscape:connector-curvature="0" class="st0" d="M41.1,46c-1.2,0-2.5,0.3-3.5,0.9L3.6,66.4
			c-2.2,1.3-3.5,3.6-3.5,6.2v39.1c0,2.5,1.3,4.9,3.5,6.2l8.8,5.1c4.3,2.1,5.9,2.1,7.8,2.1c6.4,0,10-3.9,10-10.6V75.9
			c0-0.5-0.5-0.9-1-0.9h-4.2c-0.5,0-1,0.4-1,0.9v38.6c0,3-3.1,6-8.1,3.5l-9.2-5.4c-0.3-0.2-0.6-0.5-0.6-0.9V72.6
			c0-0.4,0.2-0.7,0.6-0.9l33.8-19.5c0.3-0.2,0.7-0.2,1,0l33.8,19.5c0.3,0.2,0.6,0.6,0.6,0.9v39.1c0,0.4-0.2,0.8-0.5,0.9l-33.9,19.5
			c-0.3,0.2-0.7,0.2-1,0l-8.7-5.2c-0.3-0.2-0.6-0.1-0.9,0c-2.4,1.4-2.9,1.5-5.1,2.3c-0.6,0.2-1.4,0.5,0.3,1.4l11.4,6.7
			c1.1,0.6,2.3,0.9,3.5,0.9c1.3,0,2.4-0.3,3.5-0.9l33.9-19.5c2.2-1.3,3.5-3.7,3.5-6.2V72.6c0-2.5-1.3-4.9-3.5-6.2L44.6,46.8
			C43.5,46.2,42.3,46,41.1,46L41.1,46L41.1,46z"/>
		<path id="path3036" inkscape:connector-curvature="0" class="st0" d="M50.1,73.9c-9.6,0-15.4,4.1-15.4,10.9c0,7.4,5.7,9.4,15,10.4
			c11.1,1.1,11.9,2.7,11.9,4.9c0,3.8-3,5.4-10.1,5.4c-9,0-10.9-2.2-11.6-6.7c-0.1-0.5-0.4-0.9-0.9-0.9h-4.4c-0.5,0-1,0.5-1,1
			c0,5.7,3.1,12.4,17.9,12.4c10.7,0,16.9-4.2,16.9-11.6c0-7.3-5-9.3-15.4-10.6c-10.5-1.4-11.5-2.1-11.5-4.5c0-2,0.8-4.7,8.6-4.7
			c7,0,9.5,1.5,10.6,6.2c0.1,0.4,0.5,0.8,0.9,0.8H66c0.3,0,0.5-0.2,0.7-0.4c0.2-0.2,0.3-0.4,0.3-0.7C66.3,77.7,61,73.9,50.1,73.9
			L50.1,73.9L50.1,73.9z"/>
	</g>
	<g id="g3038">
		<path id="path3040" inkscape:connector-curvature="0" class="st1" d="M271.8,45.8c-0.4,0-0.7,0.1-1.1,0.3
			c-0.7,0.4-1.1,1.1-1.1,1.9v55c0,0.5-0.3,1-0.7,1.3c-0.5,0.3-1,0.3-1.5,0l-9-5.2c-1.3-0.8-3-0.8-4.3,0l-35.9,20.7
			c-1.3,0.8-2.2,2.3-2.2,3.8v41.4c0,1.5,0.8,3,2.2,3.7l35.9,20.7c1.3,0.8,3,0.8,4.3,0l35.9-20.7c1.3-0.8,2.2-2.2,2.2-3.7V61.7
			c0-1.6-0.9-3-2.2-3.8L272.9,46C272.6,45.8,272.2,45.8,271.8,45.8L271.8,45.8L271.8,45.8L271.8,45.8z M40.9,97.5
			c-0.7,0-1.3,0.1-1.9,0.5L3,118.7c-1.3,0.8-2.2,2.2-2.2,3.7l0.1,55.6c0,0.8,0.4,1.5,1.1,1.9c0.7,0.4,1.5,0.4,2.2,0l21.3-12.2
			c1.3-0.8,2.2-2.2,2.2-3.7v-26c0-1.5,0.8-3,2.2-3.7l9.1-5.3c0.7-0.4,1.4-0.6,2.2-0.6c0.7,0,1.5,0.2,2.2,0.6l9.1,5.3
			c1.3,0.8,2.2,2.2,2.2,3.7v26c0,1.5,0.9,2.9,2.2,3.7L78,179.9c0.7,0.4,1.5,0.4,2.2,0c0.7-0.4,1.1-1.1,1.1-1.9l0.1-55.6
			c0-1.6-0.8-3-2.2-3.7L43.2,98c-0.6-0.4-1.3-0.5-1.9-0.5L40.9,97.5L40.9,97.5C40.9,97.5,40.9,97.5,40.9,97.5z M363.5,98
			c-0.8,0-1.5,0.2-2.2,0.6l-35.9,20.7c-1.3,0.8-2.2,2.2-2.2,3.7v41.4c0,1.6,0.9,3,2.2,3.7l35.6,20.3c1.3,0.8,2.9,0.8,4.2,0.1
			l21.6-12c0.7-0.4,1.1-1.1,1.2-1.9c0-0.8-0.4-1.5-1.1-1.9l-36.1-20.7c-0.7-0.4-1.2-1.2-1.2-1.9v-13c0-0.8,0.5-1.5,1.2-1.9l11.2-6.5
			c0.7-0.4,1.5-0.4,2.2,0l11.2,6.5c0.7,0.4,1.1,1.1,1.1,1.9v10.2c0,0.8,0.4,1.5,1.1,1.9c0.7,0.4,1.5,0.4,2.2,0l21.5-12.5
			c1.3-0.8,2.2-2.2,2.2-3.7v-10c0-1.5-0.8-3-2.2-3.7l-35.7-20.7C365,98.2,364.2,98,363.5,98L363.5,98L363.5,98z M256.1,128.9
			c0.2,0,0.4,0,0.6,0.1l12.3,7.1c0.3,0.2,0.6,0.5,0.6,0.9v14.2c0,0.4-0.2,0.7-0.6,0.9l-12.3,7.1c-0.3,0.2-0.7,0.2-1.1,0l-12.3-7.1
			c-0.3-0.2-0.6-0.5-0.6-0.9v-14.2c0-0.4,0.2-0.7,0.6-0.9l12.3-7.1C255.8,129,255.9,128.9,256.1,128.9L256.1,128.9L256.1,128.9
			L256.1,128.9z"/>
		<path id="path3042" inkscape:connector-curvature="0" class="st0" d="M148.7,97.8c-0.7,0-1.5,0.2-2.2,0.6L110.7,119
			c-1.3,0.8-2.2,2.3-2.2,3.8v41.4c0,1.5,0.8,3,2.2,3.7l35.9,20.7c1.3,0.8,3,0.8,4.3,0l35.9-20.7c1.3-0.8,2.2-2.2,2.2-3.7v-41.4
			c0-1.6-0.8-3-2.2-3.8l-35.9-20.6C150.2,98,149.5,97.8,148.7,97.8L148.7,97.8L148.7,97.8z"/>
		<path id="path3044" inkscape:connector-curvature="0" class="st0" d="M363.4,134.8c-0.1,0-0.3,0-0.4,0.1l-6.9,4
			c-0.3,0.1-0.4,0.4-0.4,0.7v7.9c0,0.3,0.2,0.6,0.4,0.7l6.9,4c0.3,0.1,0.5,0.1,0.8,0l6.9-4c0.3-0.1,0.4-0.4,0.4-0.7v-7.9
			c0-0.3-0.2-0.6-0.4-0.7l-6.9-4C363.6,134.8,363.6,134.8,363.4,134.8L363.4,134.8L363.4,134.8z"/>
	</g>
</g>
</svg>
