<?xml version="1.0" encoding="utf-8"?>
<!-- Generator: Adobe Illustrator 22.0.0, SVG Export Plug-In . SVG Version: 6.00 Build 0)  -->
<svg version="1.1" id="Layer_1" xmlns="http://www.w3.org/2000/svg" xmlns:xlink="http://www.w3.org/1999/xlink" x="0px" y="0px"
	 viewBox="0 0 693.5 805.8" style="enable-background:new 0 0 693.5 805.8;" xml:space="preserve">
<style type="text/css">
	.st0{fill:#FFFFFF;stroke:#000000;stroke-width:5;stroke-miterlimit:10;}
	.st1{stroke:#000000;stroke-width:3;stroke-miterlimit:10;}
	.st2{fill:none;stroke:#FFFFFF;stroke-width:2;}
	.st3{fill:#FFFFFF;stroke:#000000;stroke-width:6;}
	.st4{fill:#FFFFFF;}
</style>
<g transform="translate(0,35.625)">
	<path class="st0" d="M318.2,88.9c149.5-10.4,248.6,62.8,305.3,151.9c28.4,44.7,56.3,112.6,56.4,182.3
		c0.1,75.8-24.4,141.4-56.4,189.6c-32.9,49.5-75.5,90.4-128.8,117.2c-89.1,44.9-213.6,46.1-295.2,2.9
		C108.7,684.8,38.9,616.1,12.9,497C2.5,449.3,1.3,387.8,15.8,334.9c3.4-12.4,9.6-25.4,14.5-37.6c23.5-58.6,63.5-109.5,112.8-144.7
		c19.9-14.2,43.9-28.2,65.2-37.6C234.7,103.3,279.1,91.6,318.2,88.9z"/>
	<path d="M601.8,431.6c0,141.3-114.6,255.8-255.9,255.8S90.1,572.9,90.1,431.6S204.7,175.8,346,175.8S601.8,290.3,601.8,431.6z"/>
	<path class="st1" d="M318.2,88.9c149.5-10.4,248.6,62.8,305.3,151.9c28.4,44.7,56.3,112.6,56.4,182.3
		c0.1,75.8-24.4,141.4-56.4,189.6c-32.9,49.5-75.5,90.4-128.8,117.2c-89.1,44.9-213.6,46.1-295.2,2.9
		C108.7,684.8,38.9,616.1,12.9,497C2.5,449.3,1.3,387.8,15.8,334.9c3.4-12.4,9.6-25.4,14.5-37.6c23.5-58.6,63.5-109.5,112.8-144.7
		c19.9-14.2,43.9-28.2,65.2-37.6C234.7,103.3,279.1,91.6,318.2,88.9z M267.6,113.5c-55.5,14.4-96.3,40.2-131.7,68
		C84.8,221.6,52.2,277.6,33.2,345C12,420,25.6,510.8,54.9,567.8C85.2,627.1,126,673,183.7,705.4c56,31.5,134.9,51.7,217.1,36.2
		c73-13.8,128.5-45.6,173.6-92.6c60.4-62.9,109-178.8,76.7-301c-8.6-32.7-19.9-66.7-37.6-95.5c-9.6-15.6-23.6-30.9-37.6-46.3
		C522.9,148,437.2,97.8,327,104.9C305.9,106.2,287.5,108.4,267.6,113.5z"/>
	<g id="hashpattern">
		<g>
			<line class="st2" x1="361.5" y1="738.5" x2="657.1" y2="442.8"/>
			<line class="st2" x1="335.6" y1="715.1" x2="632.5" y2="418.1"/>
			<line class="st2" x1="309.8" y1="691.7" x2="608" y2="393.4"/>
			<line class="st2" x1="283.9" y1="668.2" x2="583.4" y2="368.7"/>
			<line class="st2" x1="258.1" y1="644.8" x2="558.9" y2="344"/>
			<line class="st2" x1="232.2" y1="621.4" x2="534.3" y2="319.3"/>
			<line class="st2" x1="206.4" y1="598" x2="509.8" y2="294.6"/>
			<line class="st2" x1="180.5" y1="574.6" x2="485.2" y2="269.9"/>
			<line class="st2" x1="154.7" y1="551.2" x2="460.6" y2="245.2"/>
			<line class="st2" x1="128.8" y1="527.8" x2="436.1" y2="220.5"/>
			<line class="st2" x1="103" y1="504.3" x2="411.5" y2="195.8"/>
			<line class="st2" x1="77.1" y1="480.9" x2="387" y2="171.1"/>
			<line class="st2" x1="51.3" y1="457.5" x2="362.4" y2="146.4"/>
			<line class="st2" x1="25.4" y1="434.1" x2="337.9" y2="121.7"/>
		</g>
		<g>
			<line class="st2" x1="25.3" y1="437.1" x2="326.9" y2="738.7"/>
			<line class="st2" x1="49.8" y1="412.3" x2="351.9" y2="714.5"/>
			<line class="st2" x1="74.3" y1="387.5" x2="377" y2="690.2"/>
			<line class="st2" x1="98.7" y1="362.7" x2="402" y2="666"/>
			<line class="st2" x1="123.2" y1="337.9" x2="427.1" y2="641.8"/>
			<line class="st2" x1="147.6" y1="313.1" x2="452.1" y2="617.6"/>
			<line class="st2" x1="172.1" y1="288.3" x2="477.2" y2="593.4"/>
			<line class="st2" x1="196.5" y1="263.5" x2="502.2" y2="569.1"/>
			<line class="st2" x1="221" y1="238.7" x2="527.2" y2="544.9"/>
			<line class="st2" x1="245.4" y1="213.9" x2="552.3" y2="520.7"/>
			<line class="st2" x1="269.9" y1="189" x2="577.3" y2="496.5"/>
			<line class="st2" x1="294.4" y1="164.2" x2="602.4" y2="472.3"/>
			<line class="st2" x1="318.8" y1="139.4" x2="627.4" y2="448"/>
			<line class="st2" x1="343.3" y1="114.6" x2="652.5" y2="423.8"/>
		</g>
	</g>
	<path d="M558.4,207.6C531.8,181,499.1,157,460,142.5c-40.5-15.1-86.3-27.8-140.3-23.2c-86.1,7.3-146.5,46-192.5,91.2
		C95,242.1,70.8,280.9,54.9,326.2c-23.5,66.5-22,145,4.3,212.7c22.5,57.7,59.3,104.3,111.4,140.4c49,33.9,119.3,60.2,198.2,53.5
		c96.2-8.1,166.5-57.5,212.7-114.3c11.8-14.5,23.6-31,30.4-50.6c6.7-14.2,10-23.8,13-28.9c12.8-28.7,19.6-59.1,21.7-92.6
		C653.1,343.2,613.4,262.6,558.4,207.6z M530.1,522c-0.2,0.4-0.3,0.8-0.5,1.2c-4.8,13.7-13,25.1-21.2,35.2
		c-32.3,39.5-81.5,73.7-148.8,79.4c-55.2,4.6-104.4-13.6-138.6-37.2c-29.8-20.5-52.4-45.8-68.3-76.2c-1-1.8-10.2-23.1-10.2-24
		c-12.6-39-13.7-101.7-0.8-139.3c8.6-25.1,23-52.3,42-73.8c26.2-29.7,52.5-48.8,94.1-62.2c19-6.1,36-12.4,59.3-13
		c57-1.5,115,24.1,146.2,52.1c28.6,25.8,61.3,75.9,69.5,123C561.1,435.5,552.1,482.8,530.1,522z"/>
	<path class="st3" d="M431.1,568.4c-14,0-26.3-8.9-30.6-22.1l-15.6-47.6h-78.2l-14.5,47.2c-4.4,13.5-16.8,22.5-30.9,22.5
		c-3.4,0-6.7-0.5-10-1.6c-16.9-5.1-26.4-23.2-21.3-40.4l66-209c4.3-13.3,16.9-22.6,30.7-22.6h35.1c13.9,0,26.5,9.1,30.7,22.2
		l69.4,208.9c5.5,17.1-3.6,35.4-20.5,40.9C438,567.9,434.5,568.4,431.1,568.4L431.1,568.4z"/>
	<g id="OAUTH">
		<g>
			<path class="st4" d="M171.9,228.2l-0.1-0.1c-8.2-11.3-5.8-27.1,6.3-35.9s27.7-6.4,35.9,4.9l0.1,0.1c8.2,11.3,5.8,27.1-6.3,35.9
				C195.7,242,180.1,239.5,171.9,228.2z M203.1,205.4l-0.1-0.1c-4.1-5.7-11.8-7.6-17.8-3.2c-5.9,4.3-6.4,12.1-2.3,17.7l0.1,0.1
				c4.1,5.7,11.8,7.6,17.8,3.3C206.8,218.8,207.2,211.1,203.1,205.4z"/>
			<path class="st4" d="M251.3,154.3l12.4-4l34.7,40.3l-13.9,4.4l-6-7.2l-17.9,5.7l-0.7,9.3l-13.5,4.3L251.3,154.3z M271.6,179
				l-9.4-11.5l-1,14.8L271.6,179z"/>
			<path class="st4" d="M320.6,166.4l0.1-27.3l13.7,0.1l-0.1,27c0,7,3.5,10.4,8.9,10.4s9-3.2,9-10l0.1-27.4l13.7,0.1l-0.1,26.9
				c-0.1,15.7-9,22.5-22.9,22.5C329.2,188.7,320.5,181.6,320.6,166.4z"/>
			<path class="st4" d="M415.4,161.6l-13.9-4.3l3.4-11.3l40.8,12.4l-3.4,11.3l-13.9-4.3l-10.7,35.2l-12.9-3.9L415.4,161.6z"/>
			<path class="st4" d="M482.1,174.3l11.2,7.5l-10.1,15.1l14.4,9.6l10.1-15.2l11.2,7.5L492,239.3l-11.2-7.5l10.2-15.4l-14.4-9.6
				l-10.2,15.4l-11.2-7.5L482.1,174.3z"/>
		</g>
		<g>
			<path class="st4" d="M521.7,616.8L521.7,616.8c8.8,11.1,6.9,26.9-4.8,36.2c-11.8,9.3-27.4,7.4-36.1-3.5l-0.1-0.1
				c-8.7-11-6.8-26.8,4.9-36.1C497.4,603.9,513.1,605.8,521.7,616.8z M491.4,640.7l0.1,0.1c4.3,5.5,12.1,7.2,17.9,2.6
				c5.8-4.6,5.9-12.3,1.6-17.8l-0.1-0.1c-4.3-5.5-12.1-7.2-17.9-2.6S487.1,635.2,491.4,640.7z"/>
			<path class="st4" d="M445.7,693.8l-12.2,4.5l-36.4-38.7l13.5-5l6.3,6.9l17.6-6.5l0.2-9.3l13.3-4.9L445.7,693.8z M424.2,670
				l9.9,11.1l0.3-14.9L424.2,670z"/>
			<path class="st4" d="M375.9,684.6l1.2,27.3l-13.7,0.6l-1.2-27c-0.3-7-4-10.2-9.4-9.9c-5.4,0.2-8.8,3.6-8.5,10.4l1.2,27.3
				l-13.7,0.6l-1.2-26.9c-0.7-15.7,8-22.9,21.8-23.6C366.3,662.7,375.3,669.4,375.9,684.6z"/>
			<path class="st4" d="M280.9,693.5l14.1,3.8l-3.1,11.4l-41.2-11.1l3.1-11.4l14.1,3.8l9.6-35.5l13,3.5L280.9,693.5z"/>
			<path class="st4" d="M214.4,683.6l-11.6-6.9l9.4-15.6l-14.8-8.9l-9.4,15.6l-11.6-6.9l25-41.7L213,626l-9.5,15.8l14.8,8.9
				l9.5-15.8l11.6,6.9L214.4,683.6z"/>
		</g>
	</g>
</g>
</svg>
