<?xml version="1.0" encoding="utf-8"?>
<!-- Generator: Adobe Illustrator 24.2.1, SVG Export Plug-In . SVG Version: 6.00 Build 0)  -->
<svg version="1.1" id="Layer_1" xmlns="http://www.w3.org/2000/svg" xmlns:xlink="http://www.w3.org/1999/xlink" x="0px" y="0px"
	 viewBox="0 0 543 136" style="enable-background:new 0 0 543 136;" xml:space="preserve">
<style type="text/css">
	.st0{fill:#CBCBCB;}
	.st1{fill:#FFFFFF;}
	.st2{fill:#B52E31;}
	.st3{fill:#B2B2B2;}
	.st4{fill:#E23237;}
	.st5{fill:#F2F2F2;}
</style>
<g>
	<path class="st0" d="M144,98.3V43.8h7.1l33.4,43.9V43.8h6.7v54.5h-7.1L150.7,54v44.3H144L144,98.3z"/>
	<path class="st0" d="M245.2,96.1c-4.4,1.7-9.1,2.5-14.2,2.5c-19.7,0-29.6-9.5-29.6-28.4c0-17.9,9.5-26.9,28.6-26.9
		c5.5,0,10.6,0.8,15.2,2.3v6.1c-4.7-1.8-9.5-2.7-14.5-2.7c-14.9,0-22.3,7.1-22.3,21.2c0,15.1,7.3,22.7,22,22.7
		c2.3,0,4.9-0.3,7.8-0.9V73.5h7.1L245.2,96.1L245.2,96.1z"/>
	<path class="st0" d="M256.5,77.2V43.8h7v33.5c0,10.5,5.2,15.7,15.6,15.7c10.4,0,15.6-5.2,15.6-15.7V43.8h7.1v33.5
		c0,14.3-7.6,21.4-22.7,21.4C264.1,98.7,256.5,91.5,256.5,77.2L256.5,77.2z"/>
	<path class="st0" d="M321.5,43.8v48.8H350v5.7h-35.6V43.8H321.5L321.5,43.8z"/>
	<path class="st0" d="M360.2,98.3h-7.3L380,36.6l27.1,61.7h-7.8l-7.1-17.2h-18l1.9-5.7h13.7l-10.2-24.7L360.2,98.3z"/>
	<path class="st0" d="M414.5,98.3V43.8h23.3c10.4,0,15.6,4.4,15.6,13.1c0,7.1-5.1,12.3-15.2,15.7l18.7,25.7h-9.3l-17.3-24.5v-4.6
		c10.4-1.7,15.6-5.7,15.6-12c0-5-2.9-7.5-8.7-7.5h-15.6v48.7L414.5,98.3L414.5,98.3z"/>
	<path class="st0" d="M483.2,43.8v38.8c0,10.5-6.2,15.7-18.5,15.7v-5.7c7.6,0,11.4-3.3,11.4-10V43.8H483.2z"/>
	<path class="st0" d="M495.8,96.4v-6.5c5.7,2,11.9,3.1,18.5,3.1c9.4,0,14.1-3.4,14.1-10.3c0-5.8-3.5-8.8-10.4-8.8h-7
		c-11.4,0-17.1-5-17.1-14.9c0-10.4,7.3-15.6,21.9-15.6c6.3,0,12.3,0.8,17.7,2.3v6.5c-5.5-2-11.4-3.1-17.7-3.1
		c-9.9,0-14.9,3.3-14.9,9.9c0,5.8,3.4,8.8,10.1,8.8h7c11.6,0,17.4,5,17.4,14.9c0,10.7-7,16-21.1,16
		C507.7,98.7,501.5,97.9,495.8,96.4L495.8,96.4z"/>
	<path class="st1" d="M145.8,96.5V42h7.1l33.4,43.9V42h6.7v54.5h-7.1l-33.4-44.3v44.3C152.5,96.5,145.8,96.5,145.8,96.5z"/>
	<path class="st1" d="M247,94.4c-4.4,1.7-9.1,2.5-14.2,2.5c-19.7,0-29.6-9.5-29.6-28.4c0-17.9,9.5-26.9,28.6-26.9
		c5.5,0,10.5,0.8,15.2,2.3V50c-4.7-1.8-9.5-2.7-14.5-2.7c-14.9,0-22.3,7.1-22.3,21.2c0,15.1,7.3,22.7,22,22.7c2.3,0,4.9-0.3,7.8-0.9
		V71.7h7V94.4L247,94.4z"/>
	<path class="st1" d="M258.3,75.4V42h7v33.5c0,10.5,5.2,15.7,15.6,15.7c10.4,0,15.6-5.2,15.6-15.7V42h7.1v33.5
		c0,14.3-7.6,21.4-22.7,21.4C265.8,96.9,258.3,89.7,258.3,75.4L258.3,75.4z"/>
	<path class="st1" d="M323.3,42v48.8h28.5v5.7h-35.6V42H323.3L323.3,42z"/>
	<path class="st1" d="M362,96.5h-7.3l27.1-61.7l27.1,61.7H401L394,79.3h-18l1.9-5.7h13.7l-10.2-24.7L362,96.5z"/>
	<path class="st1" d="M416.3,96.5V42h23.3c10.4,0,15.5,4.4,15.5,13.1c0,7.1-5.1,12.3-15.2,15.7l18.7,25.7h-9.3L431.9,72v-4.6
		c10.4-1.7,15.6-5.7,15.6-12c0-5-2.9-7.5-8.7-7.5h-15.6v48.7L416.3,96.5L416.3,96.5z"/>
	<path class="st2" d="M485,42v38.8c0,10.5-6.2,15.7-18.5,15.7v-5.7c7.6,0,11.4-3.3,11.4-10V42H485z"/>
	<path class="st2" d="M497.6,94.6v-6.5c5.7,2,11.9,3.1,18.5,3.1c9.4,0,14.1-3.4,14.1-10.3c0-5.8-3.5-8.8-10.4-8.8h-7
		c-11.4,0-17.1-5-17.1-14.9c0-10.4,7.3-15.6,21.9-15.6c6.4,0,12.3,0.8,17.7,2.3v6.5c-5.5-2-11.4-3.1-17.7-3.1
		c-9.9,0-14.9,3.3-14.9,9.9c0,5.8,3.4,8.8,10.1,8.8h7c11.6,0,17.4,5,17.4,14.9c0,10.7-7,16-21.1,16
		C509.5,96.9,503.3,96.1,497.6,94.6L497.6,94.6z"/>
	<path class="st3" d="M71.7,0L8,22.4l10.1,83.4l53.7,29.5l53.9-29.9L135.7,22L71.7,0z"/>
	<path class="st2" d="M129.4,26.8L71.5,7.1v121.2l48.5-26.8L129.4,26.8z"/>
	<path class="st4" d="M15.1,27.2l8.6,74.6l47.7,26.5V7.1L15.1,27.2z"/>
	<path class="st5" d="M84.9,67.4L71.6,39.6L59.9,67.4L84.9,67.4L84.9,67.4z M90,79H54.7l-7.9,19.7l-14.7,0.3l39.4-87.6l40.7,87.6
		H98.6L90,79z"/>
	<path class="st3" d="M71.5,11.5l0.1,28.1l13.3,27.8H71.5l0,11.6L90,79l8.6,20l14,0.3L71.5,11.5z"/>
</g>
</svg>
