<svg id="svg2" xmlns="http://www.w3.org/2000/svg" xmlns:xlink="http://www.w3.org/1999/xlink" viewBox="0 0 109.8 72"><defs><linearGradient id="linear-gradient" x1="-11797.7" y1="7241.06" x2="-11775.52" y2="7218.5" gradientTransform="translate(-1432.84 -2150.63) scale(0)" gradientUnits="userSpaceOnUse"><stop offset="0" stop-color="#070135"/><stop offset="1" stop-color="#612d50"/></linearGradient></defs><title>Artboard 1</title><g id="layer1"><path id="rect3050" d="M44.93,10.64H66.34a5.12,5.12,0,0,1,5.11,5.11V37.28a5.13,5.13,0,0,1-5.11,5.11H44.93a5.13,5.13,0,0,1-5.11-5.11V15.75A5.12,5.12,0,0,1,44.93,10.64Z" style="fill:url(#linear-gradient)"/><g id="text3836"><path id="path3841" d="M55.89,24.33a2.76,2.76,0,0,0,1.83-.52,1.84,1.84,0,0,0,.63-1.54,1.89,1.89,0,0,0-.63-1.55,2.65,2.65,0,0,0-1.83-.54H53.06v4.15h2.83m.17,8.6a3.64,3.64,0,0,0,2.31-.64,2.41,2.41,0,0,0,.79-1.94,2.29,2.29,0,0,0-.77-1.92,3.52,3.52,0,0,0-2.33-.64h-3V33h3m4.74-7.1a4.67,4.67,0,0,1,2.56,1.75,5.36,5.36,0,0,1,.89,3.14A4.92,4.92,0,0,1,62.32,35c-1.29.93-3.28,1.4-5.91,1.4H47.9V16.74h7.69c2.76,0,4.77.42,6,1.23a4.39,4.39,0,0,1,1.86,4,4.38,4.38,0,0,1-.67,2.46,4,4,0,0,1-2,1.47" style="fill:#fff"/></g></g><path id="path3762" d="M14.8,53.3v4.8h2.9a3.07,3.07,0,0,0,2.2-.7,2.42,2.42,0,0,0,0-3.6,3.2,3.2,0,0,0-2.2-.7l-2.9.2m0-5.5v4h2.6a3.09,3.09,0,0,0,1.9-.5,1.8,1.8,0,0,0,.7-1.5,1.68,1.68,0,0,0-.7-1.5,2.85,2.85,0,0,0-1.9-.5H14.8m-1.7-1.4h4.5a5.07,5.07,0,0,1,3.2.9,3.36,3.36,0,0,1,.5,4.4,2.36,2.36,0,0,1-1.6.9,4.69,4.69,0,0,1,2.1,1.1,3.57,3.57,0,0,1,.8,2.3,3.16,3.16,0,0,1-1.2,2.7,5.22,5.22,0,0,1-3.5,1H13.2l-.1-13.3" style="fill:#dcf"/><path id="path3764" d="M28.9,50.8a2.81,2.81,0,0,0-2.1,1,3.91,3.91,0,0,0-.8,2.8,4.88,4.88,0,0,0,.8,2.8,2.51,2.51,0,0,0,2.1,1,2.81,2.81,0,0,0,2.1-1,4.23,4.23,0,0,0,.8-2.8,4.65,4.65,0,0,0-.8-2.8,2.52,2.52,0,0,0-2.1-1m0-1.3a4.76,4.76,0,0,1,3.4,1.3,5.13,5.13,0,0,1,1.2,3.8,5.59,5.59,0,0,1-1.2,3.8,4.38,4.38,0,0,1-3.4,1.3,4.94,4.94,0,0,1-3.4-1.3,5.56,5.56,0,0,1-1.1-3.8,6.13,6.13,0,0,1,1.1-3.8,5.13,5.13,0,0,1,3.4-1.3" style="fill:#dcf"/><path id="path3766" d="M39.6,50.8a2.81,2.81,0,0,0-2.1,1,4.07,4.07,0,0,0-.8,2.8,4.88,4.88,0,0,0,.8,2.8,2.51,2.51,0,0,0,2.1,1,2.81,2.81,0,0,0,2.1-1,4.23,4.23,0,0,0,.8-2.8,4.65,4.65,0,0,0-.8-2.8,3.19,3.19,0,0,0-2.1-1m0-1.3A4.94,4.94,0,0,1,43,50.8a5.13,5.13,0,0,1,1.2,3.8A5.59,5.59,0,0,1,43,58.4a4.38,4.38,0,0,1-3.4,1.3,4.76,4.76,0,0,1-3.4-1.3A5.13,5.13,0,0,1,35,54.6a5.59,5.59,0,0,1,1.2-3.8,4.59,4.59,0,0,1,3.4-1.3" style="fill:#dcf"/><path id="path3768" d="M48.3,46.8v2.8h3.3v1.2H48.2v5.4c0,.9.1,1.3.4,1.5s.7.4,1.3.4h1.7v1.3H50a3.67,3.67,0,0,1-2.6-.8,3.5,3.5,0,0,1-.8-2.6V50.6H45.5V49.5h1.1V46.7h1.7" style="fill:#dcf"/><path id="path3770" d="M60.1,50v1.6a4.24,4.24,0,0,0-1.4-.6,7.72,7.72,0,0,0-1.5-.2,3,3,0,0,0-1.8.4,1.51,1.51,0,0,0-.7,1.1,1.05,1.05,0,0,0,.5.9,5.75,5.75,0,0,0,1.7.7l.6.1A6.55,6.55,0,0,1,60,55.1a2.41,2.41,0,0,1,.8,1.9,2.79,2.79,0,0,1-1.1,2.2,4.64,4.64,0,0,1-3,.8,7.77,7.77,0,0,1-1.6-.2,12.09,12.09,0,0,1-1.8-.5V57.6c.7.3,1.2.6,1.8.8a5.55,5.55,0,0,0,1.7.3,3.21,3.21,0,0,0,1.8-.4,1.27,1.27,0,0,0,.7-1.1c0-.4-.2-.9-.5-1a4.92,4.92,0,0,0-2-.8l-.8-.1a5,5,0,0,1-2.2-1,2.27,2.27,0,0,1-.7-1.8,3,3,0,0,1,1-2.2,3.91,3.91,0,0,1,2.8-.8,8.62,8.62,0,0,1,1.7.1c.4.1,1,.3,1.5.4" style="fill:#dcf"/><path id="path3772" d="M64.7,46.8v2.8h3.4v1.2H64.7v5.4c0,.9.1,1.3.4,1.5s.7.4,1.3.4H68v1.3H66.4a3.67,3.67,0,0,1-2.6-.8A3.5,3.5,0,0,1,63,56V50.6H61.9V49.5h1.2V46.7h1.6" style="fill:#dcf"/><path id="path3774" d="M75.8,51.2a4.88,4.88,0,0,0-.7-.3,2,2,0,0,0-.8-.1,2.58,2.58,0,0,0-2.1.9,3.94,3.94,0,0,0-.8,2.5v5.3H70V49.7h1.6v1.5a2.7,2.7,0,0,1,1.3-1.3,4.23,4.23,0,0,1,2-.5h.4a1.09,1.09,0,0,1,.5.1v1.7" style="fill:#dcf"/><path id="path3776" d="M82.1,54.7a5.29,5.29,0,0,0-2.7.5,1.56,1.56,0,0,0-.8,1.5,1.49,1.49,0,0,0,.6,1.3,2,2,0,0,0,1.5.6,3,3,0,0,0,2.2-1,3.59,3.59,0,0,0,.8-2.5v-.4H82.1m3.2-.8v5.7H83.7V58.1a2.7,2.7,0,0,1-1.3,1.3,4.23,4.23,0,0,1-2,.5,3.66,3.66,0,0,1-2.5-.9,2.7,2.7,0,0,1-.9-2.3,3,3,0,0,1,1.1-2.5,5.51,5.51,0,0,1,3.4-.9h2.2v-.2a2,2,0,0,0-.8-1.7,2.82,2.82,0,0,0-2.1-.7,7.77,7.77,0,0,0-1.6.2,4.13,4.13,0,0,0-1.5.7V50.1c.7-.3,1.2-.4,1.7-.6a10,10,0,0,1,1.6-.2,4.42,4.42,0,0,1,3.2,1.1,5.42,5.42,0,0,1,1.1,3.5" style="fill:#dcf"/><path id="path3778" d="M89.6,58.1v5.3H88V49.8h1.6v1.5a2.72,2.72,0,0,1,1.2-1.2,4.14,4.14,0,0,1,1.9-.5A3.56,3.56,0,0,1,95.6,51a6.37,6.37,0,0,1,1.2,3.8,6,6,0,0,1-1.2,3.8A3.42,3.42,0,0,1,92.7,60a3.83,3.83,0,0,1-1.9-.5,9.39,9.39,0,0,1-1.2-1.4m5.6-3.4a4.45,4.45,0,0,0-.8-2.8,2.12,2.12,0,0,0-2-1,2.46,2.46,0,0,0-2,1,5.3,5.3,0,0,0,0,5.6,2.33,2.33,0,0,0,2,1,2.46,2.46,0,0,0,2-1,4.07,4.07,0,0,0,.8-2.8" style="fill:#dcf"/></svg>