<?xml version="1.0" encoding="utf-8"?>
<!-- Generator: Adobe Illustrator 24.2.1, SVG Export Plug-In . SVG Version: 6.00 Build 0)  -->
<svg version="1.1"
	 id="Handlebars" xmlns:cc="http://creativecommons.org/ns#" xmlns:dc="http://purl.org/dc/elements/1.1/" xmlns:inkscape="http://www.inkscape.org/namespaces/inkscape" xmlns:rdf="http://www.w3.org/1999/02/22-rdf-syntax-ns#" xmlns:sodipodi="http://sodipodi.sourceforge.net/DTD/sodipodi-0.dtd" xmlns:svg="http://www.w3.org/2000/svg"
	 xmlns="http://www.w3.org/2000/svg" xmlns:xlink="http://www.w3.org/1999/xlink" x="0px" y="0px" viewBox="0 0 115 50"
	 style="enable-background:new 0 0 115 50;" xml:space="preserve">
<style type="text/css">
	.st0{fill:#ECECEC;}
</style>
<sodipodi:namedview  bordercolor="#666666" borderopacity="1" gridtolerance="10" guidetolerance="10" id="namedview30" inkscape:current-layer="original-wordmark" inkscape:cx="53.570271" inkscape:cy="43.717035" inkscape:pageopacity="0" inkscape:pageshadow="2" inkscape:window-height="1030" inkscape:window-maximized="1" inkscape:window-width="1920" inkscape:window-x="0" inkscape:window-y="0" inkscape:zoom="5.2149125" objecttolerance="10" pagecolor="#ffffff" showgrid="false">
	</sodipodi:namedview>
<g id="original-wordmark" transform="matrix(0.98099813,0,0,0.98099813,-2.9462258,-34.0936)">
	<g id="handlebars-2" transform="matrix(0.84317708,0,0,0.84317708,10.321531,12.427472)">
		<path id="path4" inkscape:connector-curvature="0" class="st0" d="M3.1,33.1v4.5c0.3-0.4,0.7-0.7,1.1-1c0.4-0.3,0.8-0.5,1.2-0.6
			c0.5-0.1,0.9-0.2,1.4-0.2c0.7,0,1.4,0.2,2,0.5c1,0.5,1.7,1.5,1.9,2.6c0.1,0.5,0.1,1,0.1,1.5v5.8c0,0.5-0.1,1-0.4,1.4
			c-0.3,0.3-0.7,0.5-1.1,0.5c-1,0-1.5-0.6-1.5-1.8v-5.1c0-0.8-0.1-1.5-0.4-2.2c-0.4-0.6-1-0.9-1.6-0.8c-0.5,0-1,0.2-1.5,0.5
			c-0.5,0.3-0.8,0.8-1,1.3c-0.2,0.8-0.3,1.6-0.2,2.4v4c0,0.5-0.1,1-0.4,1.4c-0.3,0.3-0.7,0.5-1.1,0.5c-1,0-1.5-0.6-1.5-1.8V33.1
			c0-0.5,0.1-1,0.4-1.4c0.3-0.3,0.7-0.5,1.1-0.5c0.4,0,0.8,0.1,1.1,0.5C3,32.1,3.2,32.6,3.1,33.1z"/>
		<path id="path6" inkscape:connector-curvature="0" class="st0" d="M21.6,46.4c-0.7,0.5-1.4,0.9-2.1,1.3c-0.7,0.3-1.5,0.4-2.3,0.4
			c-0.7,0-1.4-0.1-2-0.5c-0.6-0.3-1-0.7-1.4-1.2c-0.3-0.5-0.5-1.1-0.5-1.7c0-0.8,0.3-1.5,0.8-2.1c0.6-0.6,1.3-1,2.2-1.2l1.4-0.3
			c0.8-0.2,1.4-0.3,2-0.4c0.6-0.1,1.2-0.3,1.8-0.5c0-0.6-0.2-1.2-0.5-1.8c-0.5-0.5-1.2-0.7-1.9-0.5c-0.6,0-1.2,0.1-1.7,0.3
			c-0.4,0.2-0.8,0.6-1,1c-0.3,0.4-0.5,0.7-0.6,0.8c-0.2,0.2-0.5,0.2-0.7,0.2c-0.3,0-0.6-0.1-0.9-0.3c-0.2-0.2-0.4-0.5-0.4-0.8
			c0-0.6,0.2-1.1,0.6-1.5c0.5-0.6,1.1-1,1.8-1.2c1-0.4,2-0.5,3-0.5c1.1,0,2.1,0.1,3.1,0.5c0.7,0.3,1.3,0.8,1.6,1.5
			c0.3,0.9,0.5,1.8,0.5,2.7c0,0.7,0,1.3,0,1.8s0,1,0,1.7c0,0.6,0.1,1.2,0.2,1.7c0.1,0.4,0.2,0.8,0.3,1.2c0,0.3-0.2,0.6-0.4,0.8
			c-0.3,0.2-0.6,0.4-1,0.4c-0.4,0-0.7-0.2-0.9-0.4C22.1,47.3,21.8,46.8,21.6,46.4z M21.4,42c-0.6,0.2-1.3,0.4-1.9,0.5
			c-0.8,0.2-1.4,0.3-1.8,0.4c-0.3,0.1-0.7,0.3-0.9,0.5c-0.3,0.3-0.5,0.6-0.4,1c0,0.4,0.2,0.9,0.5,1.2c0.4,0.3,0.9,0.5,1.4,0.5
			c0.6,0,1.1-0.1,1.7-0.4c0.5-0.2,0.9-0.6,1.1-1c0.3-0.7,0.5-1.5,0.4-2.3L21.4,42z"/>
		<path id="path8" inkscape:connector-curvature="0" class="st0" d="M30.2,37.4v0.4c0.5-0.6,1.1-1.2,1.8-1.5
			c0.7-0.3,1.4-0.5,2.2-0.5c0.7,0,1.5,0.2,2.1,0.5c0.6,0.3,1.1,0.9,1.4,1.5c0.2,0.4,0.3,0.8,0.4,1.2c0.1,0.5,0.1,1.1,0.1,1.6v5.6
			c0,0.5-0.1,1-0.4,1.4c-0.6,0.6-1.5,0.6-2.1,0.1c0,0,0,0-0.1-0.1c-0.3-0.4-0.5-0.9-0.4-1.4v-5.1c0.1-0.8-0.1-1.6-0.4-2.3
			c-0.4-0.6-1-0.9-1.7-0.8c-0.5,0-1,0.2-1.4,0.5c-0.5,0.3-0.8,0.8-1,1.3c-0.2,0.8-0.3,1.7-0.2,2.5v3.8c0,0.5-0.1,1-0.4,1.4
			c-0.3,0.3-0.7,0.5-1.1,0.5c-0.4,0-0.8-0.2-1.1-0.5c-0.3-0.4-0.5-0.9-0.4-1.4v-8.7c0-0.5,0.1-0.9,0.4-1.3c0.3-0.3,0.6-0.4,1-0.4
			c0.3,0,0.5,0.1,0.7,0.2c0.2,0.1,0.4,0.3,0.5,0.6C30.1,36.8,30.2,37.1,30.2,37.4z"/>
		<path id="path10" inkscape:connector-curvature="0" class="st0" d="M49.4,46.3V46c-0.4,0.4-0.8,0.8-1.2,1.1
			c-0.4,0.3-0.8,0.5-1.3,0.7c-0.5,0.2-1,0.2-1.5,0.2c-0.7,0-1.4-0.2-2-0.5c-0.6-0.3-1.2-0.8-1.6-1.3c-0.5-0.6-0.8-1.3-1-2
			c-0.2-0.8-0.4-1.7-0.3-2.5c-0.1-1.6,0.4-3.2,1.4-4.4c0.9-1.1,2.3-1.6,3.7-1.6c0.8,0,1.5,0.1,2.2,0.5c0.7,0.3,1.3,0.8,1.8,1.4v-4.5
			c0-0.5,0.1-1,0.4-1.4c0.3-0.3,0.6-0.5,1.1-0.5c0.4,0,0.8,0.1,1.1,0.4c0.3,0.4,0.4,0.8,0.4,1.3v13.4c0,0.5-0.1,0.9-0.4,1.3
			c-0.3,0.3-0.6,0.4-1,0.4c-0.4,0-0.7-0.2-1-0.5C49.6,47.3,49.4,46.8,49.4,46.3z M43.4,41.9c0,0.7,0.1,1.4,0.4,2.1
			c0.2,0.5,0.5,1,1,1.3c0.4,0.3,0.9,0.4,1.5,0.4c0.5,0,1-0.1,1.5-0.4c0.5-0.3,0.8-0.8,1.1-1.3c0.3-0.7,0.5-1.4,0.5-2.2
			c0-0.7-0.1-1.4-0.4-2.1c-0.2-0.5-0.6-1-1.1-1.3c-0.4-0.3-0.9-0.5-1.5-0.5c-0.5,0-1.1,0.2-1.5,0.5c-0.5,0.3-0.8,0.8-1,1.3
			C43.6,40.5,43.5,41.2,43.4,41.9L43.4,41.9z"/>
		<path id="path12" inkscape:connector-curvature="0" class="st0" d="M55.3,46.2V33.1c0-0.5,0.1-1,0.4-1.4c0.3-0.3,0.7-0.5,1.1-0.5
			c0.4,0,0.8,0.2,1.1,0.5c0.3,0.4,0.5,0.9,0.4,1.4v13.2c0,0.5-0.1,1-0.4,1.4c-0.3,0.3-0.7,0.5-1.1,0.5c-0.4,0-0.8-0.2-1.1-0.5
			C55.5,47.2,55.3,46.7,55.3,46.2z"/>
		<path id="path14" inkscape:connector-curvature="0" class="st0" d="M70,42.6H64c0,0.6,0.1,1.3,0.4,1.8c0.5,1,1.5,1.6,2.6,1.6
			c0.3,0,0.7,0,1-0.1c0.3-0.1,0.6-0.2,0.9-0.4c0.3-0.2,0.5-0.4,0.8-0.6c0.2-0.2,0.5-0.5,0.9-0.8c0.2-0.1,0.4-0.2,0.7-0.2
			c0.3,0,0.5,0.1,0.8,0.3c0.2,0.2,0.3,0.4,0.3,0.7c0,0.4-0.1,0.7-0.3,1c-0.3,0.4-0.6,0.8-1,1c-0.5,0.4-1,0.7-1.6,0.8
			c-0.7,0.2-1.5,0.3-2.3,0.3c-1.7,0.1-3.3-0.5-4.5-1.7c-1.1-1.2-1.7-2.9-1.7-4.5c0-0.8,0.1-1.7,0.4-2.5c0.2-0.7,0.6-1.4,1.2-2
			c0.5-0.6,1.2-1,1.9-1.3c0.8-0.3,1.6-0.5,2.5-0.4c1,0,2.1,0.2,3,0.8c0.8,0.5,1.5,1.1,1.9,1.9c0.4,0.8,0.7,1.6,0.7,2.5
			c0,0.8-0.2,1.3-0.7,1.5C71.2,42.6,70.6,42.7,70,42.6z M64,40.9h5.5c0-0.9-0.3-1.7-0.8-2.3c-0.5-0.5-1.2-0.8-1.9-0.7
			c-0.7,0-1.4,0.3-1.9,0.8C64.4,39.3,64.1,40.1,64,40.9z"/>
		<path id="path16" inkscape:connector-curvature="0" class="st0" d="M77.5,33v4.6c0.5-0.5,1.1-1,1.7-1.4c0.7-0.3,1.4-0.5,2.2-0.5
			c0.9,0,1.9,0.2,2.7,0.7c0.8,0.5,1.4,1.2,1.8,2.1c0.4,1,0.7,2.1,0.6,3.2c0,0.9-0.1,1.7-0.3,2.5c-0.2,0.7-0.5,1.4-1,2
			c-0.4,0.6-1,1-1.6,1.3c-0.7,0.3-1.4,0.5-2.1,0.5c-0.5,0-0.9-0.1-1.3-0.2c-0.4-0.1-0.7-0.2-1-0.4c-0.3-0.2-0.5-0.3-0.7-0.6
			c-0.2-0.2-0.5-0.5-0.8-0.9v0.3c0,0.5-0.1,0.9-0.4,1.3c-0.3,0.3-0.6,0.4-1,0.4c-0.4,0-0.7-0.2-1-0.4c-0.3-0.4-0.4-0.8-0.4-1.3V33.1
			c0-0.5,0.1-1,0.4-1.4c0.2-0.3,0.6-0.5,1-0.5c0.4,0,0.8,0.1,1.1,0.5C77.5,32.1,77.6,32.5,77.5,33z M77.6,42c-0.1,1,0.2,2,0.8,2.8
			c0.5,0.7,1.3,1,2.2,1c0.8,0,1.5-0.4,2-1c0.6-0.8,0.9-1.9,0.8-2.9c0-0.7-0.1-1.4-0.3-2c-0.2-0.5-0.5-1-1-1.3
			c-0.4-0.3-0.9-0.5-1.5-0.5c-0.5,0-1.1,0.2-1.5,0.5c-0.5,0.3-0.8,0.8-1,1.3C77.8,40.5,77.6,41.3,77.6,42L77.6,42z"/>
		<path id="path18" inkscape:connector-curvature="0" class="st0" d="M96.6,46.4c-0.7,0.5-1.4,0.9-2.1,1.3c-0.7,0.3-1.5,0.4-2.3,0.4
			c-0.7,0-1.4-0.1-2-0.5c-0.6-0.3-1-0.7-1.4-1.2c-0.3-0.5-0.5-1.1-0.5-1.7c0-0.8,0.3-1.5,0.8-2.1c0.6-0.6,1.3-1,2.2-1.2l1.4-0.3
			c0.8-0.2,1.4-0.3,2-0.4c0.6-0.1,1.2-0.3,1.8-0.5c0-0.6-0.2-1.2-0.5-1.8c-0.5-0.5-1.2-0.6-1.9-0.5c-0.6,0-1.2,0.1-1.7,0.3
			c-0.4,0.2-0.8,0.6-1,1c-0.3,0.4-0.5,0.7-0.6,0.8c-0.2,0.2-0.5,0.2-0.7,0.2c-0.3,0-0.6-0.1-0.9-0.4c-0.2-0.2-0.4-0.5-0.4-0.8
			c0-0.6,0.2-1.1,0.6-1.5c0.5-0.6,1.1-1,1.8-1.2c1-0.4,2-0.5,3-0.5c1.1,0,2.1,0.1,3.1,0.5c0.7,0.3,1.3,0.8,1.6,1.5
			c0.3,0.9,0.5,1.8,0.5,2.7c0,0.7,0,1.3,0,1.8s0,1,0,1.7c0,0.6,0.1,1.2,0.3,1.8c0.1,0.4,0.2,0.8,0.3,1.2c0,0.3-0.2,0.6-0.4,0.8
			c-0.3,0.2-0.6,0.4-1,0.4c-0.4,0-0.7-0.2-0.9-0.4C97.2,47.3,96.9,46.8,96.6,46.4z M96.4,42c-0.6,0.2-1.3,0.4-1.9,0.5
			c-0.8,0.2-1.4,0.3-1.8,0.4c-0.3,0.1-0.7,0.3-0.9,0.5c-0.3,0.3-0.5,0.6-0.4,1c0,0.4,0.2,0.9,0.5,1.2c0.4,0.3,0.9,0.5,1.4,0.5
			c0.6,0,1.1-0.1,1.7-0.4c0.5-0.2,0.9-0.6,1.1-1c0.3-0.7,0.5-1.5,0.4-2.3L96.4,42z"/>
		<path id="path20" inkscape:connector-curvature="0" class="st0" d="M105.4,43.7v2.5c0,0.5-0.1,1-0.4,1.4c-0.3,0.3-0.7,0.5-1.1,0.5
			c-0.4,0-0.8-0.2-1.1-0.5c-0.3-0.4-0.5-0.9-0.4-1.4v-8.4c0-1.3,0.5-2,1.5-2c0.4,0,0.8,0.1,1.1,0.5c0.3,0.4,0.4,0.9,0.4,1.4
			c0.3-0.5,0.7-1,1.1-1.4c0.4-0.3,1-0.5,1.5-0.5c0.6,0,1.3,0.2,1.8,0.5c0.5,0.2,0.9,0.7,0.9,1.3c0,0.3-0.1,0.7-0.4,0.9
			c-0.2,0.2-0.5,0.4-0.8,0.4c-0.3,0-0.5-0.1-0.8-0.2c-0.4-0.1-0.7-0.2-1.1-0.2c-0.4,0-0.8,0.1-1.1,0.3c-0.3,0.3-0.5,0.6-0.7,1
			c-0.2,0.5-0.3,1.1-0.3,1.6C105.5,42,105.4,42.8,105.4,43.7z"/>
		<path id="path22" inkscape:connector-curvature="0" class="st0" d="M121.6,44.1c0.1,1.6-0.9,3-2.4,3.5c-0.9,0.3-1.9,0.5-2.9,0.5
			c-1,0-1.9-0.1-2.8-0.5c-0.7-0.3-1.3-0.7-1.7-1.2c-0.3-0.4-0.5-1-0.6-1.5c0-0.3,0.1-0.6,0.3-0.8c0.2-0.2,0.6-0.4,0.9-0.3
			c0.3,0,0.5,0.1,0.7,0.2c0.2,0.2,0.4,0.4,0.5,0.7c0.3,0.5,0.7,0.9,1.1,1.2c0.5,0.3,1.2,0.4,1.8,0.4c0.5,0,1-0.1,1.5-0.4
			c0.3-0.2,0.6-0.5,0.6-0.9c0-0.5-0.2-0.9-0.6-1.2c-0.6-0.3-1.3-0.6-2-0.7c-0.9-0.2-1.7-0.5-2.6-0.8c-0.6-0.2-1.1-0.6-1.6-1.1
			c-0.4-0.5-0.6-1.1-0.6-1.7c0-0.6,0.2-1.2,0.5-1.7c0.4-0.6,1-1,1.6-1.3c0.8-0.3,1.7-0.5,2.6-0.5c0.7,0,1.4,0.1,2.1,0.2
			c0.6,0.1,1.1,0.4,1.6,0.7c0.4,0.2,0.7,0.5,1,0.9c0.2,0.3,0.3,0.6,0.3,1c0,0.3-0.1,0.6-0.3,0.8c-0.3,0.2-0.6,0.4-1,0.3
			c-0.3,0-0.6-0.1-0.8-0.3c-0.3-0.2-0.5-0.5-0.8-0.8c-0.2-0.3-0.5-0.5-0.8-0.7c-0.4-0.2-0.8-0.3-1.3-0.3c-0.5,0-1,0.1-1.4,0.3
			c-0.3,0.2-0.5,0.5-0.5,0.9c0,0.3,0.1,0.6,0.4,0.8c0.3,0.2,0.7,0.4,1.1,0.5c0.5,0.1,1.1,0.3,1.9,0.5c0.8,0.2,1.6,0.5,2.3,0.8
			c0.5,0.3,1,0.7,1.3,1.1C121.4,43.1,121.6,43.6,121.6,44.1z"/>
	</g>
	<g id="moustache" transform="matrix(0.84317708,0,0,0.84317708,9.7351148,11.254639)">
		<path id="Path-2" inkscape:connector-curvature="0" class="st0" d="M27.5,72.2c0.7-0.6,1.3-1.4,1.6-2.4c0.5-1.4-0.2-3-1.6-3.6
			c-4.6-2.3-7.6,1.8-8,2.8s-1.2,2.5-0.7,6c0.5,3.5,2.2,6.7,7.5,8c5.1,1.2,10.4,0.6,15-1.8c4.7-2.2,13.4-6.1,15.6-6.5
			c1.4-0.4,2.9-0.5,4.4-0.6v-5.3c-2.4-4.2-7-6.7-11.8-6.2c-8.4,0.7-11.8,5-13.8,6.9s-5.9,6.2-8.4,5.5s-3.3-3.9-2.4-4.9
			c0.9-1,1.6-0.8,2.2,0C27.4,70.7,27.6,71.4,27.5,72.2z"/>
		<path id="Path-2-Copy" inkscape:connector-curvature="0" class="st0" d="M94.8,72.2c-0.7-0.6-1.3-1.4-1.6-2.4
			c-0.5-1.4,0.2-3,1.6-3.6c4.6-2.3,7.6,1.8,8,2.8s1.2,2.5,0.7,6s-2.2,6.7-7.5,8c-5.1,1.2-10.4,0.6-15-1.8
			c-4.7-2.2-13.4-6.1-15.6-6.5c-1.4-0.4-2.9-0.5-4.4-0.6v-5.3c2.4-4.2,7-6.7,11.8-6.2c8.4,0.7,11.8,5,13.8,6.9s5.9,6.2,8.4,5.5
			c2.6-0.8,3.3-3.9,2.4-4.9c-0.9-1-1.6-0.8-2.2,0C94.9,70.7,94.7,71.4,94.8,72.2z"/>
	</g>
</g>
</svg>
