<?xml version="1.0" encoding="UTF-8" standalone="no"?>
<!-- Generator: Adobe Illustrator 22.0.0, SVG Export Plug-In . SVG Version: 6.00 Build 0)  -->

<svg
   xmlns:dc="http://purl.org/dc/elements/1.1/"
   xmlns:cc="http://creativecommons.org/ns#"
   xmlns:rdf="http://www.w3.org/1999/02/22-rdf-syntax-ns#"
   xmlns:svg="http://www.w3.org/2000/svg"
   xmlns="http://www.w3.org/2000/svg"
   xmlns:sodipodi="http://sodipodi.sourceforge.net/DTD/sodipodi-0.dtd"
   xmlns:inkscape="http://www.inkscape.org/namespaces/inkscape"
   version="1.1"
   id="Warstwa_1"
   x="0px"
   y="0px"
   viewBox="0 0 668.47861 119.61177"
   xml:space="preserve"
   sodipodi:docname="highcharts.svg"
   width="668.47858"
   height="119.61178"
   inkscape:version="0.92.3 (d244b95, 2018-08-02)"><metadata
   id="metadata4000"><rdf:RDF><cc:Work
       rdf:about=""><dc:format>image/svg+xml</dc:format><dc:type
         rdf:resource="http://purl.org/dc/dcmitype/StillImage" /></cc:Work></rdf:RDF></metadata><defs
   id="defs3998" /><sodipodi:namedview
   pagecolor="#ffffff"
   bordercolor="#666666"
   borderopacity="1"
   objecttolerance="10"
   gridtolerance="10"
   guidetolerance="10"
   inkscape:pageopacity="0"
   inkscape:pageshadow="2"
   inkscape:window-width="1129"
   inkscape:window-height="956"
   id="namedview3996"
   showgrid="false"
   inkscape:zoom="0.54706662"
   inkscape:cx="262.04999"
   inkscape:cy="80.211778"
   inkscape:window-x="0"
   inkscape:window-y="0"
   inkscape:window-maximized="0"
   inkscape:current-layer="Warstwa_1" />
<style
   type="text/css"
   id="style3957">
	.st0{fill:#DDDDDD;}
	.st1{fill:#8087E8;}
	.st2{fill:#30426B;}
	.st3{fill:#6699A1;}
	.st4{fill:#78758C;}
	.st5{fill:#A3EDBA;}
</style>
<g
   id="g3979"
   transform="matrix(1.2711135,0,0,1.2711135,-3.8133405,-17.795589)">
	<path
   class="st0"
   d="m 147.2,71.1 h -24.8 v 14.3 c 0,1.6 -1.2,2.7 -2.7,2.7 -1.6,0 -2.7,-1.2 -2.7,-2.7 V 53.6 c 0,-1.6 1.2,-2.7 2.7,-2.7 1.6,0 2.7,1.2 2.7,2.7 v 12.3 h 24.8 V 53.6 c 0,-1.6 1.2,-2.7 2.7,-2.7 1.6,0 2.7,1.2 2.7,2.7 v 31.8 c 0,1.6 -1.2,2.7 -2.7,2.7 -1.6,0 -2.7,-1.2 -2.7,-2.7 z"
   id="path3959"
   inkscape:connector-curvature="0"
   style="fill:#dddddd" />
	<path
   class="st0"
   d="m 174.1,85.4 c 0,1.6 -1.2,2.7 -2.7,2.7 -1.5,0 -2.7,-1.2 -2.7,-2.7 V 53.6 c 0,-1.6 1.2,-2.7 2.7,-2.7 1.5,0 2.7,1.2 2.7,2.7 z"
   id="path3961"
   inkscape:connector-curvature="0"
   style="fill:#dddddd" />
	<path
   class="st0"
   d="m 213.7,72 c 0,-1.6 1.2,-2.6 2.7,-2.6 1.6,0 2.7,1.2 2.7,2.7 v 8.6 c 0,0.6 -0.4,1.6 -0.9,2.2 -3.5,3.5 -8,5.4 -13.4,5.4 -10.5,0 -18.8,-8.4 -18.8,-18.8 0,-10.5 8.4,-18.8 18.8,-18.8 5.3,0 9.9,2.1 13.4,5.4 1,1 1,2.7 0,3.8 -1,1 -2.9,1.2 -3.9,0.1 -2.5,-2.5 -5.7,-4 -9.5,-4 -7.4,0 -13.5,6.1 -13.5,13.5 0,7.4 6.1,13.5 13.5,13.5 3.5,0 6.5,-1.2 8.8,-3.2 z"
   id="path3963"
   inkscape:connector-curvature="0"
   style="fill:#dddddd" />
	<path
   class="st0"
   d="m 263.2,71.1 h -24.8 v 14.3 c 0,1.6 -1.2,2.7 -2.7,2.7 -1.6,0 -2.7,-1.2 -2.7,-2.7 V 53.6 c 0,-1.6 1.2,-2.7 2.7,-2.7 1.6,0 2.7,1.2 2.7,2.7 v 12.3 h 24.8 V 53.6 c 0,-1.6 1.2,-2.7 2.7,-2.7 1.5,0 2.7,1.2 2.7,2.7 v 31.8 c 0,1.6 -1.2,2.7 -2.7,2.7 -1.6,0 -2.7,-1.2 -2.7,-2.7 z"
   id="path3965"
   inkscape:connector-curvature="0"
   style="fill:#dddddd" />
	<path
   class="st0"
   d="m 299.5,88.4 c -10.5,0 -18.8,-8.4 -18.8,-18.8 0,-10.5 8.4,-18.8 18.8,-18.8 5.3,0 9.9,2.1 13.4,5.5 1,1 1,2.7 0,3.8 -1,1.1 -2.9,1.2 -3.9,0.1 -2.5,-2.5 -5.7,-4 -9.5,-4 -7.4,0 -13.5,6.1 -13.5,13.5 0,7.4 6.1,13.5 13.5,13.5 3.8,0 7.1,-1.4 9.6,-3.9 1,-1 2.7,-1 3.8,0 1.1,1 1,2.7 0,3.8 -3.6,3.2 -8.3,5.3 -13.4,5.3 z"
   id="path3967"
   inkscape:connector-curvature="0"
   style="fill:#dddddd" />
	<path
   class="st0"
   d="m 355.6,71.1 h -24.8 v 14.3 c 0,1.6 -1.2,2.7 -2.7,2.7 -1.5,0 -2.7,-1.2 -2.7,-2.7 V 53.6 c 0,-1.6 1.2,-2.7 2.7,-2.7 1.5,0 2.7,1.2 2.7,2.7 v 12.3 h 24.8 V 53.6 c 0,-1.6 1.2,-2.7 2.7,-2.7 1.5,0 2.7,1.2 2.7,2.7 v 31.8 c 0,1.6 -1.2,2.7 -2.7,2.7 -1.5,0 -2.7,-1.2 -2.7,-2.7 z"
   id="path3969"
   inkscape:connector-curvature="0"
   style="fill:#dddddd" />
	<path
   class="st0"
   d="m 395.2,53.3 15.3,30.1 c 0.4,0.6 0.6,1.6 0.6,2.2 0,1.6 -0.9,2.3 -2.5,2.3 -1,0 -2.2,-0.3 -2.9,-1.8 l -4.8,-9.3 h -19.7 l -4.7,9.3 c -0.8,1.6 -1.8,1.8 -2.9,1.8 -1.6,0 -2.5,-0.9 -2.5,-2.3 0,-0.8 0.3,-1.6 0.6,-2.2 L 387,53.3 c 0.9,-2.1 2.9,-2.3 4,-2.3 1.4,0 3.3,0.2 4.2,2.3 z m -11.3,18.3 h 14.5 l -7.3,-14.5 z"
   id="path3971"
   inkscape:connector-curvature="0"
   style="fill:#dddddd" />
	<path
   class="st0"
   d="m 441,51.1 c 6.5,0 11.8,4.8 11.8,11.2 0,5.7 -4.2,10 -9.5,11 l 9.9,10.4 c 0.9,0.9 1.3,2.7 0.3,3.6 -1,1 -3.1,0.8 -4.2,-0.4 L 436.6,73.5 h -9.5 v 11.8 c 0,1.6 -1.2,2.6 -2.7,2.6 -1.5,0 -2.7,-1.2 -2.7,-2.7 V 53.8 c 0,-1.6 1.2,-2.7 2.7,-2.7 -0.2,0 16.6,0 16.6,0 z m -14.1,5.2 V 68.4 H 441 c 3.8,0 6.4,-2.6 6.4,-6.1 0,-3.5 -2.6,-6.1 -6.4,-6.1 z"
   id="path3973"
   inkscape:connector-curvature="0"
   style="fill:#dddddd" />
	<path
   class="st0"
   d="m 477.2,56.3 h -13.5 c -1.6,0 -2.7,-1 -2.7,-2.6 0,-1.6 1.2,-2.6 2.7,-2.6 H 496 c 1.6,0 2.7,1 2.7,2.6 0,1.6 -1.2,2.6 -2.7,2.6 h -13.5 v 29.1 c 0,1.6 -1.2,2.7 -2.7,2.7 -1.5,0 -2.7,-1.2 -2.7,-2.7 V 56.3 c 0,0 0.1,0 0.1,0 z"
   id="path3975"
   inkscape:connector-curvature="0"
   style="fill:#dddddd" />
	<path
   class="st0"
   d="m 511.7,65.6 c 0,-13.5 8.3,-15.1 14.5,-15.1 1.6,0 2.7,1.2 2.7,2.7 0,1.6 -1.2,2.7 -2.7,2.7 -5.1,0 -9.2,1 -9.2,9.7 v 7.5 c 0,13.5 -8.3,15.1 -14.5,15.1 -1.6,0 -2.7,-1.2 -2.7,-2.7 0,-1.5 1.2,-2.7 2.7,-2.7 5.1,0 9.2,-1 9.2,-9.7 z"
   id="path3977"
   inkscape:connector-curvature="0"
   style="fill:#dddddd" />
</g>
<polygon
   class="st1"
   points="75.7,81.2 102.1,70.1 63.5,14 47.1,52.2 25.7,102.4 "
   id="polygon3981"
   transform="matrix(1.2711135,0,0,1.2711135,-3.8133405,-17.795589)"
   style="fill:#8087e8" />
<polygon
   class="st2"
   points="71.9,60.2 75.7,81.2 102.1,70.1 "
   id="polygon3983"
   transform="matrix(1.2711135,0,0,1.2711135,-3.8133405,-17.795589)"
   style="fill:#30426b" />
<polygon
   class="st3"
   points="63.5,14 71.9,60.2 102.1,70.1 "
   id="polygon3985"
   transform="matrix(1.2711135,0,0,1.2711135,-3.8133405,-17.795589)"
   style="fill:#6699a1" />
<polygon
   class="st4"
   points="25.7,102.4 75.7,81.2 71.9,60.2 102.1,70.1 47.1,52.2 "
   id="polygon3987"
   transform="matrix(1.2711135,0,0,1.2711135,-3.8133405,-17.795589)"
   style="fill:#78758c" />
<polygon
   class="st5"
   points="25.7,102.4 47.1,52.2 3,37.7 "
   id="polygon3989"
   transform="matrix(1.2711135,0,0,1.2711135,-3.8133405,-17.795589)"
   style="fill:#a3edba" />
<polygon
   class="st3"
   points="75.7,81.2 80.5,108.1 102.1,70.1 "
   id="polygon3991"
   transform="matrix(1.2711135,0,0,1.2711135,-3.8133405,-17.795589)"
   style="fill:#6699a1" />
<polygon
   class="st1"
   points="63.5,14 47.1,52.2 71.9,60.2 "
   id="polygon3993"
   transform="matrix(1.2711135,0,0,1.2711135,-3.8133405,-17.795589)"
   style="fill:#8087e8" />
</svg>