<?xml version="1.0" encoding="utf-8"?>
<!-- Generator: Adobe Illustrator 22.0.0, SVG Export Plug-In . SVG Version: 6.00 Build 0)  -->
<svg version="1.1"
	 id="svg3163" inkscape:version="0.48.4 r9939" sodipodi:docname="jquery-horizontal.svg" xmlns:cc="http://creativecommons.org/ns#" xmlns:dc="http://purl.org/dc/elements/1.1/" xmlns:inkscape="http://www.inkscape.org/namespaces/inkscape" xmlns:rdf="http://www.w3.org/1999/02/22-rdf-syntax-ns#" xmlns:sodipodi="http://sodipodi.sourceforge.net/DTD/sodipodi-0.dtd" xmlns:svg="http://www.w3.org/2000/svg"
	 xmlns="http://www.w3.org/2000/svg" xmlns:xlink="http://www.w3.org/1999/xlink" x="0px" y="0px" viewBox="0 0 309.5 97"
	 style="enable-background:new 0 0 309.5 97;" xml:space="preserve">
<style type="text/css">
	.st0{fill:#EEEEEE;}
	.st1{fill:#0868AC;}
</style>
<sodipodi:namedview  bordercolor="#666666" borderopacity="1" gridtolerance="10" guidetolerance="10" id="namedview3297" inkscape:current-layer="svg3163" inkscape:cx="-47.63702" inkscape:cy="21.761566" inkscape:pageopacity="0" inkscape:pageshadow="2" inkscape:window-height="999" inkscape:window-maximized="0" inkscape:window-width="1380" inkscape:window-x="75" inkscape:window-y="34" inkscape:zoom="6.4594676" objecttolerance="10" pagecolor="#000000" showgrid="false">
	</sodipodi:namedview>
<g id="g5245" transform="matrix(2.4587836,0,0,2.4587836,-7.8122026,-49.997353)">
	<path id="path3165" inkscape:connector-curvature="0" class="st0" d="M56.4,43.9L56.4,43.9l-0.7,2.6L56.4,43.9L56.4,43.9z"/>
	<path id="path3167" inkscape:connector-curvature="0" class="st0" d="M60.2,49.6h-0.8H60.2z"/>
	<path id="path3169" inkscape:connector-curvature="0" class="st0" d="M59.9,53.5L59.9,53.5H55H59.9L59.9,53.5z"/>
	<path id="path3171" inkscape:connector-curvature="0" class="st0" d="M61,49.6h-0.8H61z"/>
	<path id="path3173" inkscape:connector-curvature="0" class="st0" d="M60.4,53.2l0.8-3.2L60.4,53.2L60.4,53.2L60.4,53.2z"/>
	<path id="path3175" inkscape:connector-curvature="0" class="st0" d="M78.3,38.3l-1.6,7.4C76.7,45.7,78.3,38.3,78.3,38.3z"/>
	<path id="path3177" inkscape:connector-curvature="0" class="st0" d="M74.2,38.3L73,43.9L74.2,38.3L74.2,38.3z"/>
	<path id="path3179" inkscape:connector-curvature="0" class="st0" d="M78,37.9h-3.4c-0.2,0-0.4,0.2-0.4,0.3L73,43.8l-1.2,5.6
		c0,0.2-0.2,0.3-0.4,0.3h-2.1H69c-2.4,0-2.1-1.6-1.6-3.9c0,0,0,0,0-0.1l0.1-0.3c0,0,0,0,0-0.1l0.1-0.6l0.1-0.6
		c0-0.2,0.1-0.5,0.1-0.6l0.5-2.7l0.5-2.7c0-0.2-0.1-0.3-0.3-0.3H65c-0.2,0-0.4,0.2-0.4,0.3l-0.7,3.5l-0.7,3.5l0,0l-0.1,0.3
		c-0.9,3.9-0.6,7.7,4,7.8c0.1,0,0.1,0,0.1,0h7.3c0.2,0,0.4-0.2,0.4-0.3l1.6-7.4l1.6-7.4C78.4,38.1,78.2,37.9,78,37.9L78,37.9z"/>
	<path id="path3181" inkscape:connector-curvature="0" class="st0" d="M91.5,49.8c0.2,0,0.3,0.2,0.3,0.3l-0.3,1.6"/>
	<path id="path3183" inkscape:connector-curvature="0" class="st0" d="M91.1,53.3l0.3-1.6L91.1,53.3L91.1,53.3L91.1,53.3z"/>
	<path id="path3185" inkscape:connector-curvature="0" class="st0" d="M90.7,53.6L90.7,53.6c-1,0-4,0-6.2,0
		C87.2,53.7,90.7,53.6,90.7,53.6L90.7,53.6z"/>
	<path id="path3187" inkscape:connector-curvature="0" class="st0" d="M82.5,47.7c0-0.2,0.2-0.5,0.4-0.5h-0.4
		C82.3,49.1,82.5,47.7,82.5,47.7L82.5,47.7z"/>
	<path id="path3189" inkscape:connector-curvature="0" class="st0" d="M84.8,53.7L84.8,53.7L84.8,53.7z"/>
	<path id="path3191" inkscape:connector-curvature="0" class="st0" d="M91.5,49.8c0.2,0,0.3,0.2,0.3,0.3l-0.3,1.6L91.4,52"/>
	<path id="path3193" inkscape:connector-curvature="0" class="st0" d="M86.4,53.7L86.4,53.7L86.4,53.7z"/>
	<path id="path3195" inkscape:connector-curvature="0" class="st0" d="M85.6,53.7L85.6,53.7L85.6,53.7z"/>
	<path id="path3197" inkscape:connector-curvature="0" class="st0" d="M85.3,53.7L85.3,53.7L85.3,53.7z"/>
	<path id="path3199" inkscape:connector-curvature="0" class="st0" d="M85.1,53.7L85.1,53.7L85.1,53.7z"/>
	<path id="path3201" inkscape:connector-curvature="0" class="st0" d="M85.5,53.7c-0.1,0-0.1,0-0.2,0C85.4,53.7,85.5,53.7,85.5,53.7
		z"/>
	<path id="path3203" inkscape:connector-curvature="0" class="st0" d="M86.4,53.7c-0.3,0-0.5,0-0.8,0C85.9,53.7,86.1,53.7,86.4,53.7
		z"/>
	<path id="path3205" inkscape:connector-curvature="0" class="st0" d="M90.7,53.6L90.7,53.6c-0.7,0-2.5,0-4.3,0
		C88.2,53.7,90,53.6,90.7,53.6z"/>
	<path id="path3207" inkscape:connector-curvature="0" class="st0" d="M91.1,53.3l0.3-1.3L91.1,53.3L91.1,53.3L91.1,53.3z"/>
	<path id="path3209" inkscape:connector-curvature="0" class="st0" d="M85.3,53.7h-0.2H85.3z"/>
	<path id="path3211" inkscape:connector-curvature="0" class="st0" d="M84.7,53.7h-0.2H84.7z"/>
	<path id="path3213" inkscape:connector-curvature="0" class="st0" d="M85,53.7h-0.2H85z"/>
	<path id="path3215" inkscape:connector-curvature="0" class="st0" d="M35.5,47.7l0.5-2.3l-0.5,2.7l-0.6,2.7l0.5-2.4
		C35.4,48.2,35.5,47.9,35.5,47.7L35.5,47.7z"/>
	<path id="path3217" inkscape:connector-curvature="0" class="st0" d="M41.8,37.9h-3.7c-0.2,0-0.4,0.1-0.4,0.3l-0.4,1.6l-0.4,1.6
		c0,0.2,0.1,0.3,0.3,0.3h3.7c0.2,0,0.4-0.1,0.4-0.3l0.3-1.6l0.3-1.6l0,0C42.1,38.1,42,37.9,41.8,37.9L41.8,37.9z"/>
	<path id="path3219" inkscape:connector-curvature="0" class="st0" d="M41,43.1L41,43.1l-1.1,5L41,43.1z"/>
	<path id="path3221" inkscape:connector-curvature="0" class="st0" d="M30.2,59.8c0,0,1.9,0,3.1,0C32.4,59.8,30.9,59.8,30.2,59.8
		L30.2,59.8L30.2,59.8z"/>
	<path id="path3223" inkscape:connector-curvature="0" class="st0" d="M36.6,43.1l-0.5,2.3C36.1,45.4,36.6,43.1,36.6,43.1z"/>
	<path id="path3225" inkscape:connector-curvature="0" class="st0" d="M40.8,42.7h-3.7c-0.2,0-0.4,0.1-0.4,0.3l-0.5,2.3l-0.7,2.4
		c0,0.2-0.1,0.5-0.1,0.7l-0.5,2.4l-0.5,2.4c0,0.2-0.1,0.5-0.2,0.7c0,0-0.7,2.1-1.9,2.1h-0.1c-0.6,0-1,0-1,0l0,0
		c-0.2,0-0.4,0.1-0.4,0.3l-0.4,1.6L30,59.5c0,0.2,0.1,0.3,0.3,0.3c0.7,0,2.2,0,3.1,0c2.9,0,4.5-1.6,5.5-6.3l1.2-5.4l1.1-5
		C41.1,42.9,40.9,42.7,40.8,42.7L40.8,42.7z"/>
	<path id="path3227" inkscape:connector-curvature="0" class="st0" d="M93.9,53.5c-0.2,0-0.3-0.2-0.3-0.3L96.5,40"/>
	<path id="path3229" inkscape:connector-curvature="0" class="st0" d="M97.8,53.1l1.1-5.6L97.8,53.1z"/>
	<path id="path3231" inkscape:connector-curvature="0" class="st0" d="M93.7,53.3c0-0.1,0-0.3,0-0.5l1.3-6.3l-1.4,6.6
		c0,0.2,0.1,0.3,0.3,0.3h0.3C94.1,53.5,93.7,53.4,93.7,53.3L93.7,53.3z"/>
	<path id="path3233" inkscape:connector-curvature="0" class="st0" d="M97.6,53.4c-0.1,0-0.3,0.1-0.5,0.1h0.3c0.2,0,0.4-0.2,0.4-0.3
		l0.1-0.3C97.9,53,97.7,53.4,97.6,53.4L97.6,53.4z"/>
	<path id="path3235" inkscape:connector-curvature="0" class="st0" d="M98.4,50.3l0.5-2.5l0,0L98.4,50.3L98.4,50.3z"/>
	<path id="path3237" inkscape:connector-curvature="0" class="st0" d="M109.5,40.8l0.2,0.6c0,0.2-0.1,0.3-0.3,0.3"/>
	<path id="path3239" inkscape:connector-curvature="0" class="st0" d="M97.9,52.8l0.5-2.5L97.9,52.8z"/>
	<path id="path3241" inkscape:connector-curvature="0" class="st0" d="M109.4,40.2l0.2,0.7L109.4,40.2z"/>
	<path id="path3243" inkscape:connector-curvature="0" class="st0" d="M98.9,47.8c0-0.2,0.1-0.5,0.1-0.7l0.5-2.5l-0.6,2.8V47.8
		L98.9,47.8z"/>
	<path id="path3245" inkscape:connector-curvature="0" class="st0" d="M96.5,39.7c0,0.2-0.1,0.4-0.1,0.5l-1.3,6.3l1.4-6.5V39.7
		L96.5,39.7z"/>
	<path id="path3247" inkscape:connector-curvature="0" class="st0" d="M109.7,41.5l-0.2-0.6l-0.2-0.7l-0.1-0.3
		c-0.3-1.2-1.2-1.9-3.1-1.9h-3h-2.8h-0.2h-2.9c-0.2,0-0.4,0.1-0.4,0.3l0,0L96.7,39l-0.2,0.8V40l-1.4,6.6l-1.3,6.3
		c0,0.2-0.1,0.4,0,0.5c0,0.1,0.4,0.2,0.6,0.2h2.8c0.2,0,0.4,0,0.5-0.1c0.1,0,0.3-0.4,0.3-0.6l0.5-2.5l0.5-2.5l0,0l0.1-0.3l0.6-2.8
		l0.5-2.5c0-0.2,0.2-0.3,0.4-0.3h8.9C109.6,41.8,109.7,41.7,109.7,41.5L109.7,41.5z"/>
	<path id="path3249" inkscape:connector-curvature="0" class="st0" d="M121.1,35.7c-0.2,0-0.5,0-0.7,0h-2.8c-0.2,0-0.4,0.1-0.5,0.3
		l-6.3,9.2c-0.1,0.2-0.2,0.1-0.3-0.1l-0.5-2c0-0.2-0.2-0.3-0.4-0.3h-4c-0.2,0-0.3,0.1-0.2,0.3l1.8,6.3c0.1,0.2,0.1,0.5,0,0.7
		l-0.8,3.1c0,0.2,0.1,0.3,0.3,0.3h4c0.2,0,0.4-0.1,0.4-0.3l0.8-3.1c0-0.2,0.2-0.5,0.3-0.6L122.3,36c0.1-0.1,0.1-0.3-0.1-0.3H121.1
		L121.1,35.7z"/>
	<path id="path3251" inkscape:connector-curvature="0" class="st0" d="M89,43.6L89,43.6c0,0.2-0.2,0.3-0.4,0.3h-5.1
		c-0.2,0-0.3-0.1-0.2-0.3l0,0l0,0l0,0c0,0,0,0,0-0.1c0.5-1.3,1.5-2.2,3.4-2.2C88.7,41.4,89.1,42.5,89,43.6L89,43.6z M87.5,37.7
		c-6.6,0-8.1,4-9,8c-0.9,4.1-0.8,7.9,6,7.9h0.2c0,0,0,0,0.1,0H85h0.1h0.2h0.1c0.1,0,0.1,0,0.2,0l0,0c0.3,0,0.5,0,0.8,0l0,0
		c1.8,0,3.6,0,4.3,0c0.2,0,0.4-0.2,0.4-0.3l0.3-1.3l0.1-0.3l0.3-1.6c0-0.2-0.1-0.3-0.3-0.3h-6.1c-2.4,0-3.2-0.6-2.9-2.5h9.8l0,0l0,0
		c0.2,0,0.3-0.1,0.4-0.3v-0.1l0,0C94.1,41.4,93.7,37.7,87.5,37.7L87.5,37.7z"/>
	<path id="path3253" inkscape:connector-curvature="0" class="st0" d="M56.5,43.6l-0.1,0.3l0,0l-0.7,2.6L55,49.1
		c-0.1,0.2-0.2,0.3-0.4,0.3h-4.1c-3,0-3.7-2.3-3-5.7c0.7-3.5,2.1-5.7,5.1-5.9C56.6,37.6,57.4,40.4,56.5,43.6L56.5,43.6z M59.1,49.3
		c0,0,1.8-4.5,2.3-7.1c0.6-3.5-1.2-8.5-7.8-8.5s-9.5,4.8-10.6,10c-1.1,5.2,0.3,9.8,7,9.8h5.2h4.9c0.2,0,0.4-0.2,0.4-0.3l0.8-3.2
		c0-0.2-0.1-0.3-0.3-0.3h-0.8h-0.8C59.2,49.6,59.1,49.5,59.1,49.3L59.1,49.3L59.1,49.3z"/>
	<path id="path3255" inkscape:connector-curvature="0" class="st0" d="M92,46.3c0,0.1-0.1,0.2-0.2,0.2s-0.2-0.1-0.2-0.2
		c0-0.1,0.1-0.2,0.2-0.2S92,46.2,92,46.3z"/>
	<path id="path3257" inkscape:connector-curvature="0" class="st1" d="M8.4,40.5c-1.8,2.6-1.6,6.1-0.2,8.9c0,0.1,0.1,0.1,0.1,0.2
		c0,0,0,0.1,0.1,0.1c0,0,0,0,0,0.1c0,0,0,0.1,0.1,0.1c0,0.1,0.1,0.2,0.1,0.2l0.1,0.1c0.1,0.1,0.1,0.2,0.2,0.2c0,0,0,0.1,0.1,0.1
		c0.1,0.1,0.1,0.2,0.2,0.3l0,0c0,0,0,0,0,0.1c0.1,0.1,0.1,0.2,0.2,0.3l0.1,0.1c0.1,0.1,0.1,0.2,0.2,0.2c0,0,0,0.1,0.1,0.1
		c0.1,0.1,0.2,0.2,0.3,0.3l0,0l0,0c0.1,0.1,0.2,0.2,0.3,0.3l0.1,0.1c0.1,0.1,0.1,0.1,0.2,0.2l0.1,0.1c0.1,0.1,0.2,0.2,0.3,0.3l0,0
		c0,0,0,0,0.1,0c0.1,0.1,0.2,0.2,0.3,0.2l0.1,0.1c0.1,0.1,0.1,0.1,0.2,0.2l0.1,0.1c0.1,0.1,0.2,0.1,0.2,0.2c0,0,0.1,0,0.1,0.1l0,0
		c0.1,0.1,0.2,0.1,0.2,0.2c0,0,0.1,0,0.1,0.1c0.1,0.1,0.3,0.2,0.4,0.2c0,0,0.1,0,0.1,0.1c0.1,0.1,0.2,0.1,0.3,0.2
		c0.1,0,0.1,0.1,0.2,0.1s0.1,0.1,0.2,0.1l0,0h0.1c0.1,0.1,0.2,0.1,0.3,0.1c0,0,0,0,0.1,0c0.1,0.1,0.2,0.1,0.4,0.2h0.1
		c0.1,0,0.2,0.1,0.4,0.1l0,0c0.1,0,0.3,0.1,0.4,0.1h0.1c0.1,0,0.3,0.1,0.4,0.1c8.9,1.6,11.5-5.3,11.5-5.3c-2.2,2.8-6,3.6-9.7,2.7
		c-0.1,0-0.3-0.1-0.4-0.1h-0.1c-0.1,0-0.3-0.1-0.4-0.1c0,0,0,0-0.1,0s-0.2-0.1-0.3-0.1h-0.1c-0.1,0-0.2-0.1-0.4-0.2c0,0,0,0-0.1,0
		s-0.2-0.1-0.3-0.1h-0.1c-0.1,0-0.2-0.1-0.2-0.1c-0.1,0-0.1-0.1-0.2-0.1c-0.1-0.1-0.2-0.1-0.3-0.2c0,0-0.1,0-0.1-0.1
		c-0.1-0.1-0.3-0.2-0.4-0.2c0,0-0.1,0-0.1-0.1c-0.1-0.1-0.2-0.1-0.3-0.2c0,0-0.1,0-0.1-0.1c-0.1-0.1-0.2-0.1-0.3-0.2l-0.1-0.1
		c-0.1-0.1-0.2-0.1-0.2-0.2l-0.1-0.1c-0.1-0.1-0.2-0.2-0.3-0.2l0,0c-0.1-0.1-0.2-0.2-0.3-0.3l-0.1-0.1c-0.1-0.1-0.1-0.1-0.2-0.2
		l-0.1-0.1c-0.1-0.1-0.2-0.2-0.3-0.3l0,0c-0.1-0.1-0.2-0.2-0.3-0.3c0,0,0-0.1-0.1-0.1c-0.1-0.1-0.1-0.2-0.2-0.2c0,0,0-0.1-0.1-0.1
		c-0.1-0.1-0.2-0.2-0.2-0.3c-2-2.8-2.7-6.6-1.1-9.7"/>
	<path id="path3259" inkscape:connector-curvature="0" class="st1" d="M14.1,38.3c-1.3,1.9-1.3,4.5-0.2,6.5c0.2,0.3,0.4,0.7,0.6,1
		s0.4,0.6,0.7,0.9c0.1,0.1,0.2,0.2,0.3,0.3l0.1,0.1c0.1,0.1,0.2,0.2,0.3,0.3l0,0l0,0c0.1,0.1,0.2,0.2,0.4,0.3c0,0,0.1,0,0.1,0.1
		c0.1,0.1,0.2,0.2,0.4,0.3l0,0c0.1,0,0.1,0.1,0.2,0.1c0,0,0.1,0,0.1,0.1c0.1,0.1,0.2,0.1,0.3,0.2l0,0c0.1,0,0.2,0.1,0.2,0.1h0.1
		c0.1,0,0.1,0.1,0.2,0.1l0,0c0.1,0.1,0.2,0.1,0.4,0.2h0.1c0.1,0,0.2,0.1,0.3,0.1h0.1c0.1,0,0.2,0.1,0.3,0.1h0.1
		c0.1,0,0.3,0.1,0.4,0.1c6.9,1.1,8.4-4.1,8.4-4.1c-1.4,2.1-4.2,3-7.1,2.3c-0.1,0-0.3-0.1-0.4-0.1h-0.1c-0.1,0-0.2-0.1-0.3-0.1H20
		c-0.1,0-0.2-0.1-0.3-0.1h-0.1c-0.1-0.1-0.2-0.1-0.4-0.2c-0.1,0-0.1-0.1-0.2-0.1c0,0-0.1,0-0.1-0.1c-0.1,0-0.2-0.1-0.2-0.1
		s0,0-0.1,0c-0.1-0.1-0.2-0.1-0.3-0.2c0,0-0.1,0-0.1-0.1c-0.1,0-0.1-0.1-0.2-0.1c-0.1-0.1-0.2-0.2-0.4-0.3c0,0-0.1,0-0.1-0.1
		c-1.3-1-2.3-2.4-2.8-4s-0.4-3.5,0.5-5"/>
	<path id="path3261" inkscape:connector-curvature="0" class="st1" d="M18.9,36.6c-0.8,1.2-0.9,2.6-0.3,3.9c0.6,1.3,1.7,2.4,3.1,2.9
		c0.1,0,0.1,0,0.2,0.1c0,0,0,0,0.1,0s0.2,0.1,0.2,0.1c3.8,0.7,4.8-1.9,5.1-2.3c-0.9,1.3-2.4,1.6-4.3,1.2c-0.1,0-0.3-0.1-0.4-0.1
		c-0.2-0.1-0.4-0.1-0.5-0.2c-0.3-0.2-0.6-0.4-0.9-0.6c-1.7-1.3-2.7-3.7-1.6-5.6"/>
</g>
</svg>
