<?xml version="1.0" encoding="utf-8"?>
<!-- Generator: Adobe Illustrator 22.0.0, SVG Export Plug-In . SVG Version: 6.00 Build 0)  -->
<svg version="1.1" id="Layer_1" xmlns:sketch="http://www.bohemiancoding.com/sketch/ns"
	 xmlns="http://www.w3.org/2000/svg" xmlns:xlink="http://www.w3.org/1999/xlink" x="0px" y="0px" viewBox="0 0 1616 674.6"
	 style="enable-background:new 0 0 1616 674.6;" xml:space="preserve">
<style type="text/css">
	.st0{fill:#00D8FF;}
	.st1{fill:none;stroke:#00D8FF;stroke-width:24;}
</style>
<title>react-logo</title>
<desc>Created with Sketch.</desc>
<g id="Page-1" sketch:type="MSPage">
	<g id="logo-_x28_1_x29_" transform="translate(12.000000, 17.000000)" sketch:type="MSLayerGroup">
		
			<ellipse id="Oval" sketch:type="MSShapeGroup" transform="matrix(9.853757e-02 -0.9951 0.9951 9.853757e-02 -161.3199 634.3995)" class="st0" cx="269.5" cy="406.2" rx="50.2" ry="50.2">
		</ellipse>
		<path id="Shape" sketch:type="MSShapeGroup" class="st1" d="M269.5,304.2c67.4,0,129.9,9.7,177.1,25.9
			c56.8,19.6,91.8,49.2,91.8,76.1c0,28-37,59.5-98.1,79.7c-46.2,15.3-106.9,23.3-170.8,23.3c-65.6,0-127.6-7.5-174.3-23.4
			c-59-20.2-94.6-52.1-94.6-79.6c0-26.6,33.4-56.1,89.4-75.6C137.4,314.1,201.5,304.2,269.5,304.2L269.5,304.2z"/>
		<path id="Shape_1_" sketch:type="MSShapeGroup" class="st1" d="M180.7,355.5C214.3,297.2,254,247.8,291.6,215
			c45.4-39.5,88.5-54.9,111.8-41.5c24.2,14,33,61.8,20.1,124.8c-9.8,47.6-33.2,104.2-65.2,159.6c-32.7,56.8-70.3,106.8-107.4,139.3
			c-47,41.1-92.4,55.9-116.2,42.2c-23.1-13.3-31.9-56.9-20.8-115.2C123.3,474.9,146.8,414.4,180.7,355.5L180.7,355.5z"/>
		<path id="Shape_2_" sketch:type="MSShapeGroup" class="st1" d="M180.8,458.1c-33.7-58.3-56.7-117.3-66.3-166.3
			c-11.5-59-3.4-104.1,19.9-117.6c24.2-14,70.1,2.2,118.1,44.9c36.4,32.3,73.7,80.8,105.7,136.2c32.8,56.7,57.5,114.2,67,162.6
			c12.1,61.2,2.3,108-21.5,121.7c-23.1,13.3-65.2-0.8-110.2-39.5C255.6,567.5,214.9,516.9,180.8,458.1L180.8,458.1z"/>
	</g>
	<path id="React" sketch:type="MSShapeGroup" class="st0" d="M895.6,518.6l-68.4-103.4c34.6-3,65.7-28.1,65.7-73.7
		c0-46.7-33.1-76.4-79.4-76.4H711.6v253.5h31.5V417.9h50.5l64.7,100.7H895.6z M809.7,390.1h-66.5v-96.9h66.5
		c30,0,50.5,19.8,50.5,48.3S839.7,390.1,809.7,390.1L809.7,390.1z M1013,523.1c30,0,54.7-9.9,73-28.1l-13.7-18.6
		c-14.4,14.8-35.7,23.2-56.6,23.2c-39.5,0-63.8-28.9-66.1-63.5h148.6v-7.2c0-55.1-32.7-98.4-88.2-98.4c-52.4,0-90.4,42.9-90.4,96.1
		C919.5,484,958.6,523.1,1013,523.1L1013,523.1z M1070,415.2H949.5c1.5-28.1,20.9-61.2,60-61.2C1051.4,354,1069.6,387.9,1070,415.2
		L1070,415.2z M1287.3,518.6V392.4c0-44.5-32.3-61.9-71.1-61.9c-30,0-53.6,9.9-73.3,30.4l13.3,19.8c16.3-17.5,34.2-25.5,56.2-25.5
		c26.6,0,46.4,14.1,46.4,38.8v33.1C1244,410,1223.1,402,1198,402c-31.2,0-64.2,19.4-64.2,60.4c0,39.9,33.1,60.8,64.2,60.8
		c24.7,0,45.6-8.7,60.8-25.5v20.9H1287.3z M1208.3,502.6c-26.6,0-45.2-16.7-45.2-39.9c0-23.6,18.6-40.3,45.2-40.3
		c20.1,0,39.5,7.6,50.5,22.8v34.6C1247.8,495,1228.4,502.6,1208.3,502.6L1208.3,502.6z M1425.3,523.1c33.4,0,53.2-13.7,67.3-31.9
		l-19-17.5c-12.2,16.3-27.7,23.9-46.7,23.9c-39.1,0-63.5-30.4-63.5-71.1s24.3-70.7,63.5-70.7c19,0,34.6,7.2,46.7,23.9l19-17.5
		c-14.1-18.2-33.8-31.9-67.3-31.9c-54.7,0-91.6,41.8-91.6,96.1C1333.7,481.3,1370.6,523.1,1425.3,523.1L1425.3,523.1z M1578.8,523.1
		c16.7,0,27-4.9,34.2-11.8l-8.4-21.3c-3.8,4.2-11.4,7.6-19.4,7.6c-12.5,0-18.6-9.9-18.6-23.6V360h37.2v-25.1h-37.2v-50.2h-28.5v50.2
		h-30.4V360h30.4v120.1C1538.1,507.6,1551.8,523.1,1578.8,523.1L1578.8,523.1z"/>
</g>
</svg>
