<?xml version="1.0" encoding="UTF-8" standalone="no"?>
<!-- Created with Inkscape (http://www.inkscape.org/) -->

<svg
   xmlns:dc="http://purl.org/dc/elements/1.1/"
   xmlns:cc="http://creativecommons.org/ns#"
   xmlns:rdf="http://www.w3.org/1999/02/22-rdf-syntax-ns#"
   xmlns:svg="http://www.w3.org/2000/svg"
   xmlns="http://www.w3.org/2000/svg"
   xmlns:sodipodi="http://sodipodi.sourceforge.net/DTD/sodipodi-0.dtd"
   xmlns:inkscape="http://www.inkscape.org/namespaces/inkscape"
   width="196.09943mm"
   height="161.87836mm"
   viewBox="0 0 196.09943 161.87836"
   version="1.1"
   id="svg3739"
   inkscape:version="0.92.3 (d244b95, 2018-08-02)"
   sodipodi:docname="ts.svg">
  <defs
     id="defs3733" />
  <sodipodi:namedview
     id="base"
     pagecolor="#ffffff"
     bordercolor="#666666"
     borderopacity="1.0"
     inkscape:pageopacity="0.0"
     inkscape:pageshadow="2"
     inkscape:zoom="0.7"
     inkscape:cx="294.98507"
     inkscape:cy="267.94577"
     inkscape:document-units="mm"
     inkscape:current-layer="layer1"
     showgrid="false"
     inkscape:window-width="1920"
     inkscape:window-height="1030"
     inkscape:window-x="0"
     inkscape:window-y="0"
     inkscape:window-maximized="1" />
  <metadata
     id="metadata3736">
    <rdf:RDF>
      <cc:Work
         rdf:about="">
        <dc:format>image/svg+xml</dc:format>
        <dc:type
           rdf:resource="http://purl.org/dc/dcmitype/StillImage" />
        <dc:title />
      </cc:Work>
    </rdf:RDF>
  </metadata>
  <g
     inkscape:label="Layer 1"
     inkscape:groupmode="layer"
     id="layer1"
     transform="translate(-7.4334247,-12.019126)">
    <path
       d="m 37.642227,133.8849 h -9.263794 v 28.47749 H 24.615619 V 133.8849 h -9.244694 v -3.3804 h 22.271302 z m 14.618324,5.7309 -10.543527,26.38606 c -1.878226,4.70728 -4.520478,7.06408 -7.926754,7.06408 -0.955029,0 -1.750888,-0.0948 -2.393944,-0.29067 v -3.26667 c 0.789493,0.26541 1.515321,0.39808 2.171106,0.39808 1.85276,0 3.24073,-1.09311 4.163932,-3.28562 l 1.833653,-4.30921 -8.951813,-22.69606 h 4.074795 l 6.20133,17.50224 c 0.07644,0.22117 0.22919,0.80245 0.471173,1.73128 h 0.133689 c 0.07644,-0.35384 0.222857,-0.91619 0.445715,-1.68704 l 6.513309,-17.54648 z m 6.003957,19.46097 h -0.08911 v 13.74907 H 54.501689 V 139.6158 h 3.673678 v 3.9996 h 0.08911 c 1.808191,-3.02026 4.444072,-4.53037 7.926747,-4.53037 2.954228,0 5.259028,1.01727 6.914416,3.05183 1.655387,2.03455 2.48308,4.76416 2.48308,8.18878 0,3.80375 -0.929566,6.85559 -2.795055,9.14288 -1.865495,2.2873 -4.418606,3.43096 -7.652972,3.43096 -2.973328,-0.007 -5.265399,-1.27635 -6.876216,-3.82271 z m -0.08911,-9.17446 v 3.1782 c 0,1.88292 0.617591,3.47518 1.846396,4.78943 1.228803,1.31426 2.795054,1.96506 4.69238,1.96506 2.222035,0 3.966558,-0.84668 5.227198,-2.53371 1.260634,-1.68705 1.890954,-4.03753 1.890954,-7.03884 0,-2.5337 -0.592132,-4.51772 -1.769988,-5.95202 -1.177868,-1.43429 -2.775948,-2.1546 -4.78788,-2.1546 -2.1329,0 -3.851957,0.73926 -5.150792,2.21147 -1.298848,1.46589 -1.948268,3.31091 -1.948268,5.53501 z m 39.684683,1.99664 H 81.675508 c 0.05712,2.53373 0.744922,4.48614 2.056499,5.86357 1.311578,1.37744 3.119766,2.06615 5.418202,2.06615 2.578581,0 4.953425,-0.84667 7.118159,-2.5337 v 3.4183 c -2.011932,1.45326 -4.67965,2.17988 -7.990418,2.17988 -3.240736,0 -5.781118,-1.02991 -7.633872,-3.09606 -1.85276,-2.06617 -2.775954,-4.97267 -2.775954,-8.71954 0,-3.53836 1.012331,-6.42592 3.030627,-8.65003 2.024663,-2.23043 4.533208,-3.34249 7.532,-3.34249 2.9988,0 5.316336,0.96041 6.958987,2.88755 1.642652,1.92716 2.463981,4.59988 2.463981,8.0182 v 1.90817 z m -3.762847,-3.08974 c -0.01242,-2.10407 -0.528423,-3.74055 -1.534414,-4.90947 -1.005968,-1.16893 -2.406674,-1.75655 -4.195762,-1.75655 -1.731789,0 -3.202538,0.6129 -4.412242,1.84501 -1.209704,1.2321 -1.954625,2.837 -2.241135,4.82101 z m 6.971726,12.26421 v -4.39768 c 0.46477,0.44226 1.01869,0.84668 1.66811,1.20052 0.64944,0.35383 1.33069,0.65713 2.05014,0.89723 0.71946,0.24009 1.43891,0.43599 2.15838,0.56866 0.72581,0.13267 1.39434,0.20218 2.00555,0.20218 2.1138,0 3.69916,-0.42335 4.74332,-1.27634 1.04417,-0.853 1.56626,-2.07879 1.56626,-3.67736 0,-0.85933 -0.1719,-1.60491 -0.5221,-2.24309 -0.35014,-0.63816 -0.82769,-1.21947 -1.44527,-1.7439 -0.6176,-0.5244 -1.34342,-1.02991 -2.18384,-1.51012 -0.84042,-0.48021 -1.74451,-0.98568 -2.71228,-1.52276 -1.02507,-0.56236 -1.98011,-1.131 -2.86508,-1.71231 -0.88501,-0.575 -1.66176,-1.21315 -2.31119,-1.9082 -0.65578,-0.69501 -1.17151,-1.48483 -1.54715,-2.36311 -0.37568,-0.87827 -0.56028,-1.91451 -0.56028,-3.09607 0,-1.45326 0.29283,-2.71063 0.87862,-3.78478 0.58574,-1.07416 1.35614,-1.95874 2.31755,-2.65378 0.95503,-0.69502 2.04377,-1.21315 3.26621,-1.55435 1.22242,-0.3412 2.47034,-0.51177 3.73733,-0.51177 2.89693,0 5.00436,0.3791 6.32867,1.131 v 4.19549 c -1.73178,-1.30162 -3.96019,-1.95242 -6.67884,-1.95242 -0.75127,0 -1.50258,0.0884 -2.25386,0.25273 -0.7513,0.17063 -1.41982,0.44861 -2.00557,0.83404 -0.58573,0.38544 -1.06326,0.87826 -1.43254,1.49116 -0.36929,0.60655 -0.55395,1.34584 -0.55395,2.22412 0,0.81509 0.14009,1.51644 0.4202,2.11038 0.28016,0.59391 0.69398,1.131 1.24152,1.62385 0.54756,0.48652 1.20972,0.96041 1.9992,1.42167 0.78312,0.46124 1.68723,0.96041 2.71229,1.51011 1.05053,0.56237 2.05013,1.15629 2.99243,1.7755 0.9423,0.61921 1.76999,1.30794 2.47672,2.06615 0.70672,0.75823 1.27335,1.59227 1.68721,2.50845 0.41385,0.9162 0.62395,1.97137 0.62395,3.15295 0,1.56697 -0.28651,2.90018 -0.84678,3.98696 -0.56667,1.08678 -1.3307,1.97137 -2.29209,2.65377 -0.96138,0.6824 -2.06923,1.17524 -3.32986,1.47854 -1.25428,0.30331 -2.57859,0.45489 -3.97293,0.45489 -0.46478,0 -1.0378,-0.0382 -1.71905,-0.12004 -0.68126,-0.0822 -1.38161,-0.20218 -2.08833,-0.35384 -0.7131,-0.15794 -1.38161,-0.34748 -2.01831,-0.575 -0.64306,-0.24643 -1.14604,-0.5055 -1.53441,-0.78348 z m 37.34168,0.24644 c -1.76363,1.04885 -3.85195,1.57962 -6.26499,1.57962 -3.26622,0 -5.90846,-1.05519 -7.91403,-3.16558 -2.00555,-2.11037 -3.01153,-4.84629 -3.01153,-8.20773 0,-3.74687 1.08237,-6.75448 3.24711,-9.02915 2.16474,-2.27465 5.04892,-3.41199 8.66531,-3.41199 2.01193,0 3.78828,0.37282 5.32905,1.11206 v 3.73424 c -1.69994,-1.18788 -3.52088,-1.7755 -5.46276,-1.7755 -2.34301,0 -4.26581,0.83404 -5.76202,2.50213 -1.49621,1.66808 -2.24751,3.85428 -2.24751,6.56493 0,2.66641 0.70673,4.77047 2.11381,6.30586 1.40707,1.5354 3.3044,2.31257 5.67287,2.31257 1.9992,0 3.87744,-0.65711 5.64106,-1.97769 v 3.45623 z m 14.20447,-18.02038 c -0.64305,-0.4865 -1.56624,-0.73295 -2.77595,-0.73295 -1.56624,0 -2.87781,0.73295 -3.92836,2.19885 -1.05053,1.46589 -1.57898,3.46253 -1.57898,5.99625 v 11.59445 h -3.67368 v -22.74662 h 3.67368 v 4.68834 h 0.089 c 0.52208,-1.59857 1.31793,-2.84964 2.39395,-3.74054 1.076,-0.89724 2.27296,-1.34585 3.60363,-1.34585 0.95503,0 1.68723,0.10112 2.19657,0.30959 z m 4.21487,-9.4588 c -0.65578,0 -1.21606,-0.22116 -1.68085,-0.66344 -0.46478,-0.44233 -0.694,-1.00465 -0.694,-1.68705 0,-0.68239 0.2292,-1.24474 0.694,-1.69967 0.46477,-0.44861 1.02507,-0.67608 1.68085,-0.67608 0.66853,0 1.24154,0.22745 1.71268,0.67608 0.47118,0.45489 0.70673,1.01727 0.70673,1.69967 0,0.65081 -0.23558,1.20683 -0.70673,1.66808 -0.47115,0.44863 -1.04415,0.68241 -1.71268,0.68241 z m 1.7891,28.52172 h -3.6737 v -22.7466 h 3.6737 z m 5.92118,-3.28562 h -0.089 v 13.74907 h -3.67368 V 139.6158 h 3.67368 v 3.9996 h 0.089 c 1.80819,-3.02026 4.44407,-4.53037 7.92674,-4.53037 2.95422,0 5.25903,1.01727 6.91442,3.05183 1.65538,2.03455 2.48308,4.76416 2.48308,8.18878 0,3.80375 -0.92958,6.85559 -2.79504,9.14288 -1.86552,2.2873 -4.41863,3.43096 -7.65298,3.43096 -2.97334,-0.007 -5.2654,-1.27635 -6.87622,-3.82271 z m -0.089,-9.17447 v 3.17821 c 0,1.88291 0.6176,3.47517 1.84641,4.78943 1.22879,1.31426 2.79505,1.96506 4.69238,1.96506 2.22201,0 3.96654,-0.84668 5.22719,-2.53372 1.26064,-1.68705 1.89094,-4.03753 1.89094,-7.03883 0,-2.5337 -0.59213,-4.51772 -1.76998,-5.95202 -1.17787,-1.4343 -2.77596,-2.15461 -4.78788,-2.15461 -2.13289,0 -3.85195,0.73927 -5.1508,2.21148 -1.29882,1.46589 -1.94826,3.3109 -1.94826,5.535 z m 31.15943,12.23895 c -0.86589,0.47389 -2.00556,0.70767 -3.42538,0.70767 -4.01111,0 -6.02306,-2.22412 -6.02306,-6.66603 v -13.45841 h -3.94115 v -3.10869 h 3.94109 v -5.55398 l 3.67368,-1.17523 v 6.72921 h 5.77475 v 3.10869 h -5.77475 v 12.81392 c 0,1.52276 0.26105,2.61586 0.78313,3.26667 0.52209,0.6508 1.38799,0.97936 2.59768,0.97936 0.9232,0 1.72544,-0.2527 2.39394,-0.75822 z"
       id="path2"
       inkscape:connector-curvature="0"
       style="fill:#007acc;stroke-width:0.63426387" />
    <g
       transform="matrix(0.0148227,0,0,-0.01471011,60.763472,112.32789)"
       id="g4"
       style="fill:#007acc;stroke:none">
      <path
         d="M 0,3150 V 0 H 3150 6300 V 3150 6300 H 3150 0 Z m 5077,251 c 160,-40 282,-111 394,-227 58,-62 144,-175 151,-202 2,-8 -272,-192 -438,-295 -6,-4 -30,22 -57,62 -81,118 -166,169 -296,178 -191,13 -314,-87 -313,-254 0,-49 7,-78 27,-118 42,-87 120,-139 365,-245 451,-194 644,-322 764,-504 134,-203 164,-527 73,-768 -100,-262 -348,-440 -697,-499 -108,-19 -364,-16 -480,5 -253,45 -493,170 -641,334 -58,64 -171,231 -164,243 3,4 29,20 58,37 28,16 134,77 234,135 l 181,105 38,-56 c 53,-81 169,-192 239,-229 201,-106 477,-91 613,31 58,53 82,108 82,189 0,73 -9,105 -47,160 -49,70 -149,129 -433,252 -325,140 -465,227 -593,365 -74,80 -144,208 -173,315 -24,89 -30,312 -11,402 67,314 304,533 646,598 111,21 369,13 478,-14 z m -1479,-263 2,-258 H 3190 2780 V 1715 550 h -290 -290 v 1165 1165 h -410 -410 v 253 c 0,140 3,257 7,260 3,4 502,6 1107,5 l 1101,-3 z"
         id="path2-6"
         inkscape:connector-curvature="0" />
    </g>
  </g>
</svg>
